<?xml version="1.0" encoding="UTF-8"?>
<!DOCTYPE svg PUBLIC "-//W3C//DTD SVG 1.0//EN" "http://www.w3.org/TR/2001/REC-SVG-20010904/DTD/svg10.dtd">
<!-- Creator: CorelDRAW X7 -->
<svg xmlns="http://www.w3.org/2000/svg" xml:space="preserve" width="1in" height="1in" version="1.0" style="shape-rendering:geometricPrecision; text-rendering:geometricPrecision; image-rendering:optimizeQuality; fill-rule:evenodd; clip-rule:evenodd"
viewBox="0 0 1000 1000"
 xmlns:xlink="http://www.w3.org/1999/xlink">
 <defs>
  <style type="text/css">
   <![CDATA[
    .fil0 {fill:black}
   ]]>
  </style>
 </defs>
 <g id="Layer_x0020_1">
  <metadata id="CorelCorpID_0Corel-Layer"/>
  <g id="_2638352621216">
   <path class="fil0" d="M175 786c0,-9 0,-16 8,-22 23,-16 42,3 42,16l0 6c0,12 -13,23 -25,24 -12,0 -25,-11 -25,-24zm207 -1c0,-38 51,-32 51,-6l0 6c0,21 -26,33 -42,18 -4,-4 -9,-11 -9,-18zm0 -100c0,-35 52,-36 52,3 0,9 -12,22 -26,22 -14,0 -26,-12 -26,-25zm-208 1c0,-37 51,-33 51,-5l0 6c0,14 -22,34 -43,16 -3,-3 -8,-11 -8,-17zm135 -80c-29,0 -38,-3 -61,-16 -11,-5 -22,-13 -30,-20l-21 -20c-25,6 -85,21 -101,38 -4,4 -8,11 -10,17 -4,11 -7,57 -9,75 -1,7 -2,16 -3,24 -2,16 -4,33 -6,50 -2,17 -4,34 -6,50 -2,17 -4,34 -4,52 45,0 86,1 130,1l362 0c0,-44 -4,-71 -9,-114 -3,-24 -9,-73 -11,-96 -1,-15 -3,-34 -8,-45 -7,-18 -17,-24 -35,-31 -14,-6 -35,-12 -50,-17 -26,-7 -20,-7 -33,5 -16,16 -39,32 -60,40 -9,3 -23,7 -35,7z"/>
   <path class="fil0" d="M688 162c0,36 40,13 97,39 16,7 36,19 48,31 3,2 5,3 7,5 15,14 31,37 40,54 38,77 20,164 -36,220 -57,56 -139,73 -213,40 -29,-13 -47,-29 -68,-51 -2,-3 -3,-4 -5,-7 -2,-2 -4,-4 -6,-6 -41,-57 -46,-133 -15,-196 5,-10 34,-55 45,-58 5,19 -4,42 7,54 11,12 30,5 33,-5 5,-12 4,-92 4,-113l-112 0c-9,0 -25,34 4,41 5,1 18,2 23,2l-13 15c-9,11 -16,23 -23,35 -3,5 -7,14 -10,20 -39,91 -21,191 46,258 23,23 38,33 68,48 30,15 64,22 104,22 35,0 68,-10 93,-21 23,-10 49,-28 66,-46 15,-15 27,-29 37,-47 4,-6 7,-12 10,-19 11,-21 23,-59 23,-91l0 -22c0,-48 -23,-99 -51,-134 -13,-16 -18,-19 -31,-31 -5,-5 -11,-9 -17,-14 -28,-21 -77,-40 -114,-42 -10,0 -20,-1 -28,1 -7,2 -13,10 -13,18z"/>
   <path class="fil0" d="M207 300c0,4 -1,6 -2,10 -9,30 -4,76 8,103l10 20c10,17 18,29 34,41 29,22 58,23 88,5l14 -12c26,-24 48,-69 49,-107 0,-4 1,-5 1,-11 0,-8 -2,-27 -4,-35 -2,-8 -3,-11 -11,-15 -22,-12 -72,-15 -99,-15 -18,0 -32,2 -46,5l-42 11z"/>
   <path class="fil0" d="M201 229l0 55 22 -8c42,-14 94,-15 138,-6 11,2 25,5 35,9 4,2 8,4 12,5l0 -54c-26,-14 -41,-22 -72,-25 -10,-1 -51,-2 -61,-1 -19,3 -34,7 -51,14 -9,3 -20,10 -23,11z"/>
   <path class="fil0" d="M593 347c0,5 0,10 3,13 1,2 7,4 9,4 10,0 15,-16 19,-23 5,-11 12,-16 26,-16 7,0 20,12 20,21 0,18 -5,24 -15,35l-18 16c-2,3 -4,4 -6,6 -7,7 -15,14 -23,24 -2,2 -3,3 -5,6 -4,5 -12,16 -12,23 0,3 3,12 9,14 10,4 53,3 67,3l30 -2c9,-4 6,-22 -1,-25 -3,-1 -61,-2 -66,-2 3,-4 12,-13 16,-17 17,-16 51,-45 53,-64 2,-14 1,-30 -7,-41 -27,-38 -99,-23 -99,25z"/>
   <path class="fil0" d="M779 411l-28 0c-3,0 -3,-1 -6,-1 1,-4 41,-63 44,-65l0 64c-3,1 -6,2 -10,2zm-20 25l30 0c0,14 -2,39 12,39 10,0 16,-3 16,-22l0 -17c9,0 22,1 22,-13 0,-6 -1,-9 -6,-11 -3,-1 -12,-2 -15,-2 0,-22 -1,-40 -1,-61 0,-7 -1,-39 -4,-43 -3,-5 -10,-5 -15,-5 -5,0 -8,3 -10,6l-27 38c-3,4 -5,7 -7,10l-27 39c-2,4 -4,6 -6,10 -8,12 -12,27 6,31 8,1 23,1 32,1z"/>
   <path class="fil0" d="M230 545c3,1 8,7 12,11 5,3 9,6 14,9 6,4 24,14 34,14 4,0 4,-11 4,-16l0 -43c-10,0 -29,-6 -36,-9 -14,-6 -17,-10 -28,-18l0 52z"/>
   <path class="fil0" d="M317 520l0 59c21,0 64,-29 64,-35l0 -35c0,-7 -1,-9 -1,-16 -5,1 -14,16 -43,23 -5,2 -15,4 -20,4z"/>
  </g>
 </g>
</svg>
