<?xml version="1.0" encoding="UTF-8"?>
<!DOCTYPE svg PUBLIC "-//W3C//DTD SVG 1.0//EN" "http://www.w3.org/TR/2001/REC-SVG-20010904/DTD/svg10.dtd">
<!-- Creator: CorelDRAW X7 -->
<svg xmlns="http://www.w3.org/2000/svg" xml:space="preserve" width="300px" height="300px" version="1.0" style="shape-rendering:geometricPrecision; text-rendering:geometricPrecision; image-rendering:optimizeQuality; fill-rule:evenodd; clip-rule:evenodd"
viewBox="0 0 300 300"
 xmlns:xlink="http://www.w3.org/1999/xlink">
 <defs>
  <style type="text/css">
   <![CDATA[
    .fil0 {fill:black}
   ]]>
  </style>
 </defs>
 <g id="Layer_x0020_1">
  <metadata id="CorelCorpID_0Corel-Layer"/>
  <g id="atm.svg">
   <g>
    <g>
     <path class="fil0" d="M251 16l-202 0c-6,0 -10,5 -10,10l0 248c0,5 4,10 10,10l202 0c6,0 10,-5 10,-10l0 -248c0,-5 -4,-10 -10,-10zm-176 35c0,-2 2,-3 4,-3l142 0c2,0 4,1 4,3l0 84c0,2 -2,4 -4,4l-142 0c-2,0 -4,-2 -4,-4l0 -84zm56 197c0,2 -2,4 -4,4l-39 0c-2,0 -4,-2 -4,-4l0 -61c0,-2 2,-4 4,-4l39 0c2,0 4,2 4,4l0 61 0 0zm13 -67c0,2 -1,4 -3,4l-4 0c-2,0 -4,-2 -4,-4l0 -2 -51 0 0 2c0,2 -1,4 -3,4l-5 0c-2,0 -3,-2 -3,-4l0 -10c0,-2 1,-3 3,-3l67 0c2,0 3,1 3,3l0 10 0 0zm28 70c0,1 -1,2 -2,2l-15 0c-1,0 -2,-1 -2,-2l0 -15c0,-1 1,-2 2,-2l15 0c1,0 2,1 2,2l0 15zm0 -29c0,2 -1,3 -2,3l-15 0c-1,0 -2,-1 -2,-3l0 -14c0,-2 1,-3 2,-3l15 0c1,0 2,1 2,3l0 14zm0 -28c0,1 -1,2 -2,2l-15 0c-1,0 -2,-1 -2,-2l0 -15c0,-1 1,-2 2,-2l15 0c1,0 2,1 2,2l0 15zm29 57c0,1 -1,2 -3,2l-14 0c-2,0 -3,-1 -3,-2l0 -15c0,-1 1,-2 3,-2l14 0c2,0 3,1 3,2l0 15zm0 -29c0,2 -1,3 -3,3l-14 0c-2,0 -3,-1 -3,-3l0 -14c0,-2 1,-3 3,-3l14 0c2,0 3,1 3,3l0 14zm0 -28c0,1 -1,2 -3,2l-14 0c-2,0 -3,-1 -3,-2l0 -15c0,-1 1,-2 3,-2l14 0c2,0 3,1 3,2l0 15zm28 57c0,1 -1,2 -2,2l-15 0c-1,0 -2,-1 -2,-2l0 -15c0,-1 1,-2 2,-2l15 0c1,0 2,1 2,2l0 15zm0 -29c0,2 -1,3 -2,3l-15 0c-1,0 -2,-1 -2,-3l0 -14c0,-2 1,-3 2,-3l15 0c1,0 2,1 2,3l0 14zm0 -28c0,1 -1,2 -2,2l-15 0c-1,0 -2,-1 -2,-2l0 -15c0,-1 1,-2 2,-2l15 0c1,0 2,1 2,2l0 15z"/>
     <path class="fil0" d="M90 114l7 0c1,0 2,0 2,-1l3 -10 12 0 2 10c1,1 2,1 3,1l7 0c1,0 1,0 2,0 0,-1 0,-2 0,-3l-13 -41c0,-1 -1,-1 -2,-1l-10 0c-2,0 -2,0 -3,1l-12 41c-1,1 0,2 0,3 0,0 1,0 2,0zm16 -28c0,-2 1,-4 1,-6 0,0 0,-1 0,-1 1,2 2,4 2,7l3 8 -9 0 3 -8z"/>
     <path class="fil0" d="M127 78l9 0 0 34c0,1 1,2 3,2l6 0c1,0 2,-1 2,-2l0 -34 10 0c2,0 3,-1 3,-2l0 -5c0,-1 -1,-2 -3,-2l-30 0c-2,0 -3,1 -3,2l0 5c0,1 1,2 3,2z"/>
     <path class="fil0" d="M165 114l5 0c1,0 3,-1 3,-2l0 -15c1,-4 1,-8 1,-12 0,-1 0,-2 0,-2 1,4 2,9 3,13l5 16c0,1 1,2 2,2l5 0c1,0 2,-1 2,-2l5 -16c2,-5 3,-9 4,-14 1,5 1,11 1,15l0 15c1,1 2,2 3,2l6 0c1,0 1,0 2,0 0,-1 0,-1 0,-2l-2 -41c0,-1 -1,-2 -2,-2l-10 0c-1,0 -2,0 -3,1l-4 14c0,0 0,0 0,0 -1,5 -3,10 -4,14 -1,-4 -2,-9 -3,-14 0,0 0,0 0,0l-4 -14c0,-1 -1,-1 -2,-1l-11 0c-1,0 -2,1 -2,2l-3 41c0,1 0,1 1,2 0,0 1,0 2,0z"/>
    </g>
   </g>
   <g>
   </g>
   <g>
   </g>
   <g>
   </g>
   <g>
   </g>
   <g>
   </g>
   <g>
   </g>
   <g>
   </g>
   <g>
   </g>
   <g>
   </g>
   <g>
   </g>
   <g>
   </g>
   <g>
   </g>
   <g>
   </g>
   <g>
   </g>
   <g>
   </g>
  </g>
 </g>
</svg>
