<?xml version="1.0" encoding="UTF-8"?>
<!DOCTYPE svg PUBLIC "-//W3C//DTD SVG 1.0//EN" "http://www.w3.org/TR/2001/REC-SVG-20010904/DTD/svg10.dtd">
<!-- Creator: CorelDRAW X7 -->
<svg xmlns="http://www.w3.org/2000/svg" xml:space="preserve" width="1in" height="1in" version="1.0" style="shape-rendering:geometricPrecision; text-rendering:geometricPrecision; image-rendering:optimizeQuality; fill-rule:evenodd; clip-rule:evenodd"
viewBox="0 0 1000 1000"
 xmlns:xlink="http://www.w3.org/1999/xlink">
 <defs>
  <style type="text/css">
   <![CDATA[
    .fil0 {fill:black}
   ]]>
  </style>
 </defs>
 <g id="Layer_x0020_1">
  <metadata id="CorelCorpID_0Corel-Layer"/>
  <path class="fil0" d="M61 828l878 0 0 26 -878 0 0 -26zm-26 40l0 -54c2,-12 8,-11 26,-11l0 -330 -17 0c-4,0 -7,-5 -9,-10l0 -7c2,-4 5,-9 13,-9l240 0 0 -315c0,-9 6,-13 14,-13l390 0c13,0 19,5 19,18l0 310 241 0c6,0 13,4 13,9 0,19 -5,17 -26,17l0 330c8,0 26,-2 26,9l0 56c0,9 -7,13 -15,13l-900 0c-8,0 -15,-4 -15,-13zm839 -395l40 0 0 330 -40 0 0 -330zm-80 0l54 0 0 330 -54 0 0 -330zm-80 0l55 0 0 330 -55 0 0 -330zm-80 0l49 0 0 330 -49 0 0 -330zm-81 0l54 0 0 330 -54 0 0 -330zm-80 0l54 0 0 330 -54 0 0 -330zm-80 0l54 0 0 330 -54 0 0 -330zm-80 0l55 0 0 330 -55 0 0 -330zm-80 0l55 0 0 330 -55 0 0 -330zm-81 0l54 0 0 330 -54 0 0 -330zm-64 0l38 0 0 330 -38 0 0 -330zm446 -276l98 0 0 250 -98 0 0 -250zm-168 0l98 0 0 250 -98 0 0 -250zm-28 -7l0 257 -25 0 0 -301 370 0 0 301 -25 0 0 -265c0,-5 -8,-10 -15,-10l-121 0c-13,0 -15,9 -15,21l0 254 -18 0 0 -261c0,-9 -6,-14 -14,-14l-122 0c-11,0 -15,7 -15,18z"/>
 </g>
</svg>
