<?xml version="1.0" encoding="UTF-8"?>
<!DOCTYPE svg PUBLIC "-//W3C//DTD SVG 1.0//EN" "http://www.w3.org/TR/2001/REC-SVG-20010904/DTD/svg10.dtd">
<!-- Creator: CorelDRAW X7 -->
<svg xmlns="http://www.w3.org/2000/svg" xml:space="preserve" width="1in" height="1in" version="1.0" style="shape-rendering:geometricPrecision; text-rendering:geometricPrecision; image-rendering:optimizeQuality; fill-rule:evenodd; clip-rule:evenodd"
viewBox="0 0 1000 1000"
 xmlns:xlink="http://www.w3.org/1999/xlink">
 <defs>
  <style type="text/css">
   <![CDATA[
    .fil0 {fill:black}
    .fil1 {fill:#FEFEFE}
   ]]>
  </style>
 </defs>
 <g id="Layer_x0020_1">
  <metadata id="CorelCorpID_0Corel-Layer"/>
  <g id="_2638358359872">
   <path class="fil0" d="M592 772l14 35c3,6 4,13 6,19l4 20c0,-1 1,1 -1,-2l-23 -72zm-96 -86l0 16c-13,0 -37,5 -51,5 8,-16 18,-42 27,-59 2,-4 3,-7 4,-10 26,6 39,1 56,1l20 57c-11,0 -21,3 -33,3l0 -48 -24 0c0,13 1,22 1,35zm-129 -104l21 10c-3,-1 -8,-3 -12,-4 -4,-1 -7,-2 -9,-6zm-17 -21l26 11c4,1 2,0 3,2 -14,-6 -22,-2 -29,-13zm-12 -21c7,3 27,9 33,12l2 1c-4,0 -14,-3 -19,-4 -14,-4 -16,-2 -16,-9zm11 -13l30 7c11,2 21,4 33,6 66,9 163,7 228,-9 5,-1 12,-4 15,-4l-14 7c-65,22 -155,24 -223,13 -15,-2 -40,-8 -53,-13l-16 -7zm159 -92c9,0 13,-1 13,3l0 84c0,4 -4,3 -13,3l0 -90zm25 4c0,-4 3,-2 7,-2 4,0 7,-1 7,3l0 81c0,4 -4,3 -14,3l0 -85zm-77 1c0,-4 4,-3 13,-3l0 87 -13 -1 0 -83zm-26 0c6,0 8,-1 13,-1l0 83c-6,0 -8,-1 -13,-1l0 -81zm156 2c4,0 9,1 12,2l0 74c-2,0 -11,1 -12,2l0 -78zm-27 -3l14 1 0 81c-5,1 -8,1 -14,1 1,-3 1,-2 1,-4 0,-3 -1,2 -1,-3l0 -76zm53 8c5,0 7,1 12,2l0 64c-4,1 -7,2 -12,2l0 -68zm-234 2c4,-1 9,-1 13,-2l0 68c-2,0 -7,-1 -9,-1 -4,-1 -4,-1 -4,-5l0 -60zm-26 8c5,-1 9,-3 14,-4l0 56c-7,0 -8,-3 -14,-3l0 -49zm311 5c4,1 10,5 13,7 20,16 -7,30 -13,32l0 -39zm-323 37c-4,0 -9,-4 -12,-6 -17,-15 6,-29 12,-30l0 36zm297 -47c17,4 13,3 13,20 0,12 0,23 0,35 -4,1 -8,2 -13,3l0 -58zm-232 -8c3,0 10,-1 12,-2l0 77c-5,0 -7,-1 -12,-1l0 -74zm77 -8c9,-1 13,-3 13,3l0 65c0,24 4,21 -13,21l0 -89zm187 120c2,0 5,-1 7,-3 3,-3 8,-16 9,-20 6,-21 2,-19 11,-30 6,-8 10,-16 7,-30 -3,-11 -10,-17 -18,-23 -3,-1 -3,-2 -6,-4 -3,-1 -4,-2 -7,-3 -20,-10 -57,-18 -80,-20 -18,-2 -56,-5 -74,-5 -7,0 -13,1 -19,1 -5,-1 -13,-1 -19,-1 -12,1 -26,1 -38,2 -23,2 -47,5 -69,10 -21,5 -40,10 -57,23 -14,12 -19,31 -10,45 2,3 6,7 8,9 5,8 0,39 40,80 8,7 21,17 30,22l23 11c6,3 17,7 24,9 0,3 -2,6 -3,10 -1,3 -2,7 -3,10l-12 42c-1,3 -2,6 -3,10 -1,4 -2,6 -3,10 -2,7 -4,14 -6,21 -2,6 -4,13 -6,20 -2,8 -4,14 -6,21 -5,14 -7,17 -1,17 2,0 5,-8 7,-11l2 -3c0,6 -2,10 -2,16 5,0 7,1 11,2l28 -62c1,-3 2,-6 3,-9l91 -9c10,-1 21,-1 29,-3l56 156c1,4 2,8 4,12 1,3 3,7 3,10l22 0 -7 -32c-3,-12 -5,-22 -8,-33l-15 -64c-8,-37 -22,-88 -31,-127 -7,0 -10,1 -15,1 1,-1 -1,0 2,-1l22 -8c4,-1 7,-2 12,-4 16,-7 31,-17 45,-29 2,-1 2,-2 4,-3 -1,-2 -1,-1 -2,-2l-1 -1c0,0 0,0 -1,-1 0,0 0,0 0,0 6,0 6,3 14,-9 -5,0 -5,-1 -6,-2 1,0 6,-1 8,-1 4,-2 10,-13 11,-16 -1,0 -2,0 -3,0 -2,0 -1,0 -2,-1z"/>
   <path class="fil0" d="M314 413c-2,4 0,1 -4,3 -2,0 -3,1 -5,1 -3,1 -7,2 -10,3 -3,1 -6,2 -10,3 -3,1 -7,2 -10,3 -2,-3 -4,-4 -5,-8l44 -5zm-53 -16c8,0 29,-5 39,-6 -1,1 0,1 -3,2 -3,1 -27,8 -33,12 -1,-2 -3,-6 -3,-8zm-9 -22c3,0 6,0 9,0 4,0 4,-1 7,-1l17 -1c-1,1 -1,1 -2,1l-29 7c-1,-2 -2,-3 -2,-6zm-5 -14c0,-7 4,-5 11,-5 5,0 10,0 15,0l0 1c-6,0 -18,4 -26,4zm-1 -31c9,0 20,4 26,4l-26 0 0 -4zm25 -20c-8,0 -11,-1 -19,-1l0 -4c6,0 14,4 19,4l0 1zm-13 -32c3,1 7,3 9,6 -5,0 -5,-1 -10,-1 0,-3 0,-3 1,-5zm14 -72c16,-24 51,-47 81,-47l4 12c-14,3 -43,24 -56,34l-16 14c-4,-3 -10,-8 -13,-13zm226 -25c1,-4 4,-10 6,-13 -13,-7 -40,-14 -59,-14 -55,0 -56,8 -71,9l-7 -21c-1,-3 -2,-4 -2,-6 -20,0 -22,-4 -22,3 -1,-2 -1,2 -1,-3 -6,0 -7,0 -11,1l-2 5c0,-3 0,-3 -2,-5l-19 6c-15,5 -37,19 -44,31 0,3 1,3 3,6 -3,-1 -4,-2 -7,-2 -6,9 -19,26 -21,37 4,3 9,6 14,10l41 30 -32 -9c-1,2 -16,26 -22,42 -14,40 -14,76 3,116 3,8 8,16 13,23 4,7 7,16 18,16 38,0 98,-36 129,-54 4,-3 7,-5 11,-7 3,-2 7,-5 11,-7 14,-10 28,-19 42,-30 3,-2 6,-5 10,-8l66 -58c11,-10 27,-28 30,-41 2,-6 -1,-8 -3,-13 -6,-8 -18,-23 -25,-28 -5,3 -14,13 -17,14l10 -13c2,-2 3,-2 4,-4 -2,-3 -13,-11 -17,-14 -6,-4 -12,-7 -19,-11 -2,3 -6,10 -8,12z"/>
   <path class="fil0" d="M354 850c0,-10 10,-20 20,-20 14,0 23,10 23,22 0,26 -43,30 -43,-2zm65 -23c1,-4 2,-1 3,-6 -15,-21 -41,-28 -62,-18 -19,9 -29,25 -29,47 0,30 32,55 64,45 10,-4 7,-3 8,-6 3,1 3,1 6,-1 2,-2 3,-3 5,-5 1,-1 4,-4 5,-5 1,-2 0,-2 0,-3l-1 -1c0,-1 0,-1 0,-1 4,2 3,2 6,-4 1,-2 0,0 2,-2 -1,-1 -1,-1 -2,-2l-2 -1c0,0 0,0 0,-1 5,0 5,0 6,-5 4,-20 -3,-26 -3,-33 -4,1 -4,1 -6,2z"/>
   <path class="fil0" d="M649 140c0,-6 7,-10 13,-10 23,0 24,13 24,31 0,13 -9,40 -15,48 -4,6 -11,10 -17,14 -19,9 -45,19 -58,35 -5,6 -9,12 -9,22 -1,7 -1,19 4,25 0,-8 4,-21 6,-27 8,-19 20,-24 38,-29 30,-7 45,-10 60,-41 3,-7 5,-17 8,-25 12,-36 2,-49 -20,-69 -2,-2 -4,-3 -7,-4 -13,-9 -25,-9 -38,0 -9,6 -10,6 -10,20 0,16 21,30 30,30 -2,-3 -9,-14 -9,-20z"/>
   <path class="fil0" d="M662 322c-1,-4 -2,-6 -4,-10 -2,-4 -4,-6 -6,-9 -3,-5 -10,-10 -15,-14l-16 -12c0,11 2,16 5,24 19,57 -22,63 -22,96 0,18 18,18 19,19 -3,-12 -15,-15 13,-37 5,-5 17,-14 19,-20l1 0c0,30 -29,34 -20,52 11,-7 17,-13 22,-26 8,-20 11,-42 4,-63z"/>
   <path class="fil1" d="M496 686c0,-13 -1,-22 -1,-35l24 0 0 48c12,0 22,-3 33,-3l-20 -57c-17,0 -30,5 -56,-1 -1,3 -2,6 -4,10 -9,17 -19,43 -27,59 14,0 38,-5 51,-5l0 -16z"/>
   <path class="fil0" d="M583 381c0,-35 35,-40 35,-49 0,-22 1,-17 -5,-39 -2,0 -1,-2 -3,1l-9 19c-6,12 -22,17 -28,23 -18,19 -21,57 6,73 2,2 8,4 11,5 -1,-3 -2,-3 -2,-6 0,-25 22,-46 25,-59 -3,2 -6,4 -9,7 -9,5 -14,11 -18,20l-3 5z"/>
   <path class="fil0" d="M611 276c4,-1 21,-15 39,-14 4,0 3,0 7,1 12,0 28,1 39,-4 32,-13 15,-72 41,-61 21,9 22,23 11,26 -4,1 -10,-2 -15,-2l0 3c0,16 37,24 37,-3 0,-22 -12,-38 -33,-38 -30,0 -31,30 -37,46 -11,27 -38,21 -57,24 -11,2 -30,12 -32,22z"/>
   <path class="fil0" d="M597 207c-12,-1 -9,-15 -3,-18 20,-9 16,16 15,25 -4,23 -20,9 -32,39 -11,29 -3,31 -3,39l2 0c0,-19 2,-30 14,-44l6 -8c11,-13 38,-26 26,-54 -1,-3 -3,-6 -6,-8 -7,-4 -35,-6 -45,-1 -7,3 -5,8 -5,19 0,17 27,28 31,11z"/>
   <path class="fil0" d="M497 724c0,9 0,18 0,27 0,10 1,17 1,26 0,8 0,17 0,26l1 25 20 0 0 -107c-4,-1 -18,2 -22,3z"/>
   <path class="fil1" d="M365 534c13,5 38,11 53,13 68,11 158,9 223,-13l14 -7c-3,0 -10,3 -15,4 -65,16 -162,18 -228,9 -12,-2 -22,-4 -33,-6l-30 -7 16 7z"/>
   <path class="fil1" d="M272 206c3,5 9,10 13,13l16 -14c13,-10 42,-31 56,-34l-4 -12c-30,0 -65,23 -81,47z"/>
   <path class="fil0" d="M517 391c3,-1 7,-4 11,-5l10 -7c16,-12 14,-31 22,-42 4,-6 9,-8 15,-17 -14,0 -17,-1 -27,5 -6,2 -14,10 -17,15 -5,8 -7,13 -9,24 -2,19 -1,10 -5,27z"/>
   <path class="fil0" d="M701 283c33,0 57,-34 34,-37 -10,-2 -29,9 -18,17 5,-2 3,-3 7,-4 7,-2 5,12 -8,15 -6,2 -14,2 -20,1 -13,-2 -25,-8 -40,-8 -24,0 -21,26 0,21 1,-2 0,-2 1,-4 -12,0 -3,-9 7,-9 4,0 15,3 19,4 5,2 11,4 18,4z"/>
   <path class="fil1" d="M508 525c9,0 13,1 13,-3l0 -84c0,-4 -4,-3 -13,-3l0 90z"/>
   <path class="fil1" d="M482 436l0 89c17,0 13,3 13,-21l0 -65c0,-6 -4,-4 -13,-3z"/>
   <path class="fil1" d="M533 439l0 85c10,0 14,1 14,-3l0 -81c0,-4 -3,-3 -7,-3 -4,0 -7,-2 -7,2z"/>
   <path class="fil1" d="M360 854c0,-4 0,-6 3,-8 1,5 4,8 9,10 4,3 9,2 15,4 -1,15 -27,7 -27,-6zm18 -3c3,-5 1,-3 12,-3 2,6 2,1 0,7 -7,0 -9,1 -12,-4zm-24 -1c0,32 43,28 43,2 0,-12 -9,-22 -23,-22 -10,0 -20,10 -20,20z"/>
   <path class="fil1" d="M559 515c0,5 1,0 1,3 0,2 0,1 -1,4 6,0 9,0 14,-1l0 -81 -14 -1 0 76z"/>
   <path class="fil1" d="M456 440l0 83 13 1 0 -87c-9,0 -13,-1 -13,3z"/>
   <path class="fil1" d="M430 440l0 81c5,0 7,1 13,1l0 -83c-5,0 -7,1 -13,1z"/>
   <path class="fil1" d="M586 520c1,-1 10,-2 12,-2l0 -74c-3,-1 -8,-2 -12,-2l0 78z"/>
   <path class="fil1" d="M405 444l0 74c5,0 7,1 12,1l0 -77c-2,1 -9,2 -12,2z"/>
   <path class="fil0" d="M492 398c13,0 18,-9 21,-19 2,-8 5,-24 5,-33 -10,11 -18,23 -31,32 -6,4 -7,6 -15,9l-9 3c4,1 9,3 13,3 5,0 11,-5 15,-6 0,5 1,7 1,11z"/>
   <path class="fil1" d="M378 449l0 60c0,4 0,4 4,5 2,0 7,1 9,1l0 -68c-4,1 -9,1 -13,2z"/>
   <path class="fil1" d="M612 515c5,0 8,-1 12,-2l0 -64c-5,-1 -7,-2 -12,-2l0 68z"/>
   <path class="fil1" d="M352 457l0 49c6,0 7,3 14,3l0 -56c-5,1 -9,3 -14,4z"/>
   <path class="fil1" d="M637 510c5,-1 9,-2 13,-3 0,-12 0,-23 0,-35 0,-17 4,-16 -13,-20l0 58z"/>
   <path class="fil0" d="M662 296c11,20 16,34 16,65 6,-4 13,-18 13,-28 0,-17 -14,-25 -24,-34 -3,-2 -1,-2 -5,-3z"/>
   <path class="fil1" d="M663 501c6,-2 33,-16 13,-32 -3,-2 -9,-6 -13,-7l0 39z"/>
   <path class="fil1" d="M340 499l0 -36c-6,1 -29,15 -12,30 3,2 8,6 12,6z"/>
   <path class="fil0" d="M360 854c0,13 26,21 27,6 -6,-2 -11,-1 -15,-4 -5,-2 -8,-5 -9,-10 -3,2 -3,4 -3,8z"/>
   <path class="fil1" d="M270 418c1,4 3,5 5,8 3,-1 7,-2 10,-3 4,-1 7,-2 10,-3 3,-1 7,-2 10,-3 2,0 3,-1 5,-1 4,-2 2,1 4,-3l-44 5z"/>
   <path class="fil1" d="M261 397c0,2 2,6 3,8 6,-4 30,-11 33,-12 3,-1 2,-1 3,-2 -10,1 -31,6 -39,6z"/>
   <path class="fil1" d="M606 807l-14 -35 23 72c2,3 1,1 1,2l-4 -20c-2,-6 -3,-13 -6,-19z"/>
   <path class="fil1" d="M252 375c0,3 1,4 2,6l29 -7c1,0 1,0 2,-1l-17 1c-3,0 -3,1 -7,1 -3,0 -6,0 -9,0z"/>
   <path class="fil1" d="M371 552c-6,-3 -26,-9 -33,-12 0,7 2,5 16,9 5,1 15,4 19,4l-2 -1z"/>
   <path class="fil0" d="M378 851c3,5 5,4 12,4 2,-6 2,-1 0,-7 -11,0 -9,-2 -12,3z"/>
   <path class="fil1" d="M247 361c8,0 20,-4 26,-4l0 -1c-5,0 -10,0 -15,0 -7,0 -11,-2 -11,5z"/>
   <path class="fil1" d="M350 561c7,11 15,7 29,13 -1,-2 1,-1 -3,-2l-26 -11z"/>
   <path class="fil1" d="M252 309c8,0 11,1 19,1l0 -1c-5,0 -13,-4 -19,-4l0 4z"/>
   <path class="fil1" d="M246 334l26 0c-6,0 -17,-4 -26,-4l0 4z"/>
   <path class="fil1" d="M367 582c2,4 5,5 9,6 4,1 9,3 12,4l-21 -10z"/>
   <path class="fil1" d="M257 283c5,0 5,1 10,1 -2,-3 -6,-5 -9,-6 -1,2 -1,2 -1,5z"/>
  </g>
 </g>
</svg>
