<?xml version="1.0" encoding="UTF-8"?>
<!DOCTYPE svg PUBLIC "-//W3C//DTD SVG 1.0//EN" "http://www.w3.org/TR/2001/REC-SVG-20010904/DTD/svg10.dtd">
<!-- Creator: CorelDRAW X7 -->
<svg xmlns="http://www.w3.org/2000/svg" xml:space="preserve" width="1in" height="1in" version="1.0" style="shape-rendering:geometricPrecision; text-rendering:geometricPrecision; image-rendering:optimizeQuality; fill-rule:evenodd; clip-rule:evenodd"
viewBox="0 0 1000 1000"
 xmlns:xlink="http://www.w3.org/1999/xlink">
 <defs>
  <style type="text/css">
   <![CDATA[
    .fil0 {fill:black}
   ]]>
  </style>
 </defs>
 <g id="Layer_x0020_1">
  <metadata id="CorelCorpID_0Corel-Layer"/>
  <path id="_7998239881556105709.svg" class="fil0" d="M111 500c0,-215 174,-389 389,-389 215,0 389,174 389,389 0,215 -174,389 -389,389 -215,0 -389,-174 -389,-389zm584 27l0 -160c0,-9 -8,-17 -18,-17 -10,0 -18,8 -18,17l0 160c0,9 8,17 18,17 10,0 18,-8 18,-17zm-5 85c7,8 6,19 -2,25 -2,3 -68,58 -188,58 -120,0 -186,-55 -188,-58 -8,-6 -9,-17 -2,-25 6,-7 17,-8 25,-2 1,1 59,49 165,49 107,0 165,-48 165,-49 8,-6 19,-5 25,2zm-384 -245l0 160c0,9 7,17 17,17 10,0 18,-8 18,-17l0 -160c0,-9 -8,-17 -18,-17 -10,0 -17,8 -17,17zm88 201l0 -236c0,-10 8,-18 18,-18 9,0 17,8 17,18l0 236c0,10 -8,18 -17,18 -10,0 -18,-8 -18,-18zm88 -245l0 257c0,9 8,17 18,17 10,0 18,-8 18,-17l0 -257c0,-10 -8,-17 -18,-17 -10,0 -18,7 -18,17zm89 245l0 -236c0,-10 8,-18 17,-18 10,0 18,8 18,18l0 236c0,10 -8,18 -18,18 -9,0 -17,-8 -17,-18z"/>
 </g>
</svg>
