<?xml version="1.0" encoding="UTF-8"?>
<!DOCTYPE svg PUBLIC "-//W3C//DTD SVG 1.0//EN" "http://www.w3.org/TR/2001/REC-SVG-20010904/DTD/svg10.dtd">
<!-- Creator: CorelDRAW X7 -->
<svg xmlns="http://www.w3.org/2000/svg" xml:space="preserve" width="300px" height="300px" version="1.0" style="shape-rendering:geometricPrecision; text-rendering:geometricPrecision; image-rendering:optimizeQuality; fill-rule:evenodd; clip-rule:evenodd"
viewBox="0 0 300 300"
 xmlns:xlink="http://www.w3.org/1999/xlink">
 <defs>
  <style type="text/css">
   <![CDATA[
    .fil0 {fill:black}
   ]]>
  </style>
 </defs>
 <g id="Layer_x0020_1">
  <metadata id="CorelCorpID_0Corel-Layer"/>
  <path id="businees_x0020_centrre.svg" class="fil0" d="M276 130l-9 0 -14 7c-1,-1 -3,-2 -5,-2l-17 -4 0 -2c8,-6 12,-14 12,-24l0 -7c0,-16 -12,-29 -27,-29 -1,0 -2,0 -2,0l4 -11 -22 -21 -12 8c-5,-2 -10,-5 -15,-6l-4 -15 -30 0 -4 15c-5,1 -10,4 -15,6l-12 -8 -22 21 4 11c0,0 0,0 0,0 -8,0 -15,2 -21,8 -5,5 -8,12 -8,20l0 8c0,10 4,18 12,24l0 2 -11 2 -21 -11 -13 0 0 84 40 13 8 0 1 -3 12 7c0,7 6,12 12,12 0,7 6,12 12,12 1,7 6,12 13,13 0,6 5,12 12,12 3,0 5,-1 7,-2l4 3c2,2 5,3 8,3l1 0c7,0 12,-6 12,-12 7,0 12,-6 12,-13 7,0 13,-5 13,-12 6,0 12,-5 12,-12 0,-1 0,-1 0,-1l73 -37 0 -59zm-41 -32l0 7c0,8 -4,14 -10,18l-2 1 0 13 20 5 -44 23 0 -10c0,-6 -2,-11 -6,-15l14 -3 0 -13 -2 -1c-6,-4 -10,-10 -10,-18l0 -8c0,-5 2,-10 6,-14 4,-4 9,-6 15,-6 10,0 19,10 19,21l0 0zm-79 64l-18 -6c-9,-2 -18,-3 -26,-1l-3 1 0 -1c0,-6 4,-11 10,-12l23 -6 0 -13 -2 -1c-6,-4 -10,-10 -10,-18l0 -8c0,-5 2,-10 6,-14 4,-4 9,-6 15,-6 10,0 19,10 19,21l0 7c0,8 -4,14 -10,18l-2 1 0 13 23 6c6,1 10,6 10,12l0 15 -1 0 -3 0 -25 -7c-2,0 -4,-1 -6,-1zm-46 -77c8,-15 23,-24 40,-24 17,0 32,9 40,24 -2,3 -3,8 -3,12l0 8c0,10 4,18 12,24l0 2 -17 4 -16 -4 0 -2c8,-6 12,-14 12,-24l0 -7c0,-16 -12,-29 -27,-29 -8,0 -15,2 -21,8 -5,5 -8,12 -8,20l0 8c0,10 4,18 12,24l0 2 -16 4 -17 -4 0 -2c8,-6 12,-14 12,-24l0 -7c0,-5 -1,-9 -3,-13l0 0zm-18 -25l13 -13 11 8 2 -2c6,-3 12,-5 18,-7l2 0 3 -14 18 0 3 14 2 0c6,2 12,4 18,7l2 2 11 -8 13 13 -4 11c-3,1 -6,3 -9,6 0,0 0,0 0,0 -10,-15 -27,-24 -45,-24 -18,0 -35,9 -45,25 -2,-3 -5,-5 -9,-7l-4 -11zm-15 77l0 -13 -2 -1c-6,-4 -10,-10 -10,-18l0 -8c0,-5 2,-10 6,-14 4,-4 9,-6 15,-6 11,0 19,10 19,21l0 7c0,8 -4,14 -10,18l-2 1 0 13 14 3c-4,4 -6,9 -6,15l0 3 -12 2 0 -1 0 -7 -21 -13 9 -2zm-45 -7l3 0 29 17 -14 59 -18 -6 0 -70zm33 81l-8 -3 15 -57 9 5 0 2 -15 53 -1 0zm28 12c0,-2 1,-3 1,-4l8 -7c0,-1 2,-1 3,-1 2,0 4,2 4,4 0,2 0,3 -1,4l-7 7c-1,1 -2,1 -3,1 -3,0 -5,-2 -5,-4zm12 12c0,-1 1,-3 2,-3l7 -8c1,0 2,-1 3,-1 3,0 5,2 5,5 0,1 -1,2 -2,3l-7 7c-1,1 -2,1 -3,1 -3,0 -5,-2 -5,-4zm13 12c0,-1 0,-2 1,-3l7 -7c1,-1 2,-2 3,-2 3,0 5,2 5,5 0,1 -1,2 -2,3l-7 7c-1,1 -2,2 -3,2 -2,0 -4,-3 -4,-5zm16 17c-2,0 -4,-2 -4,-5 0,-1 0,-2 1,-3l7 -7c1,-1 2,-2 3,-2 3,0 5,2 5,5 0,1 -1,2 -1,3l-8 7c0,1 -2,2 -3,2zm20 4l-1 0c-1,0 -2,-1 -3,-1l-3 -3 3 -3c1,-1 2,-2 3,-4l4 3c1,1 1,2 1,4 0,2 -2,4 -4,4l0 0zm36 -37l0 0c-1,0 -2,0 -3,-1l-22 -18 -5 6 21 18c1,1 1,2 1,3 0,2 -1,4 -4,4l-1 0c-1,0 -2,0 -2,-1l-22 -18 -6 6 22 18c1,1 1,2 1,3 0,3 -2,5 -4,5 -1,0 -3,-1 -4,-2l-9 -8c-2,-4 -6,-6 -11,-7 0,-6 -6,-12 -12,-12 -1,-6 -6,-12 -13,-12 0,-7 -5,-12 -12,-12 -3,0 -7,1 -9,3l-7 8c-1,0 -1,1 -1,1l-13 -7 11 -39 27 -6c8,-1 15,-1 22,1l6 2 -20 10c-5,3 -8,7 -8,12l0 1c0,8 7,14 14,14 3,0 5,-1 7,-2l15 -9c3,-2 7,-2 10,1l34 31c1,0 2,2 2,3 0,2 -2,4 -5,4l0 0zm78 -47l-69 34c0,0 0,0 0,0l-35 -31c-3,-3 -7,-5 -11,-5 -3,0 -5,1 -8,3l-15 9c-1,0 -2,1 -3,1 -3,0 -5,-3 -5,-6l0 -1c0,-2 1,-4 3,-5l22 -11c4,-2 9,-2 13,-1l25 7 7 0 76 -40 0 46zm0 0z"/>
 </g>
</svg>
