<?xml version="1.0" encoding="UTF-8"?>
<!DOCTYPE svg PUBLIC "-//W3C//DTD SVG 1.0//EN" "http://www.w3.org/TR/2001/REC-SVG-20010904/DTD/svg10.dtd">
<!-- Creator: CorelDRAW X7 -->
<svg xmlns="http://www.w3.org/2000/svg" xml:space="preserve" width="300px" height="300px" version="1.0" style="shape-rendering:geometricPrecision; text-rendering:geometricPrecision; image-rendering:optimizeQuality; fill-rule:evenodd; clip-rule:evenodd"
viewBox="0 0 300 300"
 xmlns:xlink="http://www.w3.org/1999/xlink">
 <defs>
  <style type="text/css">
   <![CDATA[
    .fil0 {fill:black}
    .fil1 {fill:white}
   ]]>
  </style>
 </defs>
 <g id="Layer_x0020_1">
  <metadata id="CorelCorpID_0Corel-Layer"/>
  <g id="_2231848899920">
   <path class="fil0" d="M152 258c6,0 13,-2 17,-4 2,-1 5,-2 7,-3 16,-10 23,-31 14,-50 -1,-2 -3,-4 -4,-6l-5 -6c-2,-1 -3,-3 -5,-4 -8,-5 -15,-7 -24,-7 -2,-1 -8,0 -9,1 -4,0 -5,1 -8,2 -10,4 -16,11 -21,20 -1,2 -2,5 -3,8l-1 9c0,5 2,12 4,16 6,14 21,24 38,24z"/>
   <path class="fil0" d="M104 218c0,-10 3,-19 8,-26 2,-3 4,-4 6,-7 4,-4 8,-6 14,-9 17,-9 40,-4 55,10 16,16 18,40 4,59 -1,1 -2,2 -3,3 -1,2 -1,2 -3,3 -7,7 -14,10 -23,12l-11 1c-26,-1 -47,-20 -47,-46zm50 61c16,0 33,-8 43,-18 7,-7 9,-10 13,-19 8,-15 7,-35 0,-50 -5,-8 -5,-8 -10,-14 -2,-3 -4,-4 -6,-6 -1,-1 -1,-1 -2,-2 -4,-3 -10,-6 -15,-8 -6,-3 -5,-2 -12,-4 -13,-3 -28,-1 -39,4 -5,2 -6,3 -10,5 -3,2 -7,5 -9,7 -6,7 -9,10 -13,18 -15,31 1,68 31,81 10,5 17,6 29,6z"/>
   <path class="fil0" d="M181 105c0,-2 0,-3 1,-5 0,-1 1,-3 1,-4 0,-3 1,-7 1,-10 6,0 7,4 7,8 0,4 -7,9 -10,11zm-71 -27c0,10 1,21 4,28 2,4 8,18 13,18l41 0c2,0 6,-6 7,-8 3,-5 2,-2 9,-6 2,-1 3,-2 5,-3 8,-6 11,-16 5,-23l-1 -1c-2,-2 -5,-3 -9,-4 0,-6 0,-5 -2,-9l-69 0c-3,1 -3,4 -3,8z"/>
   <path class="fil1" d="M152 258c-17,0 -32,-10 -38,-24 -2,-4 -4,-11 -4,-16l1 -9c1,-3 2,-6 3,-8 5,-9 11,-16 21,-20 3,-1 4,-2 8,-2 1,-1 7,-2 9,-1 9,0 16,2 24,7 2,1 3,3 5,4l5 6c1,2 3,4 4,6 9,19 2,40 -14,50 -2,1 -5,2 -7,3 -4,2 -11,4 -17,4zm-48 -40c0,26 21,45 47,46l11 -1c9,-2 16,-5 23,-12 2,-1 2,-1 3,-3 1,-1 2,-2 3,-3 14,-19 12,-43 -4,-59 -15,-14 -38,-19 -55,-10 -6,3 -10,5 -14,9 -2,3 -4,4 -6,7 -5,7 -8,16 -8,26z"/>
   <path class="fil0" d="M60 177c0,4 1,9 3,12 4,11 7,-1 5,22 0,4 0,9 0,14l-1 27c0,4 0,10 0,14 0,5 0,10 4,10 3,0 8,0 8,-4l0 -14c0,-5 0,-8 0,-13 0,-10 -1,-16 -1,-25l0 -13c0,-14 0,-10 3,-13 6,-7 7,-18 4,-27 -1,-2 -1,-2 -2,-4 -2,-3 -1,-2 -3,-2l0 10c0,3 1,9 -2,9 -5,0 0,-19 -5,-20 -1,2 -2,2 -2,5l0 11c-1,2 0,4 -2,4 -4,0 -1,-13 -3,-19 -1,0 -1,-1 -2,1 -3,4 -4,10 -4,15z"/>
   <path class="fil0" d="M236 160c-1,0 -4,3 -5,4 -4,5 -6,13 -6,20l-1 16c-2,13 4,14 4,17 0,15 -1,32 -1,46 0,5 -1,13 5,13 3,0 6,0 8,-4 0,-2 -1,-5 -1,-7 0,-5 0,-10 0,-15 0,-4 0,-5 0,-8l0 -16c0,-2 -1,-4 -1,-7l0 -46c0,-9 2,-13 -2,-13z"/>
   <path class="fil0" d="M123 140l48 0c4,0 14,-4 17,-7 1,-1 3,-3 3,-4 0,-3 -5,-2 -9,-2l-79 0c-1,3 0,3 2,5 4,4 13,8 18,8z"/>
   <path class="fil0" d="M137 37c0,6 0,4 3,10 4,8 2,8 1,14 0,2 1,3 1,5l1 0c0,-2 1,-2 2,-3 2,-2 8,-6 8,-13 0,-8 -7,-10 -6,-20 2,-8 1,-3 0,-9 0,1 0,0 0,1 -4,6 -10,9 -10,15z"/>
   <path class="fil0" d="M157 47c0,3 -2,6 0,7 0,-1 2,-3 3,-4 7,-5 0,-13 0,-15 0,-4 1,-5 0,-9 -3,3 -6,5 -7,9 -1,5 4,8 4,12z"/>
   <path class="fil1" d="M181 105c3,-2 10,-7 10,-11 0,-4 -1,-8 -7,-8 0,3 -1,7 -1,10 0,1 -1,3 -1,4 -1,2 -1,3 -1,5z"/>
  </g>
 </g>
</svg>
