<?xml version="1.0" encoding="UTF-8"?>
<!DOCTYPE svg PUBLIC "-//W3C//DTD SVG 1.0//EN" "http://www.w3.org/TR/2001/REC-SVG-20010904/DTD/svg10.dtd">
<!-- Creator: CorelDRAW X7 -->
<svg xmlns="http://www.w3.org/2000/svg" xml:space="preserve" width="1in" height="1in" version="1.0" style="shape-rendering:geometricPrecision; text-rendering:geometricPrecision; image-rendering:optimizeQuality; fill-rule:evenodd; clip-rule:evenodd"
viewBox="0 0 1000 1000"
 xmlns:xlink="http://www.w3.org/1999/xlink">
 <defs>
  <style type="text/css">
   <![CDATA[
    .fil0 {fill:black}
   ]]>
  </style>
 </defs>
 <g id="Layer_x0020_1">
  <metadata id="CorelCorpID_0Corel-Layer"/>
  <g id="_2638358341824">
   <path class="fil0" d="M107 485c3,3 17,11 22,14l176 106c4,2 8,4 12,7 5,3 7,-1 12,-3 15,-8 31,-17 46,-25 15,-8 31,-16 46,-25l92 -49c45,-25 94,-50 139,-75l92 -49c16,-8 30,-17 46,-25 18,-10 3,-28 -7,-47l-74 -138c-8,-9 -15,-6 -25,-1 -8,4 -15,8 -24,13 -15,7 -30,16 -46,24 -44,25 -93,50 -138,75 -15,8 -31,16 -46,25l-92 49c-16,8 -32,17 -47,25 -30,17 -61,33 -92,50 -28,15 -64,35 -92,49z"/>
   <path class="fil0" d="M217 586l74 139 278 -149c6,6 29,54 34,60 4,-4 7,-11 22,-20 12,-7 18,-7 32,-11l-31 -59 122 -66c13,-6 29,-15 41,-22l-26 -49c-6,3 -12,6 -17,9 -25,12 -62,33 -86,47l-172 92c-50,28 -103,55 -154,83 -20,11 -12,9 -34,-4l-66 -40c-6,-3 -12,-7 -17,-10z"/>
   <path class="fil0" d="M801 652l-63 1c9,28 8,34 0,62l63 0c1,22 -2,105 1,115l95 0 0 -292 -96 0 0 114z"/>
   <path class="fil0" d="M182 737c3,-1 50,-26 53,-28 -2,-5 -7,-15 -10,-19 -3,-6 -6,-13 -10,-19l-20 -37c-1,-2 -37,-70 -40,-73 -3,1 -49,25 -52,28l79 148z"/>
   <path class="fil0" d="M612 688c2,28 27,52 58,49 45,-4 66,-59 31,-93 -31,-30 -92,-8 -89,44z"/>
  </g>
 </g>
</svg>
