<?xml version="1.0" encoding="UTF-8"?>
<!DOCTYPE svg PUBLIC "-//W3C//DTD SVG 1.0//EN" "http://www.w3.org/TR/2001/REC-SVG-20010904/DTD/svg10.dtd">
<!-- Creator: CorelDRAW X7 -->
<svg xmlns="http://www.w3.org/2000/svg" xml:space="preserve" width="1in" height="1in" version="1.0" style="shape-rendering:geometricPrecision; text-rendering:geometricPrecision; image-rendering:optimizeQuality; fill-rule:evenodd; clip-rule:evenodd"
viewBox="0 0 1000 1000"
 xmlns:xlink="http://www.w3.org/1999/xlink">
 <defs>
  <style type="text/css">
   <![CDATA[
    .fil0 {fill:black}
   ]]>
  </style>
 </defs>
 <g id="Layer_x0020_1">
  <metadata id="CorelCorpID_0Corel-Layer"/>
  <path class="fil0" d="M468 132l-1 88c-8,-4 -42,-29 -44,-35 -34,-14 -57,0 -54,38 10,12 7,11 21,22 14,12 66,52 78,58l-1 124 -5 -1c-12,-7 -34,-16 -41,-24l-57 -31c-9,-5 -15,-6 -20,-15 0,-34 10,-95 -18,-108 -20,-9 -37,2 -43,14 -8,14 -5,42 -5,59 -9,-2 -13,-7 -23,-11l-46 -28c-35,-13 -37,-8 -56,16l0 19c9,12 5,13 21,22l75 44c-21,20 -72,23 -73,59 0,19 14,33 33,33 14,0 35,-14 45,-20 71,-39 61,-36 88,-21 11,6 73,38 81,49 -28,12 -110,75 -122,70 -14,-6 -69,-47 -84,-50 -22,-6 -39,8 -41,27 -3,30 29,40 57,59l8 7c-26,25 -77,40 -85,70 -4,13 3,26 12,33 14,11 26,7 41,1 2,-3 3,-4 9,-7 5,-4 6,-5 12,-5 2,-3 1,-2 4,-5l27 -16c4,-6 12,-9 19,-12l0 37c-1,25 1,43 20,51 25,11 39,-6 46,-24 0,-12 -3,-98 3,-107 6,-10 13,-9 16,-9 5,-8 94,-63 102,-67l1 143 -81 60c-13,11 -25,25 -13,47 14,23 28,15 51,11 5,-8 37,-31 44,-34l0 36c1,19 -2,54 1,71 3,18 21,33 43,25 22,-7 23,-27 22,-53 0,-26 0,-52 0,-78 15,5 35,28 50,35 27,13 51,-10 46,-37 -4,-21 -66,-59 -94,-83l-1 -141c17,7 45,27 62,38 17,11 46,26 59,39 0,23 0,46 0,69 0,24 -4,46 15,57 20,12 42,1 48,-15 5,-11 3,-53 3,-69 45,16 80,70 112,40l9 -13c1,-1 1,-1 1,-2 1,0 1,-1 2,-2l0 -14c-16,-24 -16,-22 -46,-40 -13,-8 -40,-23 -50,-32 19,-21 69,-27 61,-67 -3,-15 -19,-27 -39,-24 -9,2 -34,18 -42,23 -53,32 -36,33 -79,6 -16,-10 -67,-40 -77,-51 26,-15 56,-31 83,-46 29,-16 20,-13 85,22 11,6 34,20 48,20 18,0 31,-14 31,-33 0,-23 -14,-28 -30,-36 -15,-7 -28,-17 -42,-21l13 -11c5,-3 8,-5 13,-7 9,-6 16,-10 26,-15 29,-16 28,-13 45,-35l0 -19c-13,-17 -23,-32 -52,-17l-53 30 -18 9c0,-19 3,-41 -4,-57 -9,-16 -30,-27 -50,-11 -17,13 -12,40 -12,65l0 37c-5,10 -28,19 -38,25 -14,7 -25,14 -39,21l-46 25 0 -119c17,-13 34,-29 52,-43 17,-14 39,-28 44,-47 -1,-17 -5,-27 -16,-33 -5,-4 -12,-5 -19,-5 -7,1 -11,2 -13,5 -18,8 -31,26 -49,36l0 -62c0,-13 1,-28 -4,-38 -5,-9 -13,-12 -20,-18l-16 0c-17,10 -21,8 -26,29z"/>
 </g>
</svg>
