<?xml version="1.0" encoding="UTF-8"?>
<!DOCTYPE svg PUBLIC "-//W3C//DTD SVG 1.0//EN" "http://www.w3.org/TR/2001/REC-SVG-20010904/DTD/svg10.dtd">
<!-- Creator: CorelDRAW X7 -->
<svg xmlns="http://www.w3.org/2000/svg" xml:space="preserve" width="1in" height="1in" version="1.0" style="shape-rendering:geometricPrecision; text-rendering:geometricPrecision; image-rendering:optimizeQuality; fill-rule:evenodd; clip-rule:evenodd"
viewBox="0 0 1000 1000"
 xmlns:xlink="http://www.w3.org/1999/xlink">
 <defs>
  <style type="text/css">
   <![CDATA[
    .fil0 {fill:black}
   ]]>
  </style>
 </defs>
 <g id="Layer_x0020_1">
  <metadata id="CorelCorpID_0Corel-Layer"/>
  <g id="_2638300584752">
   <path class="fil0" d="M616 203l64 0 0 136 -25 20c-4,-144 -76,-117 -252,-117 -101,0 -91,89 -91,161l-45 0c-5,-60 -44,-6 -57,1 -25,13 -27,7 -27,51 14,9 19,15 39,19l0 387 181 0 0 -45c-41,-19 -96,-31 -136,-51l0 -291 97 0 18 -21 8 331c21,11 22,14 39,26l0 58c-19,12 -9,13 -33,19 4,13 13,22 25,26l25 0c16,-6 31,-22 34,-52l7 -25c-1,51 -2,46 19,77l58 -7c16,-66 7,-483 7,-587l6 0c0,28 0,57 0,84 0,37 5,43 19,65 34,0 31,3 56,-16 17,-13 6,-11 28,-17l0 317c0,29 -11,90 20,90 29,0 19,-43 19,-97l0 -348c45,-12 45,-66 0,-78l0 -116c118,0 87,3 86,-46 -3,-66 92,-57 -215,-57 -7,32 6,32 5,58 0,20 -12,45 21,45z"/>
   <path class="fil0" d="M551 164c0,-59 -18,-77 -77,-77 -60,0 -79,80 -41,118 38,38 118,19 118,-41z"/>
  </g>
 </g>
</svg>
