<?xml version="1.0" encoding="UTF-8"?>
<!DOCTYPE svg PUBLIC "-//W3C//DTD SVG 1.0//EN" "http://www.w3.org/TR/2001/REC-SVG-20010904/DTD/svg10.dtd">
<!-- Creator: CorelDRAW X7 -->
<svg xmlns="http://www.w3.org/2000/svg" xml:space="preserve" width="300px" height="300px" version="1.0" style="shape-rendering:geometricPrecision; text-rendering:geometricPrecision; image-rendering:optimizeQuality; fill-rule:evenodd; clip-rule:evenodd"
viewBox="0 0 300 300"
 xmlns:xlink="http://www.w3.org/1999/xlink">
 <defs>
  <style type="text/css">
   <![CDATA[
    .fil0 {fill:black}
   ]]>
  </style>
 </defs>
 <g id="Layer_x0020_1">
  <metadata id="CorelCorpID_0Corel-Layer"/>
  <g id="_2233374812528">
   <path class="fil0" d="M238 109l0 85 -85 0 -91 0 0 -88 176 0 0 3zm-185 91c1,4 11,3 16,3l168 0c9,0 10,0 10,-9l0 -56c0,-45 4,-41 -16,-41l-168 0c-9,0 -10,0 -10,9l0 56c0,7 -1,33 0,38z"/>
   <path class="fil0" d="M44 163c-5,0 -8,0 -12,-3 -3,-1 -5,-5 -5,-10 0,-11 8,-13 17,-13l0 -9c-9,0 -12,0 -18,5 -11,9 -11,25 0,34 5,5 9,5 18,5l0 -9z"/>
   <path class="fil0" d="M128 88l9 0c0,-8 2,-17 13,-17 11,0 13,9 13,17l9 0c0,-9 0,-13 -5,-18 -9,-11 -25,-11 -34,0 -5,6 -5,9 -5,18z"/>
   <path class="fil0" d="M110 212l-8 0c0,5 0,8 -3,12 -2,3 -6,5 -11,5 -11,0 -13,-9 -13,-17l-9 0c0,9 1,12 6,18 8,11 24,11 33,0 5,-5 5,-9 5,-18z"/>
   <path class="fil0" d="M172 212l-9 0c0,5 0,8 -3,12 -4,7 -16,6 -20,0 -3,-4 -3,-7 -3,-12l-9 0c0,9 0,13 5,18 9,11 25,10 34,0 5,-5 5,-9 5,-18z"/>
   <path class="fil0" d="M66 88l9 0c0,-5 0,-8 3,-12 4,-7 16,-7 21,0 3,4 3,7 3,12l8 0c0,-9 0,-12 -5,-18 -8,-11 -25,-11 -33,0 -5,5 -6,9 -6,18z"/>
   <path class="fil0" d="M228 230c5,-5 6,-9 6,-18l-9 0c0,5 0,9 -3,12 -5,7 -16,7 -21,0 -3,-4 -3,-6 -3,-12l-8 0c0,9 0,13 5,18 3,4 9,8 17,8 7,0 13,-4 16,-8z"/>
   <path class="fil0" d="M190 88l8 0c0,-5 0,-8 3,-12 5,-7 16,-7 21,0 3,3 3,7 3,12l9 0c0,-9 -1,-13 -6,-18 -8,-11 -24,-11 -33,0 -5,5 -5,9 -5,18z"/>
   <path class="fil0" d="M256 137c5,0 8,0 12,2 9,6 7,24 -9,24l-3 0 0 9c9,0 12,0 18,-5 16,-13 7,-39 -14,-39l-4 0 0 7 0 2z"/>
   <polygon class="fil0" points="207,220 216,220 216,217 216,212 211,212 207,212 207,213 207,220 "/>
   <polygon class="fil0" points="207,83 207,88 213,88 216,88 216,80 216,80 209,80 207,80 "/>
   <polygon class="fil0" points="146,86 146,88 152,88 154,88 154,87 154,80 146,80 "/>
   <polygon class="fil0" points="35,154 43,154 44,154 44,146 42,146 35,146 "/>
   <polygon class="fil0" points="256,154 263,154 265,154 265,146 262,146 256,146 "/>
   <polygon class="fil0" points="146,220 153,220 154,220 154,212 152,212 146,212 "/>
   <polygon class="fil0" points="84,220 86,220 93,220 93,216 93,212 91,212 84,212 84,218 "/>
   <polygon class="fil0" points="84,86 84,88 86,88 93,88 93,82 93,80 91,80 84,80 "/>
  </g>
 </g>
</svg>
