<?xml version="1.0" encoding="UTF-8"?>
<!DOCTYPE svg PUBLIC "-//W3C//DTD SVG 1.0//EN" "http://www.w3.org/TR/2001/REC-SVG-20010904/DTD/svg10.dtd">
<!-- Creator: CorelDRAW X7 -->
<svg xmlns="http://www.w3.org/2000/svg" xml:space="preserve" width="300px" height="300px" version="1.0" style="shape-rendering:geometricPrecision; text-rendering:geometricPrecision; image-rendering:optimizeQuality; fill-rule:evenodd; clip-rule:evenodd"
viewBox="0 0 300 300"
 xmlns:xlink="http://www.w3.org/1999/xlink">
 <defs>
  <style type="text/css">
   <![CDATA[
    .fil0 {fill:black}
    .fil1 {fill:#F2F0F3}
    .fil2 {fill:#F2F2F4}
   ]]>
  </style>
 </defs>
 <g id="Layer_x0020_1">
  <metadata id="CorelCorpID_0Corel-Layer"/>
  <g id="_2231842729024">
   <path class="fil0" d="M221 124c16,-3 28,7 32,19 2,5 2,20 0,25 -2,6 -12,5 -20,5 -32,0 -34,4 -34,-18 0,-12 2,-17 9,-24 2,-3 8,-6 13,-7zm-41 35c-2,1 -43,1 -46,1 -2,-1 -3,-2 -4,-4 0,-1 0,-2 1,-3 1,-3 0,-1 2,-2 3,-2 43,-1 46,-1 5,1 5,7 1,9zm-124 -19c-3,0 -7,1 -7,-3 1,-2 18,-19 22,-23 5,-6 6,-8 10,-8 3,4 5,4 9,8 2,3 5,6 7,9 2,1 3,2 5,4 5,5 10,9 8,13l-6 1 0 38 -13 1c0,-10 3,-26 -11,-26 -14,1 -12,16 -11,25l-13 0 0 -39zm78 -20c1,-1 43,-1 45,0 5,2 5,8 0,9 -2,1 -43,1 -46,0 -4,-2 -3,-8 1,-9zm89 -49c7,-2 14,2 17,5 5,7 4,10 5,12 1,3 1,1 3,3 3,5 -3,8 -3,8 -1,1 -2,6 -3,8 -9,17 -27,12 -32,-4 -3,-8 -3,-3 -5,-6 -1,-2 0,-4 0,-5 1,-3 2,0 3,-3 1,-3 2,-15 15,-18zm-90 18c2,0 44,-1 46,0 5,1 5,8 1,9 -2,1 -44,1 -46,0 -4,-1 -4,-7 -1,-9zm-67 -1c0,-4 1,-5 -3,-5 -3,0 -6,1 -7,-2 -1,-2 2,-3 3,-4 1,-2 2,-3 4,-5 3,-3 5,-6 8,-8 9,-7 6,-14 16,-3 2,3 3,5 6,7 2,1 11,11 11,13 -1,3 -4,1 -9,2 -2,4 -1,12 -1,17l-3 -3c-12,-10 -23,2 -25,3l0 -12zm-32 108l232 0 0 -150 -232 0 0 150z"/>
   <path class="fil0" d="M24 37l252 0 0 169 -252 0 0 -169zm-10 179l272 0c1,-27 0,-54 0,-81 0,-27 0,-54 0,-81 0,-31 5,-27 -54,-27l-203 0c-18,0 -15,7 -15,26 0,54 -1,109 0,163z"/>
   <path class="fil1" d="M34 46l232 0 0 150 -232 0 0 -150zm-10 160l252 0 0 -169 -252 0 0 169z"/>
   <path class="fil0" d="M238 252c-6,1 -21,0 -28,0 -5,0 -10,0 -15,0 -4,0 -8,0 -8,-4 0,0 -1,-1 -1,-1l0 -10c0,-4 0,-8 0,-12l-77 0c-2,25 6,27 -12,27 -13,0 -28,0 -41,0 -8,1 -6,7 -6,14 0,9 5,7 13,7l163 0c5,0 14,2 16,-4 0,-2 0,-8 0,-10 0,-4 -2,-5 -4,-7z"/>
   <path class="fil1" d="M56 140l0 39 13 0c-1,-9 -3,-24 11,-25 14,0 11,16 11,26l13 -1 0 -38 6 -1c2,-4 -3,-8 -8,-13 -2,-2 -3,-3 -5,-4 -2,-3 -5,-6 -7,-9 -4,-4 -6,-4 -9,-8 -4,0 -5,2 -10,8 -4,4 -21,21 -22,23 0,4 4,3 7,3z"/>
   <path class="fil1" d="M221 124c-5,1 -11,4 -13,7 -7,7 -9,12 -9,24 0,22 2,18 34,18 8,0 18,1 20,-5 2,-5 2,-20 0,-25 -4,-12 -16,-22 -32,-19z"/>
   <path class="fil1" d="M223 71c-13,3 -14,15 -15,18 -1,3 -2,0 -3,3 0,1 -1,3 0,5 2,3 2,-2 5,6 5,16 23,21 32,4 1,-2 2,-7 3,-8 0,0 6,-3 3,-8 -2,-2 -2,0 -3,-3 -1,-2 0,-5 -5,-12 -3,-3 -10,-7 -17,-5z"/>
   <path class="fil1" d="M66 88l0 12c2,-1 13,-13 25,-3l3 3c0,-5 -1,-13 1,-17 5,-1 8,1 9,-2 0,-2 -9,-12 -11,-13 -3,-2 -4,-4 -6,-7 -10,-11 -7,-4 -16,3 -3,2 -5,5 -8,8 -2,2 -3,3 -4,5 -1,1 -4,2 -3,4 1,3 4,2 7,2 4,0 3,1 3,5z"/>
   <path class="fil2" d="M133 151c-2,1 -1,-1 -2,2 -1,1 -1,2 -1,3 1,2 2,3 4,4 3,0 44,0 46,-1 4,-2 4,-8 -1,-9 -3,0 -43,-1 -46,1z"/>
   <path class="fil1" d="M134 120c-4,1 -5,7 -1,9 3,1 44,1 46,0 5,-1 5,-7 0,-9 -2,-1 -44,-1 -45,0z"/>
   <path class="fil1" d="M133 89c-3,2 -3,8 1,9 2,1 44,1 46,0 4,-1 4,-8 -1,-9 -2,-1 -44,0 -46,0z"/>
  </g>
 </g>
</svg>
