<?xml version="1.0" encoding="UTF-8"?>
<!DOCTYPE svg PUBLIC "-//W3C//DTD SVG 1.0//EN" "http://www.w3.org/TR/2001/REC-SVG-20010904/DTD/svg10.dtd">
<!-- Creator: CorelDRAW X7 -->
<svg xmlns="http://www.w3.org/2000/svg" xml:space="preserve" width="1in" height="1in" version="1.0" style="shape-rendering:geometricPrecision; text-rendering:geometricPrecision; image-rendering:optimizeQuality; fill-rule:evenodd; clip-rule:evenodd"
viewBox="0 0 1000 1000"
 xmlns:xlink="http://www.w3.org/1999/xlink">
 <defs>
  <style type="text/css">
   <![CDATA[
    .fil2 {fill:black}
    .fil0 {fill:white}
    .fil1 {fill:black;fill-rule:nonzero}
   ]]>
  </style>
 </defs>
 <g id="Layer_x0020_1">
  <metadata id="CorelCorpID_0Corel-Layer"/>
  <g id="_2638356413072">
   <g>
    <path class="fil0" d="M574 99l0 0c131,0 238,107 238,238l0 564 -476 0 0 -564c0,-131 107,-238 238,-238z"/>
    <path id="1" class="fil1" d="M574 139l0 0 0 -81 0 0 0 0 0 81zm271 198l-67 0 0 0 0 -10 -1 -10 -1 -9 -2 -9 -2 -9 -2 -9 -3 -9 -4 -9 -4 -9 -4 -8 -5 -8 -5 -8 -5 -8 -6 -8 -7 -7 -6 -7 -7 -7 -8 -6 -8 -6 -8 -6 -8 -5 -9 -5 -9 -5 -9 -4 -9 -4 -10 -3 -10 -3 -10 -2 -10 -2 -11 -2 -10 0 -11 -1 0 -81 13 1 14 1 13 1 13 3 13 3 13 3 12 5 12 4 12 6 12 6 11 6 11 7 10 8 11 8 10 8 9 9 9 10 9 10 8 10 8 11 7 12 7 11 6 12 6 13 5 13 4 13 4 13 3 14 3 14 2 14 1 15 0 15 0 0zm-67 564l0 -564 67 0 0 564 -33 41 -34 -41zm67 0l0 41 -33 0 33 -41zm-509 -40l476 0 0 81 -476 0 -33 -41 33 -40zm0 81l-33 0 0 -41 33 41zm33 -605l0 564 -66 0 0 -564 0 0 66 0zm205 -279l0 81 0 0 -11 1 -11 0 -10 2 -10 2 -10 2 -10 3 -10 3 -9 4 -10 4 -9 5 -8 5 -9 5 -8 6 -7 6 -8 6 -7 7 -7 7 -6 7 -6 8 -5 8 -6 8 -4 8 -5 8 -3 9 -4 9 -3 9 -3 9 -2 9 -1 9 -2 9 0 10 -1 10 -66 0 0 -15 1 -15 2 -14 3 -14 3 -14 4 -13 4 -13 5 -13 6 -13 6 -12 7 -11 7 -12 8 -11 8 -10 9 -10 9 -10 9 -9 10 -8 10 -8 11 -8 11 -7 11 -6 12 -6 12 -6 12 -4 12 -5 13 -3 13 -3 13 -3 13 -1 13 -1 14 -1 0 0z"/>
   </g>
   <g>
    <path class="fil0" d="M426 99l0 0c131,0 238,107 238,238l0 564 -476 0 0 -564c0,-131 107,-238 238,-238z"/>
    <path id="1" class="fil1" d="M426 139l0 0 0 -81 0 0 0 0 0 81zm271 198l-66 0 0 0 -1 -10 0 -10 -2 -9 -1 -9 -2 -9 -3 -9 -3 -9 -4 -9 -3 -9 -5 -8 -4 -8 -6 -8 -5 -8 -6 -8 -6 -7 -7 -7 -7 -7 -8 -6 -7 -6 -8 -6 -9 -5 -8 -5 -9 -5 -10 -4 -9 -4 -10 -3 -10 -3 -10 -2 -10 -2 -10 -2 -11 0 -11 -1 0 -81 14 1 13 1 13 1 13 3 13 3 13 3 12 5 12 4 12 6 12 6 11 6 11 7 11 8 10 8 10 8 9 9 9 10 9 10 8 10 8 11 7 12 7 11 6 12 6 13 5 13 4 13 4 13 3 14 3 14 2 14 1 15 0 15 0 0zm-66 564l0 -564 66 0 0 564 -33 41 -33 -41zm66 0l0 41 -33 0 33 -41zm-509 -40l476 0 0 81 -476 0 -33 -41 33 -40zm0 81l-33 0 0 -41 33 41zm34 -605l0 564 -67 0 0 -564 0 0 67 0zm204 -279l0 81 0 0 -11 1 -10 0 -11 2 -10 2 -10 2 -10 3 -10 3 -9 4 -9 4 -9 5 -9 5 -8 5 -8 6 -8 6 -8 6 -7 7 -6 7 -7 7 -6 8 -5 8 -5 8 -5 8 -4 8 -4 9 -4 9 -3 9 -2 9 -2 9 -2 9 -1 9 -1 10 0 10 -67 0 0 -15 1 -15 2 -14 3 -14 3 -14 4 -13 4 -13 5 -13 6 -13 6 -12 7 -11 7 -12 8 -11 8 -10 9 -10 9 -10 9 -9 10 -8 11 -8 10 -8 11 -7 11 -6 12 -6 12 -6 12 -4 12 -5 13 -3 13 -3 13 -3 13 -1 14 -1 13 -1 0 0z"/>
   </g>
   <rect class="fil2" x="188" y="534" width="253.457" height="93.2841"/>
  </g>
 </g>
</svg>
