<?xml version="1.0" encoding="UTF-8"?>
<!DOCTYPE svg PUBLIC "-//W3C//DTD SVG 1.0//EN" "http://www.w3.org/TR/2001/REC-SVG-20010904/DTD/svg10.dtd">
<!-- Creator: CorelDRAW X7 -->
<svg xmlns="http://www.w3.org/2000/svg" xml:space="preserve" width="1in" height="1in" version="1.0" style="shape-rendering:geometricPrecision; text-rendering:geometricPrecision; image-rendering:optimizeQuality; fill-rule:evenodd; clip-rule:evenodd"
viewBox="0 0 1000 1000"
 xmlns:xlink="http://www.w3.org/1999/xlink"
 enable-background="new 0 0 48 48">
 <defs>
  <style type="text/css">
   <![CDATA[
    .fil4 {fill:black}
    .fil1 {fill:#020202}
    .fil2 {fill:#FDFDFD}
    .fil0 {fill:#FEFEFE}
    .fil3 {fill:black;fill-rule:nonzero}
   ]]>
  </style>
 </defs>
 <g id="Layer_x0020_1">
  <metadata id="CorelCorpID_0Corel-Layer"/>
  <g id="_2638358119072">
   <path class="fil0" d="M529 618c107,3 73,1 -50,173 -8,12 -19,21 -29,10 -8,-18 12,-89 15,-115 -13,0 -48,4 -55,-5 -7,-17 43,-172 55,-194 21,-5 45,-3 67,-3 69,0 19,24 -3,134zm-391 269l724 -1 0 -482 -724 1 0 482z"/>
   <path class="fil1" d="M138 405l724 -1 0 482 -724 1 0 -482zm-40 -77l0 -17 18 -1 767 0 18 1 1 65 -804 1 0 -49zm-16 -44c-16,4 -11,21 -11,81 0,51 0,33 40,41l0 443c0,15 -6,49 6,60 11,10 603,5 710,5 59,0 62,13 62,-45l0 -463c50,-7 40,12 40,-98 0,-16 -2,-22 -11,-24l-836 0z"/>
   <polygon class="fil0" points="98,377 902,376 901,311 883,310 116,310 98,311 98,328 "/>
   <polygon class="fil0" points="165,283 298,283 299,248 299,243 165,243 "/>
   <polygon class="fil2" points="701,283 834,283 835,243 701,243 "/>
   <path class="fil3" d="M166 206l193 0 0 104 -207 0 0 -104 14 0zm165 27l-151 0 0 49 151 0 0 -49z"/>
   <path class="fil3" d="M655 206l193 0 0 104 -207 0 0 -104 14 0zm165 27l-151 0 0 49 151 0 0 -49z"/>
   <polygon class="fil3" points="242,197 242,155 199,155 199,127 242,127 242,85 270,85 270,127 312,127 312,155 270,155 270,197 "/>
   <polygon class="fil3" points="667,133 822,133 822,171 667,171 "/>
  </g>
  <g id="_5845750391558096233.svg">
   <polygon class="fil4" points="602,432 472,565 638,621 465,783 521,814 362,853 392,689 424,745 528,643 362,587 506,432 "/>
  </g>
 </g>
</svg>
