<?xml version="1.0" encoding="UTF-8"?>
<!DOCTYPE svg PUBLIC "-//W3C//DTD SVG 1.0//EN" "http://www.w3.org/TR/2001/REC-SVG-20010904/DTD/svg10.dtd">
<!-- Creator: CorelDRAW X7 -->
<svg xmlns="http://www.w3.org/2000/svg" xml:space="preserve" width="300px" height="300px" version="1.0" style="shape-rendering:geometricPrecision; text-rendering:geometricPrecision; image-rendering:optimizeQuality; fill-rule:evenodd; clip-rule:evenodd"
viewBox="0 0 300 300"
 xmlns:xlink="http://www.w3.org/1999/xlink">
 <defs>
  <style type="text/css">
   <![CDATA[
    .str0 {stroke:black;stroke-width:6.24921}
    .fil3 {fill:none}
    .fil0 {fill:black}
    .fil2 {fill:#DAE4EF}
    .fil1 {fill:white}
   ]]>
  </style>
 </defs>
 <g id="Layer_x0020_1">
  <metadata id="CorelCorpID_0Corel-Layer"/>
  <g id="_2231842686816">
   <g>
    <path class="fil0" d="M177 189c1,0 10,20 10,21 1,2 2,1 -1,5 -1,1 -2,3 -3,5l-7 8c-10,9 -25,18 -45,18 -8,0 -16,-1 -23,-4 -4,-2 -9,-4 -13,-7 -3,-2 -5,-4 -7,-7l-5 -5 -5 -6c-3,-6 -6,-12 -8,-19 -4,-17 0,-33 7,-46 3,-6 7,-10 12,-15 2,-2 4,-4 7,-6 3,-2 6,-4 9,-5l2 18c-5,3 -12,10 -15,15 -9,15 -8,32 0,47 11,21 39,29 61,18 12,-7 21,-18 24,-35zm-50 -67l44 1 0 16 -43 0 1 11 59 -1c0,1 0,0 0,1l25 57 19 -7c0,1 4,11 5,12 -1,1 -22,9 -25,10 -3,2 -6,3 -9,4 0,-1 -19,-45 -23,-53 0,-1 -2,-8 -3,-8l-63 0c0,-3 0,-9 0,-12l-6 -71c0,-3 0,-2 -1,-5 -6,-17 14,-31 28,-19 4,4 7,11 4,19 -1,3 -3,6 -5,7 -5,4 -5,3 -9,4l2 34zm-79 -88c-7,1 -13,7 -14,15 0,4 0,10 0,15l0 173c0,5 0,11 0,15 1,7 7,13 15,14 4,0 10,0 15,0 58,0 115,0 173,0 5,0 11,0 15,0 7,-1 13,-7 14,-15 0,-5 0,-10 0,-15l0 -173c0,-5 0,-11 0,-15 -1,-7 -7,-13 -15,-14 -5,0 -10,0 -15,0l-173 0c-5,0 -11,0 -15,0z"/>
    <path class="fil1" d="M128 139c1,-1 2,-1 3,-1l40 1 0 -16c-5,0 -43,0 -44,-1l-2 -34c4,-1 4,0 9,-4 2,-1 4,-4 5,-7 3,-8 0,-15 -4,-19 -14,-12 -34,2 -28,19 1,3 1,2 1,5l6 71c0,3 0,9 0,12l63 0c1,0 3,7 3,8 4,8 23,52 23,53 3,-1 6,-2 9,-4 3,-1 24,-9 25,-10 -1,-1 -5,-11 -5,-12l-19 7 -25 -57c0,-1 0,0 0,-1l-59 1 -1 -11z"/>
    <path class="fil1" d="M177 189c-3,17 -12,28 -24,35 -22,11 -50,3 -61,-18 -8,-15 -9,-32 0,-47 3,-5 10,-12 15,-15l-2 -18c-3,1 -6,3 -9,5 -3,2 -5,4 -7,6 -5,5 -9,9 -12,15 -7,13 -11,29 -7,46 2,7 5,13 8,19l5 6 5 5c2,3 4,5 7,7 4,3 9,5 13,7 7,3 15,4 23,4 20,0 35,-9 45,-18l7 -8c1,-2 2,-4 3,-5 3,-4 2,-3 1,-5 0,-1 -9,-21 -10,-21z"/>
    <path class="fil2" d="M128 139l43 0 0 -16 -44 -1c1,1 39,1 44,1l0 16 -40 -1c-1,0 -2,0 -3,1z"/>
   </g>
   <rect class="fil3 str0" x="23" y="23" width="253" height="253" rx="19" ry="32"/>
  </g>
 </g>
</svg>
