<?xml version="1.0" encoding="UTF-8"?>
<!DOCTYPE svg PUBLIC "-//W3C//DTD SVG 1.0//EN" "http://www.w3.org/TR/2001/REC-SVG-20010904/DTD/svg10.dtd">
<!-- Creator: CorelDRAW X7 -->
<svg xmlns="http://www.w3.org/2000/svg" xml:space="preserve" width="300px" height="300px" version="1.0" style="shape-rendering:geometricPrecision; text-rendering:geometricPrecision; image-rendering:optimizeQuality; fill-rule:evenodd; clip-rule:evenodd"
viewBox="0 0 300 300"
 xmlns:xlink="http://www.w3.org/1999/xlink">
 <defs>
  <style type="text/css">
   <![CDATA[
    .fil0 {fill:black}
    .fil2 {fill:#A1A1A2}
    .fil1 {fill:#FEFEFE}
   ]]>
  </style>
 </defs>
 <g id="Layer_x0020_1">
  <metadata id="CorelCorpID_0Corel-Layer"/>
  <g id="_2231848903824">
   <path class="fil0" d="M61 160l62 0 0 79 -62 0 0 -79zm136 -25l41 0 -1 51 -40 0 0 -51zm-56 0c4,-1 39,-1 40,0l0 51c-1,0 -37,0 -40,0l0 -51zm-126 100l0 32 270 0 0 -32 -29 0 0 -123 -74 0c-1,2 -5,4 -7,5 -12,9 -30,10 -44,4 -4,-2 -11,-6 -13,-9l-74 0c-1,2 -1,27 -1,31 0,31 1,62 0,92l-28 0z"/>
   <polygon class="fil1" points="61,239 123,239 123,160 61,160 "/>
   <path class="fil0" d="M141 49l18 0 0 18 19 0 0 18c-3,1 -15,0 -19,0l0 18 -18 0 0 -18 -18 0 0 -18 18 0 0 -18zm12 -16l-6 0c0,0 -6,1 -9,1 -6,2 -12,6 -17,10 -2,2 -6,6 -7,8 -2,2 -3,5 -4,7 -12,30 10,61 40,60 31,0 52,-31 40,-60 -5,-12 -16,-21 -28,-25 -2,0 -3,0 -5,-1 -1,0 -3,0 -4,0z"/>
   <polygon class="fil1" points="197,186 237,186 238,135 197,135 "/>
   <polygon class="fil1" points="141,186 181,186 181,135 141,135 "/>
   <path class="fil1" d="M141 67l-18 0 0 18 18 0 0 18 18 0 0 -18c4,0 16,1 19,0l0 -18 -19 0 0 -18 -18 0 0 18z"/>
   <path class="fil0" d="M186 108l86 0 0 -21 -75 0c-1,4 -3,8 -4,12 -3,5 -5,6 -7,9z"/>
   <path class="fil0" d="M28 108l85 0c-1,-1 -2,-3 -3,-4 -6,-8 -7,-16 -8,-17l-74 0 0 21z"/>
   <path class="fil2" d="M141 135l40 0 0 51 -40 0 0 -51zm0 51c3,0 39,0 40,0l0 -51c-1,-1 -36,-1 -40,0l0 51z"/>
  </g>
 </g>
</svg>
