<?xml version="1.0" encoding="UTF-8"?>
<!DOCTYPE svg PUBLIC "-//W3C//DTD SVG 1.0//EN" "http://www.w3.org/TR/2001/REC-SVG-20010904/DTD/svg10.dtd">
<!-- Creator: CorelDRAW X7 -->
<svg xmlns="http://www.w3.org/2000/svg" xml:space="preserve" width="1in" height="1in" version="1.0" style="shape-rendering:geometricPrecision; text-rendering:geometricPrecision; image-rendering:optimizeQuality; fill-rule:evenodd; clip-rule:evenodd"
viewBox="0 0 1000 1000"
 xmlns:xlink="http://www.w3.org/1999/xlink">
 <defs>
  <style type="text/css">
   <![CDATA[
    .fil1 {fill:black}
    .fil3 {fill:#FAFAFA}
    .fil2 {fill:#FDFDFD}
    .fil0 {fill:#FEFEFE}
   ]]>
  </style>
 </defs>
 <g id="Layer_x0020_1">
  <metadata id="CorelCorpID_0Corel-Layer"/>
  <g id="_2638300596816">
   <path class="fil0" d="M446 166c0,0 0,0 0,0 -1,3 -14,4 -18,5 -7,2 -13,3 -19,5 -26,8 -46,16 -69,28l-31 18c-3,2 0,1 -2,3 -1,0 -3,1 -4,2 -2,2 -5,4 -7,5l-39 34c-9,10 -38,46 -42,56 -4,0 -5,0 -7,2 0,0 3,0 4,2 -5,5 -23,44 -27,55 -6,18 -14,43 -17,63l58 -15c2,2 -1,0 1,2l2 1c1,-5 -6,-2 11,-7 3,0 12,-4 15,-2l1 0c0,-3 3,-3 7,-4 49,-13 24,-2 48,-38 4,-6 7,-10 10,-15 12,-15 28,-32 44,-43 0,-1 0,-1 0,-1 18,-13 33,-23 55,-31 20,-7 60,-17 84,-14 2,3 1,4 4,6l-2 -6c22,0 46,5 65,11 16,6 41,17 52,25l-1 3c4,-1 8,4 11,4 1,0 77,-21 88,-23l14 -4c5,-1 10,-3 15,-4l10 -3c-3,-6 -27,-29 -32,-34 -1,-1 -2,-1 -4,-2 -1,-2 -1,-3 -3,-4l-29 -23 -34 -20c-5,-3 -12,-6 -17,-9 2,-7 3,-2 3,-2 0,-4 0,-8 -2,-12l1 10 -3 3c0,0 -1,0 -1,0 -13,-4 -28,-13 -42,-15l-1 -5 -2 3c-13,0 -6,-6 -16,-6l3 3c-13,-2 -28,-6 -48,-8 -5,-1 -3,0 -6,-3 -4,3 -12,2 -21,1 -7,0 -15,0 -23,1l-14 0c-2,1 -3,1 -5,1 -1,1 -5,0 -5,0 -2,0 1,0 -1,1 -1,0 -1,0 -3,1 -4,0 -7,1 -9,-1z"/>
   <path class="fil0" d="M695 774c9,-5 29,-23 37,-30l32 -35c12,-16 25,-36 35,-54l7 -15c12,-32 19,-46 26,-85 -5,1 -15,4 -21,6l-62 16c-56,16 -39,5 -52,28 -1,3 -3,5 -4,8 -4,7 -3,7 -6,5 0,5 -1,6 -3,9 -4,5 -2,2 -6,5l2 1 -16 19c-8,8 -8,9 -18,17l-6 5c-3,2 -3,4 -7,3 0,5 -7,7 -11,10 -48,33 -113,44 -170,31 -10,-2 -22,-5 -30,-9l-28 -12 2 -4 -5 2 -24 -15 -64 17c-20,5 -42,10 -62,17 2,5 27,30 31,33 2,2 4,4 6,6 2,1 3,2 4,3 14,12 24,19 40,30 6,3 11,6 16,9 8,5 14,6 15,10 4,-2 13,4 20,7l16 5c4,2 1,1 3,4 2,-2 1,-2 4,-1l13 4c4,1 15,5 16,5 11,0 26,4 39,6l1 3 1 -3c40,4 77,1 114,-8 22,-5 39,-12 58,-20l21 -10c8,-4 6,-5 10,-4 -1,-3 3,-4 11,-9 5,-3 9,-5 13,-8 -1,3 0,3 2,5l0 -7z"/>
   <path class="fil1" d="M401 669c3,2 21,-4 24,-5l154 -41c6,-2 8,-1 10,-6 1,0 1,0 1,1 0,0 0,0 0,0 1,1 0,1 1,2l79 -21c-4,8 -19,28 -27,35 -7,7 -11,13 -19,19 -17,13 -39,27 -65,34 -29,9 -58,12 -89,7l-25 -5c-3,0 0,0 -4,-1 -1,-1 -3,-1 -5,-2l-12 -5c-1,-1 -6,-3 -8,-3l-14 -8c-1,0 -1,2 -1,-1zm294 105l0 7c-2,-2 -3,-2 -2,-5 -4,3 -8,5 -13,8 -8,5 -12,6 -11,9 -4,-1 -2,0 -10,4l-21 10c-19,8 -36,15 -58,20 -37,9 -74,12 -114,8l-1 3 -1 -3c-13,-2 -28,-6 -39,-6 -1,0 -12,-4 -16,-5l-13 -4c-3,-1 -2,-1 -4,1 -2,-3 1,-2 -3,-4l-16 -5c-7,-3 -16,-9 -20,-7 -1,-4 -7,-5 -15,-10 -5,-3 -10,-6 -16,-9 -16,-11 -26,-18 -40,-30 -1,-1 -2,-2 -4,-3 -2,-2 -4,-4 -6,-6 -4,-3 -29,-28 -31,-33 20,-7 42,-12 62,-17l64 -17 24 15 5 -2 -2 4 28 12c8,4 20,7 30,9 57,13 122,2 170,-31 4,-3 11,-5 11,-10 4,1 4,-1 7,-3l6 -5c10,-8 10,-9 18,-17l16 -19 -2 -1c4,-3 2,0 6,-5 2,-3 3,-4 3,-9 3,2 2,2 6,-5 1,-3 3,-5 4,-8 13,-23 -4,-12 52,-28l62 -16c6,-2 16,-5 21,-6 -7,39 -14,53 -26,85l-7 15c-10,18 -23,38 -35,54l-32 35c-8,7 -28,25 -37,30zm232 -257c1,-3 0,-10 -3,-14l-143 39c-1,1 -1,0 -1,2 -1,0 -1,1 -1,1 -4,-2 0,-1 -3,-2 -15,5 -31,8 -47,13l-1 3 -3 -2 -9 2c-2,3 -1,-3 -1,4 -1,-2 -1,0 -2,-2 0,-1 0,-1 0,-1 -17,5 -35,9 -51,14l-100 26c-33,10 -67,17 -100,27 -5,2 -11,2 -16,5 -2,1 -4,1 -8,2l-60 16c-17,2 -44,13 -62,16 0,2 1,3 0,4 0,0 -1,-1 -1,-1 -1,-2 0,-1 -1,-2 -11,3 -26,8 -37,10l-8 3c-9,0 -55,14 -65,16 -6,2 -32,7 -35,11 -2,-1 -3,0 -5,0 -1,0 -3,1 -4,1l-26 7 6 25 73 -18c1,2 0,2 2,4l18 20c10,12 22,23 35,33 23,18 32,25 59,41 1,0 3,1 4,2 3,1 3,0 5,1l12 7c3,1 2,0 3,0 3,1 1,2 16,8 6,3 12,5 18,7 6,2 13,4 19,5 6,1 1,0 4,0 3,0 3,1 4,2 4,3 18,5 25,6l16 2c6,1 5,2 10,-1l1 2c3,2 4,0 5,-3l1 4 16 1 2 -2c4,2 0,2 7,2l25 0c65,-5 115,-21 169,-53 7,-4 9,-3 9,-8 5,1 5,-1 9,-3l32 -25c3,-3 3,-3 6,-6l4 -4c0,-1 6,-4 11,-10 4,-4 6,-7 10,-10 5,-5 15,-17 18,-23 11,-15 23,-31 33,-50 18,-36 34,-78 39,-124l55 -14 1 -8c1,-2 0,-1 1,-2 3,2 1,0 2,3 0,0 1,2 1,3 2,-2 1,-1 3,-2 1,2 0,1 1,2 0,1 0,1 0,1l7 -2c0,-4 -1,-8 -4,-11z"/>
   <path class="fil1" d="M205 311c2,1 3,2 2,6 -2,0 -4,-1 -7,-2 0,-3 0,-6 5,-4zm224 -13c2,4 0,4 2,9 2,6 1,2 0,9 13,-3 18,-7 39,-10 15,-3 31,-3 47,-2 4,-1 -2,3 2,-1l1 -1c0,4 0,1 0,2l28 5c1,0 1,1 6,2 8,1 39,14 43,19l-43 11c-3,1 -5,2 -7,2 -5,2 -4,1 -6,4 -3,-3 -8,0 -16,2l-51 14c0,3 -1,0 1,3 -7,-3 -3,-3 -18,1 -30,9 -15,4 -22,11 -2,2 -3,2 -5,4l4 -8c-7,2 -86,22 -87,23l-1 3c-1,-4 0,-1 -2,-2l-14 3c3,-7 15,-22 19,-27 2,-2 2,-3 5,-6 3,-2 4,-4 6,-6 3,-3 10,-7 10,-13 0,0 4,4 6,-1 1,-3 0,-1 -1,-3l3 1c8,-8 35,-24 49,-28 0,-5 2,-4 2,-9 0,-6 -2,-4 0,-11zm17 -132c2,2 5,1 9,1 2,-1 2,-1 3,-1 2,-1 -1,-1 1,-1 0,0 4,1 5,0 2,0 3,0 5,-1l14 0c8,-1 16,-1 23,-1 9,1 17,2 21,-1 3,3 1,2 6,3 20,2 35,6 48,8l-3 -3c10,0 3,6 16,6l2 -3 1 5c14,2 29,11 42,15 0,0 1,0 1,0l3 -3 -1 -10c2,4 2,8 2,12 0,0 -1,-5 -3,2 5,3 12,6 17,9l34 20 29 23c2,1 2,2 3,4 2,1 3,1 4,2 5,5 29,28 32,34l-10 3c-5,1 -10,3 -15,4l-14 4c-11,2 -87,23 -88,23 -3,0 -7,-5 -11,-4l1 -3c-11,-8 -36,-19 -52,-25 -19,-6 -43,-11 -65,-11l2 6c-3,-2 -2,-3 -4,-6 -24,-3 -64,7 -84,14 -22,8 -37,18 -55,31 0,0 0,0 0,1 -16,11 -32,28 -44,43 -3,5 -6,9 -10,15 -24,36 1,25 -48,38 -4,1 -7,1 -7,4l-1 0c-3,-2 -12,2 -15,2 -17,5 -10,2 -11,7l-2 -1c-2,-2 1,0 -1,-2l-58 15c3,-20 11,-45 17,-63 4,-11 22,-50 27,-55 -1,-2 -4,-2 -4,-2 2,-2 3,-2 7,-2 4,-10 33,-46 42,-56l39 -34c2,-1 5,-3 7,-5 1,-1 3,-2 4,-2 2,-2 -1,-1 2,-3l31 -18c23,-12 43,-20 69,-28 6,-2 12,-3 19,-5 4,-1 17,-2 18,-5 0,0 0,0 0,0zm-13 -23c1,4 4,6 -2,7 3,-4 3,-1 1,-7 -16,2 -40,10 -54,15l3 1c-5,2 -1,-3 -20,5 -6,3 -13,6 -19,9 -10,4 -20,9 -28,15l-9 5c-6,4 -11,7 -17,12 -10,7 -18,14 -27,21l-12 10c-3,3 -5,5 -7,8l6 0c2,4 3,1 4,6 -4,2 -9,-2 -13,-3 -2,2 -6,7 -8,9l-24 29c-5,6 -9,13 -14,20 -1,2 -2,4 -3,6 -1,2 0,1 -2,3 -5,7 -1,13 -6,15 -1,-2 -1,0 0,-3 0,-2 1,-3 2,-4 -8,16 -16,28 -23,47 -7,18 -12,35 -16,54 2,2 2,4 2,7l-2 -4c-1,0 -1,0 -1,0l-4 27 -71 18 3 14c2,6 1,8 6,11l27 -7 1 -1c15,-2 47,-12 64,-17 3,-1 7,-1 10,-2l5 -2c0,0 5,-1 6,-1l-2 -4 6 3c21,-6 44,-11 66,-19 0,0 2,0 5,0l17 -5c30,-8 61,-17 90,-24 30,-8 60,-16 90,-24 3,-1 86,-22 88,-25l1 -1c4,3 22,-4 27,-5 10,-3 19,-5 29,-8l42 -11c8,-2 10,-1 11,-8 -4,-4 -11,-5 -15,-8 12,5 13,7 16,4 7,11 16,3 27,1 11,-2 21,-6 32,-8l1 -3 2 2c7,-2 14,-4 21,-6 3,0 7,-2 10,-2 4,-2 6,-9 10,-4 1,0 1,0 1,1l34 -10 0 -5c1,-2 1,-1 1,-2l2 7c8,-2 4,-2 4,-3 7,-1 8,0 16,-3 10,-2 36,-8 43,-12l-7 -24c-6,1 -14,3 -20,5l-15 4c-5,2 -2,0 -3,4l-2 -3c-4,2 -9,3 -13,4 -11,3 -6,1 -10,8l-2 -4c0,0 0,-1 0,-1l-6 2c-3,-6 -13,-17 -18,-22 -7,-7 -13,-15 -20,-21l-9 -8c-15,-12 -23,-20 -40,-30l-7 -5c-13,-9 -28,-17 -42,-23l-9 -4c-4,-1 -1,-1 -3,0 -2,-3 -6,-4 -9,-5 -4,-2 -8,-3 -11,-4 -53,-17 -103,-24 -159,-18 -9,1 -19,3 -28,4z"/>
   <path class="fil0" d="M470 306c-21,3 -26,7 -39,10 1,-7 2,-3 0,-9 -2,-5 0,-5 -2,-9 -2,7 0,5 0,11 0,5 -2,4 -2,9 -14,4 -41,20 -49,28l-3 -1c1,2 2,0 1,3 -2,5 -6,1 -6,1 0,6 -7,10 -10,13 -2,2 -3,4 -6,6 -3,3 -3,4 -5,6 -4,5 -16,20 -19,27l14 -3c2,1 1,-2 2,2l1 -3c1,-1 80,-21 87,-23l-4 8c2,-2 3,-2 5,-4 7,-7 -8,-2 22,-11 15,-4 11,-4 18,-1 -2,-3 -1,0 -1,-3l51 -14c8,-2 13,-5 16,-2 2,-3 1,-2 6,-4 2,0 4,-1 7,-2l43 -11c-4,-5 -35,-18 -43,-19 -5,-1 -5,-2 -6,-2l-28 -5c0,-1 0,2 0,-2l-1 1c-4,4 2,0 -2,1 -16,-1 -32,-1 -47,2z"/>
   <path class="fil0" d="M401 669c0,3 0,1 1,1l14 8c2,0 7,2 8,3l12 5c2,1 4,1 5,2 4,1 1,1 4,1l25 5c31,5 60,2 89,-7 26,-7 48,-21 65,-34 8,-6 12,-12 19,-19 8,-7 23,-27 27,-35l-79 21c-1,-1 0,-1 -1,-2 0,0 0,0 0,0 0,-1 0,-1 -1,-1 -2,5 -4,4 -10,6l-154 41c-3,1 -21,7 -24,5z"/>
   <path class="fil1" d="M209 514c6,-4 9,0 12,-7l1 3c11,-4 16,4 18,13 2,5 0,5 4,7 -1,2 -1,1 -1,5 2,5 4,13 1,18 -4,6 -14,9 -22,10 -2,-4 -12,-43 -13,-49zm47 -22c-6,-7 -14,-8 -25,-8 0,2 1,3 0,5 -2,-2 -2,-3 -2,-3 0,-1 0,-1 -1,-1 0,-1 0,-1 0,-1l-22 5c-4,1 -2,1 -2,3 -3,-2 -3,-2 -8,0l-22 6 43 162 28 -8c0,-6 -9,-34 -11,-43 -1,-2 -1,-5 -2,-7 -1,-5 -1,-3 -3,-6 1,-4 0,-5 -1,-10 22,-4 27,-8 34,16 3,13 7,32 13,42 5,-1 26,-6 28,-8 -1,-3 -3,-6 -5,-10 -6,-19 -8,-37 -18,-53 -6,-9 -12,-6 -18,-11 6,-5 10,-10 11,-22 0,-9 -4,-19 -6,-27 -3,-11 -5,-14 -11,-21z"/>
   <path class="fil1" d="M839 419c-2,-14 -3,-12 -10,-13 -2,0 -2,-1 -4,-3 3,1 8,3 11,4 0,-3 0,-2 -2,-4 0,-1 0,-1 0,-1 0,0 0,0 0,0 -1,-1 -1,-1 -1,-1 2,-3 0,-8 -2,-13l-10 -39c4,-1 17,-5 22,-5 8,1 10,7 12,14 2,7 4,14 6,20 7,29 4,11 7,18 1,5 -1,7 0,12 1,3 2,7 3,10 9,32 16,41 -19,47l-13 -46zm-52 -85l14 52c2,2 0,0 3,2 -1,7 -1,4 1,12 1,3 2,7 3,11 2,8 4,15 6,23l7 2c-3,1 -5,0 -6,0l15 59c10,-2 49,-12 57,-16 21,-11 23,-26 16,-52l-4 -1c1,-3 1,-1 3,-3 -2,-12 -9,-32 -12,-46 -1,-4 -2,-11 -5,-14 1,-2 1,0 -1,-7 -2,-8 -4,-14 -8,-21 -15,-23 -37,-16 -58,-10 -5,1 -28,7 -31,9z"/>
   <path class="fil1" d="M537 400c1,10 6,25 9,35 2,8 9,28 9,35l-31 8 -17 -63 -3 -2c2,-3 1,0 2,-4l-28 7c3,19 20,75 26,99 3,11 7,23 9,33 2,0 1,-1 3,-2 -1,2 -1,3 -2,5l7 27 27 -7c-2,-16 -10,-35 -11,-44 -1,-4 -6,-19 -7,-26l32 -8 5 19c0,0 1,2 1,2l2 2c-3,2 -2,-1 1,11l6 23c0,2 1,4 1,6l2 4c0,2 0,1 1,2l27 -7 -25 -94 -2 0c2,-3 2,-1 0,-9 -3,-11 -14,-54 -16,-59l-28 7z"/>
   <path class="fil1" d="M624 413c3,-5 -1,-9 7,-14 5,-3 13,-4 18,-1 7,5 9,22 12,32 3,12 6,23 9,35l9 34c1,20 -19,19 -24,15 -6,-5 -9,-22 -11,-32 -4,-12 -6,-23 -10,-35 -1,-6 -3,-12 -4,-18 -2,-5 -2,-13 -6,-16zm13 -39c-2,-2 1,-3 -8,0 -23,6 -35,20 -31,46 3,-1 4,-1 4,3l-3 1c2,11 13,52 18,69 1,6 2,4 4,8 0,1 -3,4 3,15l-2 -9 4 3 -3 -11c7,11 3,10 5,17l-1 1c-1,1 -1,0 -2,1 1,9 12,18 21,21 10,4 26,2 34,-2 11,-5 20,-8 25,-22 5,-13 2,-24 -2,-37 -3,-10 -18,-69 -20,-74l-1 -2c0,0 0,-2 0,-3 -2,-5 -7,-15 -10,-18 -7,-7 -20,-11 -34,-9l-1 2z"/>
   <path class="fil1" d="M282 469c-1,3 22,87 27,103 1,5 3,11 4,16 3,11 2,12 6,15 -1,7 2,-4 0,2 -2,3 3,18 4,21 1,1 1,0 1,1l1 0c0,0 1,0 1,0 -2,2 -1,1 -2,3 3,0 71,-17 75,-19 1,-4 -3,-18 -5,-23 -7,0 -37,10 -48,12l-12 -47 37 -10 -6 -23c-10,1 -30,10 -38,9l-12 -44 48 -13 -6 -23 -26 7c0,4 0,4 -2,6 -1,-2 0,-1 -1,-3 0,0 0,-2 0,-2l-46 12z"/>
   <path class="fil1" d="M461 446l-6 -23c-5,0 -12,3 -18,4 -1,1 -3,1 -4,2 -2,0 -3,0 -5,1 -14,3 -29,8 -43,11 -5,12 -4,7 -1,20 5,18 37,139 39,143l75 -20 -6 -23c-8,2 -17,5 -25,7 -27,7 -10,3 -21,9l2 -4 -5 0c0,0 -1,-9 -2,-11 -2,-8 -9,-30 -9,-36l38 -9c-1,-5 -5,-20 -7,-24l-38 10 -3 -10c-1,0 -1,0 -1,0 -4,-1 1,1 -1,0l2 -2c-1,-6 -3,-11 -5,-18 -5,-18 -3,-2 -3,-15l47 -12z"/>
   <path class="fil1" d="M98 539c0,3 -1,4 -2,5 -2,-2 -5,-4 -4,-8 3,0 5,1 6,3zm-16 -16c1,4 0,3 4,4l-2 3c3,6 8,30 11,39 3,12 6,25 10,38l20 77 28 -7 -17 -67 35 -9 -6 -24 -36 10 -13 -48c2,-2 2,-2 4,-4 3,2 16,-2 20,-3 7,-2 15,-5 22,-6l-6 -23 -74 20z"/>
   <path class="fil1" d="M722 366c-4,-1 -9,-4 -12,-6 -9,-5 -5,-3 -14,-3l8 27c0,0 0,0 1,0 -2,6 5,21 6,29l28 107c4,-1 52,-13 56,-16 4,-1 13,-1 17,-4l-5 -23 -46 12c-2,-4 -12,-44 -14,-53 -5,-17 -10,-35 -15,-53l-5 -2c2,-2 1,-1 5,0 -2,-10 -2,-10 -7,-12l-1 5c-1,-4 0,-5 -2,-8 0,0 0,0 0,0z"/>
   <path class="fil0" d="M821 349l10 39c2,5 4,10 2,13 0,0 0,0 1,1 0,0 0,0 0,0 0,0 0,0 0,1 2,2 2,1 2,4 -3,-1 -8,-3 -11,-4 2,2 2,3 4,3 7,1 8,-1 10,13l13 46c35,-6 28,-15 19,-47 -1,-3 -2,-7 -3,-10 -1,-5 1,-7 0,-12 -3,-7 0,11 -7,-18 -2,-6 -4,-13 -6,-20 -2,-7 -4,-13 -12,-14 -5,0 -18,4 -22,5z"/>
   <path class="fil0" d="M624 413c4,3 4,11 6,16 1,6 3,12 4,18 4,12 6,23 10,35 2,10 5,27 11,32 5,4 25,5 24,-15l-9 -34c-3,-12 -6,-23 -9,-35 -3,-10 -5,-27 -12,-32 -5,-3 -13,-2 -18,1 -8,5 -4,9 -7,14z"/>
   <path class="fil2" d="M209 514c1,6 11,45 13,49 8,-1 18,-4 22,-10 3,-5 1,-13 -1,-18 0,-4 0,-3 1,-5 -4,-2 -2,-2 -4,-7 -2,-9 -7,-17 -18,-13l-1 -3c-3,7 -6,3 -12,7z"/>
   <path class="fil1" d="M722 366c4,0 2,1 7,3 -1,-2 -2,-9 -3,-10l-2 -2c0,0 0,2 -1,-2 -1,-4 2,3 1,-4l-16 4c-3,1 -2,0 -3,1l15 8c2,1 1,1 2,2z"/>
   <path class="fil3" d="M200 315c3,1 5,2 7,2 1,-4 0,-5 -2,-6 -5,-2 -5,1 -5,4z"/>
   <path class="fil3" d="M96 544c1,-1 2,-2 2,-5 -1,-2 -3,-3 -6,-3 -1,4 2,6 4,8z"/>
  </g>
 </g>
</svg>
