<?xml version="1.0" encoding="UTF-8"?>
<!DOCTYPE svg PUBLIC "-//W3C//DTD SVG 1.0//EN" "http://www.w3.org/TR/2001/REC-SVG-20010904/DTD/svg10.dtd">
<!-- Creator: CorelDRAW X7 -->
<svg xmlns="http://www.w3.org/2000/svg" xml:space="preserve" width="300px" height="300px" version="1.0" style="shape-rendering:geometricPrecision; text-rendering:geometricPrecision; image-rendering:optimizeQuality; fill-rule:evenodd; clip-rule:evenodd"
viewBox="0 0 300 300"
 xmlns:xlink="http://www.w3.org/1999/xlink">
 <defs>
  <style type="text/css">
   <![CDATA[
    .fil0 {fill:black}
   ]]>
  </style>
 </defs>
 <g id="Layer_x0020_1">
  <metadata id="CorelCorpID_0Corel-Layer"/>
  <g id="_2231840660224">
   <path class="fil0" d="M54 91c7,2 13,8 17,12 3,3 6,6 8,8 2,3 5,5 7,8 6,7 22,29 23,37l82 0c2,-9 16,-28 23,-37 4,-5 17,-18 22,-22 2,-2 7,-5 10,-6 -6,-11 -7,-13 -15,-22l-11 -12c-19,-14 -43,-23 -66,-23 -18,0 -22,1 -40,5 -2,1 -4,2 -6,3 -14,5 -30,16 -39,26l-8 11c-3,4 -5,8 -7,12z"/>
   <path class="fil0" d="M46 186l0 30c0,12 7,19 19,19l170 0c7,0 10,-2 14,-5l2 -2c1,-2 1,-2 2,-4 2,-6 1,-30 1,-38 0,-11 -5,-19 -16,-19l-176 0c-10,0 -16,8 -16,19z"/>
   <path class="fil0" d="M19 120c0,13 3,15 10,26 5,7 8,14 12,21l4 -4c5,-5 12,-6 19,-7 11,0 23,0 34,0 -7,-13 -18,-29 -28,-39 -2,-2 -2,-3 -4,-4l-11 -10c-15,-10 -36,6 -36,17z"/>
   <path class="fil0" d="M202 156c13,0 37,-2 47,3 3,1 4,2 6,4 1,0 1,1 2,2 1,1 1,1 2,2 4,-7 7,-14 12,-21 7,-10 10,-12 10,-26 0,-5 -5,-11 -8,-14 -8,-6 -19,-9 -28,-3l-11 9c-13,15 -22,25 -32,44z"/>
   <path class="fil0" d="M66 266l14 0c0,-5 2,-15 2,-21l-19 0c0,6 2,15 3,21z"/>
   <path class="fil0" d="M220 266l14 0c1,-6 3,-15 3,-21l-19 0c0,6 2,16 2,21z"/>
  </g>
 </g>
</svg>
