<?xml version="1.0" encoding="UTF-8"?>
<!DOCTYPE svg PUBLIC "-//W3C//DTD SVG 1.0//EN" "http://www.w3.org/TR/2001/REC-SVG-20010904/DTD/svg10.dtd">
<!-- Creator: CorelDRAW X7 -->
<svg xmlns="http://www.w3.org/2000/svg" xml:space="preserve" width="1in" height="1in" version="1.0" style="shape-rendering:geometricPrecision; text-rendering:geometricPrecision; image-rendering:optimizeQuality; fill-rule:evenodd; clip-rule:evenodd"
viewBox="0 0 1000 1000"
 xmlns:xlink="http://www.w3.org/1999/xlink">
 <defs>
  <style type="text/css">
   <![CDATA[
    .fil0 {fill:black}
   ]]>
  </style>
 </defs>
 <g id="Layer_x0020_1">
  <metadata id="CorelCorpID_0Corel-Layer"/>
  <g id="_10419218471530272909.svg">
   <g>
    <path class="fil0" d="M903 445l0 -146 -110 0 0 -110 -147 0 0 256 -292 0 0 -256 -147 0 0 110 -110 0 0 146 -36 0 0 110 36 0 0 146 110 0 0 110 147 0 0 -256 292 0 0 256 147 0 0 -110 110 0 0 -146 36 0 0 -110 -36 0zm-696 220l-73 0 0 -110 0 -110 0 -110 73 0 0 330zm110 -220l0 110 0 219 -73 0 0 -73 0 -402 0 -73 73 0 0 219zm329 73l-292 0 0 -36 292 0 0 36zm110 -219l0 402 0 73 -73 0 0 -219 0 -110 0 -219 73 0 0 73zm110 146l0 110 0 110 -73 0 0 -330 73 0 0 110z"/>
   </g>
  </g>
 </g>
</svg>
