<?xml version="1.0" encoding="UTF-8"?>
<!DOCTYPE svg PUBLIC "-//W3C//DTD SVG 1.0//EN" "http://www.w3.org/TR/2001/REC-SVG-20010904/DTD/svg10.dtd">
<!-- Creator: CorelDRAW X7 -->
<svg xmlns="http://www.w3.org/2000/svg" xml:space="preserve" width="1in" height="1in" version="1.0" style="shape-rendering:geometricPrecision; text-rendering:geometricPrecision; image-rendering:optimizeQuality; fill-rule:evenodd; clip-rule:evenodd"
viewBox="0 0 1000 1000"
 xmlns:xlink="http://www.w3.org/1999/xlink">
 <defs>
  <style type="text/css">
   <![CDATA[
    .str0 {stroke:black;stroke-width:62.5;stroke-linecap:round;stroke-linejoin:round}
    .fil0 {fill:none}
    .fil1 {fill:black}
   ]]>
  </style>
 </defs>
 <g id="Layer_x0020_1">
  <metadata id="CorelCorpID_0Corel-Layer"/>
  <g id="_1241879521594941313.svg">
   <path class="fil0 str0" d="M398 781l-77 0c-28,0 -51,-23 -51,-51l0 -460c0,-28 23,-51 51,-51l77 0c28,0 51,23 51,51l0 460c0,28 -23,51 -51,51z"/>
   <path class="fil0 str0" d="M449 270l358 0 0 0c48,148 48,312 0,460l0 0 -358 0"/>
   <path class="fil0 str0" d="M270 730l-77 0 0 0c-48,-148 -48,-312 0,-460l0 0 77 0"/>
   <line class="fil0 str0" x1="551" y1="372" x2="705" y2= "372" />
   <g>
    <path class="fil1" d="M551 500c-8,0 -13,-3 -18,-8 -5,-5 -7,-10 -7,-18 0,-2 0,-7 2,-10 3,-2 3,-5 5,-7 10,-11 26,-11 36,0 5,5 8,10 8,17 0,8 -3,13 -8,18 -5,5 -10,8 -18,8z"/>
   </g>
   <g>
    <path class="fil1" d="M628 500c-8,0 -13,-3 -18,-8 -5,-5 -8,-10 -8,-18 0,-2 0,-7 3,-10 2,-2 2,-5 5,-7 10,-11 26,-11 36,0 5,5 7,10 7,17 0,8 -2,13 -7,18 -5,5 -10,8 -18,8z"/>
   </g>
   <g>
    <path class="fil1" d="M705 500c-8,0 -13,-3 -18,-8 -5,-5 -8,-10 -8,-18 0,-7 3,-12 8,-17 2,-3 5,-6 7,-6 5,-2 13,-2 21,0 2,3 5,3 7,6 6,5 8,10 8,17 0,8 -2,13 -8,18 -5,5 -10,8 -17,8z"/>
   </g>
   <g>
    <path class="fil1" d="M551 577c-8,0 -13,-3 -18,-8 -2,-3 -5,-5 -5,-8 0,-2 -2,-7 -2,-10 0,-8 2,-13 7,-18 8,-7 18,-10 28,-5 3,3 5,3 8,5 5,5 8,10 8,18 0,8 -3,13 -8,18 -5,5 -10,8 -18,8z"/>
   </g>
   <g>
    <path class="fil1" d="M628 577c-8,0 -13,-3 -18,-8 -5,-5 -8,-10 -8,-18 0,-2 0,-8 3,-10 2,-3 2,-5 5,-8 10,-10 26,-10 36,0 2,3 5,5 5,8 2,2 2,8 2,10 0,8 -2,13 -7,18 -5,5 -10,8 -18,8z"/>
   </g>
   <g>
    <path class="fil1" d="M705 577c-8,0 -13,-3 -18,-8 -5,-5 -8,-10 -8,-18 0,-8 3,-13 8,-18 10,-10 25,-10 35,0 6,5 8,10 8,18 0,8 -2,13 -8,18 -5,5 -10,8 -17,8z"/>
   </g>
   <g>
    <path class="fil1" d="M551 653c-2,0 -8,0 -10,-2 -3,-3 -5,-3 -8,-5 -5,-5 -7,-10 -7,-18 0,-8 2,-13 7,-18 3,-3 5,-5 8,-5 10,-5 20,-3 28,5 5,5 8,10 8,18 0,8 -3,13 -8,18 -5,5 -10,7 -18,7z"/>
   </g>
   <g>
    <path class="fil1" d="M628 653c-8,0 -13,-2 -18,-7 -5,-5 -8,-10 -8,-18 0,-8 3,-13 8,-18 10,-10 26,-10 36,0 5,5 7,10 7,18 0,8 -2,13 -7,18 -5,5 -10,7 -18,7z"/>
   </g>
   <g>
    <path class="fil1" d="M705 653c-8,0 -13,-2 -18,-7 -5,-5 -8,-10 -8,-18 0,-8 3,-13 8,-18 2,-3 5,-5 7,-5 11,-3 21,-3 28,5 6,5 8,10 8,18 0,8 -2,13 -8,18 -5,5 -10,7 -17,7z"/>
   </g>
  </g>
 </g>
</svg>
