<?xml version="1.0" encoding="UTF-8"?>
<!DOCTYPE svg PUBLIC "-//W3C//DTD SVG 1.0//EN" "http://www.w3.org/TR/2001/REC-SVG-20010904/DTD/svg10.dtd">
<!-- Creator: CorelDRAW X7 -->
<svg xmlns="http://www.w3.org/2000/svg" xml:space="preserve" width="300px" height="300px" version="1.0" style="shape-rendering:geometricPrecision; text-rendering:geometricPrecision; image-rendering:optimizeQuality; fill-rule:evenodd; clip-rule:evenodd"
viewBox="0 0 300 300"
 xmlns:xlink="http://www.w3.org/1999/xlink">
 <defs>
  <style type="text/css">
   <![CDATA[
    .fil0 {fill:black}
   ]]>
  </style>
 </defs>
 <g id="Layer_x0020_1">
  <metadata id="CorelCorpID_0Corel-Layer"/>
  <path id="jacuzzi.svg" class="fil0" d="M124 37c0,-5 4,-9 9,-9 6,0 10,4 10,9 0,6 -4,10 -10,10 -5,0 -9,-4 -9,-10zm46 29c5,0 9,-4 9,-10 0,-5 -4,-9 -9,-9 -6,0 -10,4 -10,9 0,6 4,10 10,10zm-83 14c5,0 9,-4 9,-10 0,-5 -4,-9 -9,-9 -6,0 -10,4 -10,9 0,6 4,10 10,10zm185 -16l0 86c0,41 -14,65 -27,79 -6,7 -14,13 -21,16 7,7 11,17 11,27l-19 0c0,-10 -8,-19 -19,-19l-94 0c-11,0 -19,9 -19,19l-19 0c0,-10 4,-20 11,-27 -7,-3 -15,-9 -21,-16 -13,-14 -27,-38 -27,-79l0 -22 16 0c0,-16 13,-29 29,-29 7,0 13,3 18,7 6,-7 15,-12 25,-12 9,0 17,4 23,9 8,-11 20,-18 35,-18 15,0 28,8 36,20 5,-4 11,-6 17,-6 12,0 22,7 26,18l0 -53c0,-10 -7,-17 -17,-17 -9,0 -16,7 -16,17l-19 0c0,-20 16,-36 35,-36 20,0 36,16 36,36l0 0zm-55 64l19 0c0,-5 -4,-10 -9,-10 -5,0 -10,5 -10,10l0 0zm-67 0l48 0c0,-13 -11,-24 -24,-24 -13,0 -24,11 -24,24zm-48 0l29 0c0,-8 -7,-15 -15,-15 -8,0 -14,7 -14,15zm-39 0l19 0c0,-5 -4,-10 -9,-10 -6,0 -10,5 -10,10l0 0zm190 19l-206 0 0 3c0,34 12,55 22,66 11,12 25,18 33,18l96 0c8,0 22,-6 33,-18 10,-11 22,-32 22,-66l0 -3zm0 0z"/>
 </g>
</svg>
