<?xml version="1.0" encoding="UTF-8"?>
<!DOCTYPE svg PUBLIC "-//W3C//DTD SVG 1.0//EN" "http://www.w3.org/TR/2001/REC-SVG-20010904/DTD/svg10.dtd">
<!-- Creator: CorelDRAW X7 -->
<svg xmlns="http://www.w3.org/2000/svg" xml:space="preserve" width="1in" height="1in" version="1.0" style="shape-rendering:geometricPrecision; text-rendering:geometricPrecision; image-rendering:optimizeQuality; fill-rule:evenodd; clip-rule:evenodd"
viewBox="0 0 1000 1000"
 xmlns:xlink="http://www.w3.org/1999/xlink">
 <defs>
  <style type="text/css">
   <![CDATA[
    .fil0 {fill:black}
    .fil3 {fill:#919191}
    .fil2 {fill:#A5A5A5}
    .fil1 {fill:white}
   ]]>
  </style>
 </defs>
 <g id="Layer_x0020_1">
  <metadata id="CorelCorpID_0Corel-Layer"/>
  <g id="_2638358158112">
   <path class="fil0" d="M69 227l0 582c14,11 44,12 58,4 9,-10 4,-145 5,-160l181 -2c1,33 -7,143 4,161l13 5c11,2 35,2 42,-5 10,-18 3,-259 4,-302 218,14 180,224 374,292 38,13 107,20 149,12 20,-4 22,-14 32,-27l0 -53c-30,-39 -19,-24 -84,-30 -31,-3 -61,-14 -84,-26 -163,-89 -118,-275 -386,-282l-1 -85c90,59 34,41 145,87 50,21 103,67 123,112l21 -4c6,36 7,48 26,71 14,18 32,42 49,50 7,-16 -16,-108 -21,-132 -16,-79 -24,-61 -83,-40 -11,-17 -15,-51 -21,-74 -5,-18 -9,-20 1,-33l62 -85c14,-20 36,-34 27,-65 -24,-13 -31,-9 -44,10 -11,15 -22,29 -31,42 -11,16 -52,76 -64,82 -3,1 -53,15 -57,15 -11,0 -34,-21 -43,-28l-83 -62c-17,-18 4,-24 -25,-49l-121 -97c-24,-14 -57,21 -90,48 -27,22 -55,42 -78,68z"/>
   <path class="fil1" d="M69 809l0 84 862 0 0 -106c-10,13 -12,23 -32,27 -42,8 -111,1 -149,-12 -194,-68 -156,-278 -374,-292 -1,43 6,284 -4,302 -7,7 -31,7 -42,5l-13 -5c-11,-18 -3,-128 -4,-161l-181 2c-1,15 4,150 -5,160 -14,8 -44,7 -58,-4z"/>
   <polygon class="fil1" points="311,413 134,414 134,482 311,482 "/>
   <path class="fil1" d="M309 533l-173 0c-6,21 -3,46 -3,68l179 0c-1,-23 3,-47 -3,-68z"/>
   <path class="fil0" d="M517 224c-73,15 -51,119 19,106 71,-12 49,-121 -19,-106z"/>
   <path class="fil0" d="M734 454c-2,18 10,76 20,87 12,14 52,49 74,26 28,-30 -30,-62 -64,-89 -8,-7 -27,-21 -30,-24z"/>
   <path class="fil2" d="M311 413l0 69 -177 0 0 -68c-8,6 -4,12 -4,34 0,13 -1,24 1,37l182 1c2,-12 6,-62 -2,-73z"/>
   <path class="fil3" d="M309 533c6,21 2,45 3,68l-179 0c0,-22 -3,-47 3,-68 -7,5 -5,-9 -7,11l1 60 183 1c4,-15 2,-24 2,-38 0,-46 0,-29 -6,-34z"/>
  </g>
 </g>
</svg>
