<?xml version="1.0" encoding="UTF-8"?>
<!DOCTYPE svg PUBLIC "-//W3C//DTD SVG 1.0//EN" "http://www.w3.org/TR/2001/REC-SVG-20010904/DTD/svg10.dtd">
<!-- Creator: CorelDRAW X7 -->
<svg xmlns="http://www.w3.org/2000/svg" xml:space="preserve" width="300px" height="300px" version="1.0" style="shape-rendering:geometricPrecision; text-rendering:geometricPrecision; image-rendering:optimizeQuality; fill-rule:evenodd; clip-rule:evenodd"
viewBox="0 0 300 300"
 xmlns:xlink="http://www.w3.org/1999/xlink">
 <defs>
  <style type="text/css">
   <![CDATA[
    .fil0 {fill:black}
   ]]>
  </style>
 </defs>
 <g id="Layer_x0020_1">
  <metadata id="CorelCorpID_0Corel-Layer"/>
  <g id="_2231845490320">
   <path class="fil0" d="M265 271l-89 0 0 -21 94 0 0 16c0,3 -2,5 -5,5zm-129 -5l0 -16 35 0 0 21 -30 0c-3,0 -5,-2 -5,-5zm0 -130l134 0 0 109 -134 0 0 -109zm49 -32l85 0 0 26 -85 0 0 -26zm-49 0l44 0 0 26 -44 0 0 -26zm4 -9l125 0c3,0 4,2 5,4l-134 0c1,-2 2,-4 4,-4zm-9 8l0 161c0,8 4,12 12,12l119 0c7,0 13,-2 13,-9l0 -168c0,-7 -6,-10 -13,-10l-118 0c-9,0 -13,4 -13,14z"/>
   <path class="fil0" d="M32 196l83 0c3,0 1,6 0,9l-11 60c-1,2 -1,3 -2,4 -1,1 -2,2 -4,2l-45 0c-6,0 -7,-8 -9,-16 -1,-6 -3,-13 -5,-20l-8 -35c-1,-1 -2,-4 1,-4zm12 -30c-1,4 -2,7 -1,11 4,11 19,9 28,9 7,0 18,0 25,-1 7,0 10,-9 5,-14 -4,-3 -15,-2 -23,-2 -3,0 -31,-2 -24,5 2,1 15,1 18,1 8,0 16,0 24,0 5,6 0,5 -7,5l-32 0c-5,0 -9,-2 -9,-8 0,-5 3,-8 8,-8 6,0 12,0 17,0 10,0 25,-2 31,3 7,5 7,17 -1,22 -6,3 -23,2 -31,2 -10,0 -25,1 -30,-3 -7,-6 -7,-16 2,-22zm0 0l0 0zm-1 -24c0,9 5,13 14,13l38 0c11,0 11,-14 0,-14l-39 0c-2,0 -3,1 -3,3 0,3 6,2 10,2l24 0c5,0 9,-1 11,2 -1,1 -1,2 -3,2l-38 0c-12,0 -11,-12 -2,-12l44 0c3,0 5,1 7,2 4,4 4,12 0,16 -2,1 -4,2 -7,2l-53 0c-10,0 -12,-17 -2,-20 0,2 -1,2 -1,4zm-11 5c0,4 1,7 2,10 2,2 3,3 6,5 -3,4 -8,5 -8,16 0,7 3,9 6,13 -3,0 -6,0 -9,1 -7,2 -3,11 -2,16l13 54c2,7 3,14 13,14l45 0c10,0 11,-8 12,-13 1,-8 3,-15 4,-22l8 -44c0,-7 -11,-6 -14,-6 1,-2 2,-2 4,-4 3,-7 3,-16 -3,-22 -1,-2 -1,-1 -3,-3 6,-2 13,-16 3,-26 -3,-2 -7,-4 -12,-4l-48 0c-9,0 -17,7 -17,15z"/>
   <path class="fil0" d="M45 106l0 -62c0,-2 1,-5 3,-5 3,0 2,10 2,16 0,12 -1,49 1,56 -3,0 -3,0 -5,-1 -1,-2 -1,-2 -1,-4zm10 -67l56 0c3,0 6,0 6,3l0 66c0,2 -1,3 -2,3l-57 0c-3,0 -2,-10 -2,-16 0,-10 1,-53 -1,-56zm-30 -13l0 18c0,4 7,2 15,2l0 62c0,3 2,5 3,6 2,2 5,3 8,3l61 0c6,0 10,-3 10,-7l0 -64c17,0 15,3 15,-17 0,-7 -6,-7 -6,-1l0 13 -9 0c0,-6 -5,-8 -10,-8l-61 0c-12,0 -9,8 -13,8l-8 0c0,-9 2,-17 -3,-17 -1,0 -2,1 -2,2z"/>
   <path class="fil0" d="M224 193c0,-7 -1,-10 4,-16 2,8 3,2 3,16 0,5 -2,6 -3,10 -2,-1 -4,-7 -4,-10zm-37 -9c16,0 19,13 33,14 0,4 3,7 5,9 -9,14 -36,16 -46,-3 -1,-3 -5,-10 -3,-14 1,-3 7,-6 11,-6zm31 9c-10,-5 -4,-2 -13,-8 -9,-7 -19,-8 -29,-3 1,-4 6,-10 9,-13 13,-11 32,-8 40,4 -4,6 -7,8 -7,20zm-48 -6c0,12 1,18 10,27 3,3 5,5 9,6 23,11 47,-7 47,-29 0,-38 -48,-46 -63,-16 -1,3 -3,8 -3,12z"/>
   <path class="fil0" d="M164 169c4,0 4,-7 16,-15 32,-19 65,7 65,33 0,22 -6,23 -8,30l3 2c3,-1 6,-6 7,-10 5,-14 5,-27 -1,-40 -17,-33 -60,-34 -80,-10 -1,2 -8,10 -2,10z"/>
   <path class="fil0" d="M155 189c0,16 7,30 19,39 3,2 4,3 8,5 22,11 46,1 46,-4 0,-7 -9,4 -25,4 -15,0 -25,-8 -32,-15 -16,-18 -6,-35 -13,-35 -3,0 -3,3 -3,6z"/>
   <path class="fil0" d="M167 122l-19 0c-2,0 -2,-2 -3,-4l26 0c0,3 -1,4 -4,4zm-27 -7c0,15 5,12 29,12 7,0 11,-14 3,-14l-27 0c-2,0 -5,0 -5,2z"/>
   <path class="fil0" d="M155 64c3,-1 6,-4 7,-7 2,2 2,5 7,7l0 1c-2,0 -3,1 -4,2 -2,2 -1,3 -3,4 -1,-3 -3,-5 -7,-6l0 -1zm6 15c7,0 4,-5 8,-8 3,-3 7,-2 7,-7 0,-3 -5,-4 -7,-6 -4,-4 -1,-8 -8,-8 -3,0 -3,6 -6,8 -2,2 -7,2 -7,6 0,4 4,4 7,6 3,2 3,9 6,9z"/>
   <path class="fil0" d="M96 71c2,5 5,4 7,7 -3,0 -6,3 -7,6l-1 0c-1,-3 -2,-5 -6,-6 0,0 7,-7 7,-7zm-14 6c0,4 4,5 7,7 4,3 1,7 7,7 4,0 5,-5 6,-7 2,-2 8,-3 8,-6 0,-6 -4,-4 -7,-7 -3,-2 -3,-8 -7,-8 -4,0 -4,6 -7,8 -2,2 -7,2 -7,6z"/>
   <path class="fil0" d="M62 64l0 33c0,11 6,9 20,9 3,0 2,-4 2,-6 -3,0 -13,0 -14,0 -3,-1 -2,-3 -2,-6l0 -30c0,-3 0,-3 -3,-4 -2,1 -3,2 -3,4z"/>
   <path class="fil0" d="M220 115l17 0 0 4 -17 0 0 -4zm-6 -2c0,14 -3,11 25,11 5,0 3,-10 3,-13 -5,-2 -15,-2 -22,-2 -2,0 -6,1 -6,4z"/>
   <path class="fil0" d="M50 209c0,15 15,12 33,12 12,0 15,-6 12,-16 -3,0 -4,-1 -4,4 0,3 0,6 -4,6l-28 0c-1,0 -2,-1 -3,-2l0 -7c-1,-1 -2,-1 -3,-2 0,0 -1,0 -1,1 0,0 -2,0 -2,4z"/>
   <path class="fil0" d="M256 113c2,0 4,2 4,4 0,4 -5,6 -7,3 -3,-3 -1,-7 3,-7zm-10 4c0,13 19,13 19,0 0,-13 -19,-12 -19,0z"/>
   <path class="fil0" d="M195 117c0,-6 9,-6 9,0 0,6 -9,6 -9,0zm-5 0c0,13 19,13 19,0 0,-13 -19,-13 -19,0z"/>
   <path class="fil0" d="M98 102c0,5 4,4 11,4 3,0 3,-6 0,-6 -6,0 -11,-1 -11,2z"/>
  </g>
 </g>
</svg>
