<?xml version="1.0" encoding="UTF-8"?>
<!DOCTYPE svg PUBLIC "-//W3C//DTD SVG 1.0//EN" "http://www.w3.org/TR/2001/REC-SVG-20010904/DTD/svg10.dtd">
<!-- Creator: CorelDRAW X7 -->
<svg xmlns="http://www.w3.org/2000/svg" xml:space="preserve" width="300px" height="300px" version="1.0" style="shape-rendering:geometricPrecision; text-rendering:geometricPrecision; image-rendering:optimizeQuality; fill-rule:evenodd; clip-rule:evenodd"
viewBox="0 0 300 300"
 xmlns:xlink="http://www.w3.org/1999/xlink">
 <defs>
  <style type="text/css">
   <![CDATA[
    .fil0 {fill:black}
    .fil1 {fill:#FEFEFE}
   ]]>
  </style>
 </defs>
 <g id="Layer_x0020_1">
  <metadata id="CorelCorpID_0Corel-Layer"/>
  <g id="_2231850584640">
   <path class="fil0" d="M144 120c16,-3 30,4 39,13 1,1 2,2 3,3 6,7 9,15 11,25 3,28 -17,49 -41,52 -28,4 -50,-16 -53,-40 -2,-17 4,-31 14,-40 0,-1 1,-2 2,-3 7,-5 15,-9 25,-10zm-67 127l147 0 0 -141c0,-14 -3,-13 -16,-13l-114 0c-14,0 -17,-1 -17,12 0,47 0,95 0,142z"/>
   <path class="fil0" d="M23 251c-1,-20 0,-42 0,-63l0 -127c0,-11 -1,-19 5,-27 4,-5 10,-11 21,-11 20,-1 42,0 63,0 42,0 85,0 127,0 11,0 19,-1 27,5 5,4 10,11 11,21 1,20 0,42 0,63l0 127c0,11 1,19 -5,27 -4,5 -11,10 -21,11 -20,1 -42,0 -63,0l-127 0c-11,0 -19,1 -27,-5 -5,-4 -10,-11 -11,-21zm-5 -204l0 205c0,16 14,30 30,30l204 0c16,0 30,-14 30,-30l0 -205c0,-11 -8,-22 -18,-26 -3,-2 -8,-3 -12,-3l-204 0c-16,0 -30,14 -30,29z"/>
   <path class="fil0" d="M97 62c4,-2 8,1 9,4 1,5 -1,9 -4,10 -10,2 -14,-11 -5,-14zm21 0c10,-4 14,11 5,13 -9,3 -14,-10 -5,-13zm-40 21l146 0c0,-4 1,-22 0,-25 -2,-4 -4,-4 -9,-4 -4,0 -9,0 -13,0l-102 0c-26,0 -22,-3 -22,29z"/>
   <path class="fil1" d="M112 154c6,5 13,6 19,1 2,1 7,5 15,2 2,-1 2,-1 4,-2 2,1 7,6 15,2 2,-1 3,-2 4,-2 2,2 5,3 9,3 6,0 7,-2 10,-3 2,5 2,15 0,20 -4,17 -19,30 -39,30 -23,0 -40,-20 -39,-41l2 -10zm32 -34c-10,1 -18,5 -25,10 -1,1 -2,2 -2,3 -10,9 -16,23 -14,40 3,24 25,44 53,40 24,-3 44,-24 41,-52 -2,-10 -5,-18 -11,-25 -1,-1 -2,-2 -3,-3 -9,-9 -23,-16 -39,-13z"/>
   <path class="fil0" d="M110 164c-1,21 16,41 39,41 20,0 35,-13 39,-30 2,-5 2,-15 0,-20 -3,1 -4,3 -10,3 -4,0 -7,-1 -9,-3 -1,0 -2,1 -4,2 -8,4 -13,-1 -15,-2 -2,1 -2,1 -4,2 -8,3 -13,-1 -15,-2 -6,5 -13,4 -19,-1l-2 10z"/>
   <path class="fil1" d="M97 62c-9,3 -5,16 5,14 3,-1 5,-5 4,-10 -1,-3 -5,-6 -9,-4z"/>
   <path class="fil1" d="M118 62c-9,3 -4,16 5,13 9,-2 5,-17 -5,-13z"/>
  </g>
 </g>
</svg>
