<?xml version="1.0" encoding="UTF-8"?>
<!DOCTYPE svg PUBLIC "-//W3C//DTD SVG 1.0//EN" "http://www.w3.org/TR/2001/REC-SVG-20010904/DTD/svg10.dtd">
<!-- Creator: CorelDRAW X7 -->
<svg xmlns="http://www.w3.org/2000/svg" xml:space="preserve" width="1in" height="1in" version="1.0" style="shape-rendering:geometricPrecision; text-rendering:geometricPrecision; image-rendering:optimizeQuality; fill-rule:evenodd; clip-rule:evenodd"
viewBox="0 0 1000 1000"
 xmlns:xlink="http://www.w3.org/1999/xlink">
 <defs>
  <style type="text/css">
   <![CDATA[
    .fil0 {fill:black}
    .fil1 {fill:white}
   ]]>
  </style>
 </defs>
 <g id="Layer_x0020_1">
  <metadata id="CorelCorpID_0Corel-Layer"/>
  <g id="_2638358122976">
   <path class="fil0" d="M333 159l0 3 -147 0 0 21 -95 0 0 22 -30 0 0 659c0,3 4,2 8,2 15,0 55,1 66,0l5 0c15,1 62,0 81,0 1,0 0,0 2,0 2,0 0,0 3,0l209 0 0 -156 -366 0 0 -14 366 0 0 -30c-1,-3 0,-1 -1,-2 0,-2 0,1 -1,-3 0,-3 -1,-81 1,-86 1,-1 0,1 1,-2 0,-1 0,-2 0,-3 0,-18 -2,-34 6,-51 1,-3 3,-5 4,-9l-12 0 0 -86c0,-2 1,-3 3,-3l68 0 0 64c22,0 47,-1 63,20 2,2 4,4 5,6 2,3 2,6 5,6l229 0 0 -312 -29 0c0,-13 2,-22 -3,-22l-93 0 0 -21 -156 0c0,-52 -43,-96 -92,-96 -20,0 -38,4 -53,13 -2,2 -5,3 -7,5 -14,11 -9,7 -17,16 -13,13 -23,40 -23,59z"/>
   <path class="fil0" d="M468 545l0 339 8 -1c0,10 0,19 0,29 0,25 -2,22 32,22 10,0 8,-15 8,-27l376 0c0,31 -4,27 31,27 10,0 8,-12 8,-21 0,-10 0,-20 0,-30 3,1 8,3 8,-1l0 -337c0,-4 0,-7 -2,-11 -8,-20 -29,-16 -50,-16 -31,0 -28,31 -28,31 0,1 1,2 -6,2l-84 0c-67,0 -143,1 -209,-1l-11 1c0,-13 0,-17 -8,-25 -9,-10 -28,-8 -44,-8 -16,0 -29,9 -29,27z"/>
   <path class="fil1" d="M479 867c11,-7 8,-13 31,-13 9,0 15,4 20,9 2,3 4,4 7,7 16,16 23,-16 45,-16 11,0 17,0 26,9 15,14 17,16 34,0 11,-12 33,-12 44,-1 15,15 18,17 34,1 12,-12 34,-12 46,0 12,11 15,18 33,0 10,-10 15,-9 27,-9 7,0 15,5 19,9 16,15 17,15 32,0 11,-11 31,-12 41,-5 6,4 8,8 11,9l-1 -190c-1,-7 -7,-12 -14,-12l-419 0c-21,0 -16,25 -16,38l0 164z"/>
   <path class="fil1" d="M562 576c0,10 9,15 12,20l-2 12c-4,14 -5,31 -5,46l272 0 -8 -59c4,-5 13,-10 13,-19 0,-7 -13,0 -19,5 -1,1 -4,5 -5,5 -7,0 -47,-12 -95,-12 -44,0 -73,-2 -117,7l-23 6c-6,-9 -23,-19 -23,-11z"/>
   <path class="fil1" d="M681 510l68 0c2,0 3,0 3,-2 0,-15 1,-78 -1,-87l-70 0 0 89z"/>
   <polygon class="fil1" points="602,510 672,510 672,421 602,421 "/>
   <polygon class="fil1" points="106,510 177,510 177,421 106,421 "/>
   <path class="fil1" d="M106 270l0 87 71 0 0 -89 -68 0c-2,0 -3,0 -3,2z"/>
   <path class="fil1" d="M681 357l68 0c2,0 3,-1 3,-3l0 -84c0,-2 -1,-2 -3,-2l-68 0 0 89z"/>
   <path class="fil1" d="M433 270l0 87 71 0 0 -87c0,-2 -1,-2 -3,-2l-65 0c-2,0 -3,0 -3,2z"/>
   <path class="fil1" d="M602 270l0 87 70 0 0 -87c0,-2 -1,-2 -3,-2l-65 0c-2,0 -2,0 -2,2z"/>
   <path class="fil1" d="M186 500c0,0 0,2 0,2l0 8 68 0c2,0 2,0 2,-2l0 -78c0,-3 2,-9 -2,-9l-68 0 0 79z"/>
   <path class="fil1" d="M186 357l69 0c2,-1 0,1 1,-6l0 -77c0,-3 1,-6 -2,-6l-68 0 0 89z"/>
   <path class="fil1" d="M106 577l0 87 71 0 0 -89 -67 0c-2,0 -4,-1 -4,2z"/>
   <path class="fil1" d="M186 577l0 87 70 0 0 -71c0,-4 0,-3 0,-6l0 -12 -13 0c-9,-1 -39,1 -52,0 -3,0 -5,-1 -5,2z"/>
   <polygon class="fil1" points="186,824 256,824 256,736 186,736 "/>
   <polygon class="fil1" points="106,824 177,824 177,736 106,736 "/>
   <path class="fil1" d="M355 357l70 0c-1,-1 -1,-1 -1,-3l0 -86 -69 0 0 89z"/>
   <path class="fil1" d="M355 510l69 0 0 -85c0,-3 2,-4 -2,-4l-67 0 0 89z"/>
   <path class="fil1" d="M355 664l69 0 0 -82c0,-3 2,-7 -2,-7l-67 0 0 89z"/>
   <path class="fil1" d="M413 146l-51 0c1,2 1,1 2,2 1,1 2,2 3,2l15 11c4,3 7,5 10,8 2,1 8,6 11,7 0,3 -2,9 -4,12l-11 37c6,-4 39,-29 41,-29l11 7c6,4 25,19 30,22l-11 -36c-1,-5 -4,-8 -4,-13l21 -15c4,-2 18,-12 20,-15l-51 0 -8 -23c-1,-6 -7,-19 -7,-24l-2 0c0,6 -13,37 -15,47z"/>
  </g>
 </g>
</svg>
