<?xml version="1.0" encoding="UTF-8"?>
<!DOCTYPE svg PUBLIC "-//W3C//DTD SVG 1.0//EN" "http://www.w3.org/TR/2001/REC-SVG-20010904/DTD/svg10.dtd">
<!-- Creator: CorelDRAW X7 -->
<svg xmlns="http://www.w3.org/2000/svg" xml:space="preserve" width="300px" height="300px" version="1.0" style="shape-rendering:geometricPrecision; text-rendering:geometricPrecision; image-rendering:optimizeQuality; fill-rule:evenodd; clip-rule:evenodd"
viewBox="0 0 300 300"
 xmlns:xlink="http://www.w3.org/1999/xlink">
 <defs>
  <style type="text/css">
   <![CDATA[
    .fil0 {fill:black}
   ]]>
  </style>
 </defs>
 <g id="Layer_x0020_1">
  <metadata id="CorelCorpID_0Corel-Layer"/>
  <g id="_2233374836240">
   <path class="fil0" d="M106 112c0,-1 1,0 0,0 0,0 0,1 0,0zm-11 166l-1 0c-6,0 -12,-4 -12,-11l0 -75 -5 0 0 74c0,4 -1,6 -3,8 -4,4 -7,4 -11,4l0 0c-7,0 -11,-7 -11,-14l0 -72c-3,0 -8,1 -10,-1 -1,0 -3,-2 -3,-3 0,-6 2,-16 4,-23 1,-4 4,-18 4,-21l10 6c-1,3 -4,14 -1,16 1,1 3,2 5,2l38 0c3,0 5,-2 5,-5 0,-3 -3,-19 -4,-24 -1,-8 -2,-15 -4,-23 0,-4 -1,-8 -1,-13 0,-1 -1,-5 -1,-6 0,-2 1,-3 2,-5 1,-3 6,-18 7,-20 2,0 4,1 6,2 1,0 3,3 4,3l5 8c3,6 8,19 10,26 3,5 3,8 6,11l8 7c2,2 3,3 4,4 4,4 10,7 11,13 3,0 5,0 6,2 1,1 2,3 2,4l0 18 11 0 0 -27c0,-3 2,-4 4,-4l16 0c3,0 6,0 6,4l0 27 9 0c0,-24 -2,-22 10,-22l0 -2c0,-5 10,-4 7,2 2,0 5,0 6,0 2,0 3,1 3,3l0 19c8,0 16,-1 19,3 4,4 2,12 -6,12l-85 0 0 59c0,4 -7,7 -6,20 -4,0 -8,-2 -8,-6l0 -98c-6,0 -14,1 -17,-1 -4,-4 -2,-8 -1,-10l-13 -12c-1,0 -1,-1 -2,-2 -7,-5 -7,-14 -11,-21 0,-1 0,-1 0,-1 0,3 1,7 1,9 1,3 1,7 2,10l9 45c2,14 2,15 -12,15l0 74c0,8 -6,12 -12,12z"/>
   <path class="fil0" d="M22 119c0,10 10,11 20,17 5,2 22,11 26,11 10,0 14,-14 6,-19l-21 -10c-2,-1 -3,-2 -5,-2 0,-2 8,-15 10,-16 -1,1 -2,4 -2,5 -1,2 -1,5 -1,7 7,2 7,8 8,-1 2,-18 3,-10 -3,-27l-4 -12c-7,0 -12,9 -15,14l-16 26c-1,1 -3,4 -3,7z"/>
   <path class="fil0" d="M78 22c-3,0 -5,1 -8,2l-6 5c-15,17 2,42 23,34 8,-3 13,-10 14,-18 0,-7 -2,-11 -5,-16 -3,-3 -9,-7 -14,-7l-4 0z"/>
   <path class="fil0" d="M173 234c0,5 5,7 10,7l57 0c15,0 12,-15 2,-15l-61 0c-4,0 -8,4 -8,8z"/>
   <path class="fil0" d="M173 212c0,4 3,7 7,7l64 0c5,0 9,-8 4,-12 -1,-2 -3,-3 -5,-3l-62 0c-4,0 -8,4 -8,8z"/>
   <path class="fil0" d="M243 256c8,0 8,9 3,11 -8,3 -11,-11 -3,-11zm0 22l-1 0 0 0c-7,0 -14,-7 -14,-14l0 -3c0,-13 18,-20 27,-10 5,4 6,12 3,18 -1,3 -1,3 -3,4 -4,5 -7,5 -12,5z"/>
   <path class="fil0" d="M176 262c0,-6 9,-8 11,-2 3,8 -11,11 -11,2zm-11 0c0,8 7,16 15,16 6,0 10,-1 14,-5 9,-12 1,-27 -13,-27 -8,0 -16,7 -16,16z"/>
   <path class="fil0" d="M72 96l15 0c1,-5 8,-22 8,-25l-31 0c0,2 5,15 6,19 1,2 2,4 2,6z"/>
   <path class="fil0" d="M204 260l0 4 17 0c0,-11 3,-10 3,-14l-23 0c1,3 3,6 3,10z"/>
   <path class="fil0" d="M267 264c4,0 11,0 11,-7 0,-9 -10,-7 -15,-7 3,4 4,8 4,14z"/>
  </g>
 </g>
</svg>
