<?xml version="1.0" encoding="UTF-8"?>
<!DOCTYPE svg PUBLIC "-//W3C//DTD SVG 1.0//EN" "http://www.w3.org/TR/2001/REC-SVG-20010904/DTD/svg10.dtd">
<!-- Creator: CorelDRAW X7 -->
<svg xmlns="http://www.w3.org/2000/svg" xml:space="preserve" width="1in" height="1in" version="1.0" style="shape-rendering:geometricPrecision; text-rendering:geometricPrecision; image-rendering:optimizeQuality; fill-rule:evenodd; clip-rule:evenodd"
viewBox="0 0 1000 1000"
 xmlns:xlink="http://www.w3.org/1999/xlink">
 <defs>
  <style type="text/css">
   <![CDATA[
    .fil0 {fill:black}
    .fil1 {fill:white}
   ]]>
  </style>
 </defs>
 <g id="Layer_x0020_1">
  <metadata id="CorelCorpID_0Corel-Layer"/>
  <g id="_2638358062896">
   <path class="fil0" d="M287 808l0 -186c0,-21 13,-38 27,-45 8,-4 18,-7 28,-10l87 -25c31,-8 29,-22 29,-46 20,5 29,14 63,7 9,-2 12,-5 19,-7 0,49 15,41 84,62 10,3 18,5 28,8 21,6 35,7 49,25 4,6 10,17 10,27l0 197c-5,5 -6,7 -11,7l-406 0c-3,-5 -7,-6 -7,-14zm138 -550c16,0 25,-2 37,-9 15,-8 3,-10 25,3 36,21 48,20 84,17 4,6 8,11 12,17 3,7 6,11 10,17 -8,17 -1,32 14,33 0,12 -3,19 -3,31 -18,4 -21,3 -26,25 -4,13 -7,26 -13,36 -11,18 -43,36 -63,36 -19,0 -38,-9 -52,-18 -21,-16 -23,-29 -29,-56 -5,-21 -12,-19 -27,-23 0,-13 -3,-20 -3,-31 26,0 14,-32 15,-35 2,-6 17,-31 19,-43zm-65 20c0,11 2,20 3,27 -14,22 -17,16 -10,58 3,15 5,42 30,44 2,22 18,52 35,64l0 33 -111 31c-32,12 -60,45 -60,82l0 198c0,13 11,30 19,36 11,8 21,13 39,13l388 0c40,0 60,-27 60,-65l0 -164c0,-44 -17,-81 -55,-97 -11,-5 -18,-6 -30,-10l-88 -24c0,-26 -3,-28 6,-38l16 -21c3,-6 6,-11 8,-18 12,-35 3,-10 23,-30 6,-6 8,-8 10,-19 3,-19 10,-46 2,-61 -3,-5 -6,-7 -10,-10 7,-32 4,-62 -11,-91 -13,-26 -25,-31 -29,-39 -2,-4 -3,-8 -6,-12 -6,-5 -23,-15 -31,-18 -38,-14 -81,-18 -117,5 -22,14 -13,4 -25,9 -24,10 -56,66 -56,117z"/>
   <path class="fil1" d="M414 608c0,-6 8,-13 13,-16 5,-3 -2,-3 9,-3 6,0 1,-1 7,4l4 4c52,-28 18,3 42,-33 46,0 15,12 34,21 10,4 11,3 28,12 4,-3 7,-8 13,-8 9,0 20,11 20,20 0,7 -7,7 -7,15 0,0 4,7 5,9 14,31 0,20 24,26 4,9 5,23 -1,28 -2,3 -12,3 -16,4 -1,13 -12,30 -12,35 0,6 17,7 -1,25 -17,17 -13,0 -27,0 -3,0 -7,4 -11,6 -16,7 -18,1 -21,13 -3,9 -2,6 -6,12l-24 0c-15,-23 7,-12 -26,-25 -13,-5 -11,-9 -20,-2 -1,1 -5,4 -7,4 -6,0 -20,-14 -20,-20 0,-8 8,-8 8,-15 0,-2 -6,-11 -7,-15 -3,-7 -4,-10 -6,-18 -12,-2 -25,4 -16,-32 24,-6 9,4 23,-26 2,-3 6,-7 6,-11 0,-7 -8,-7 -8,-14zm-127 200c0,8 4,9 7,14l406 0c5,0 6,-2 11,-7l0 -197c0,-10 -6,-21 -10,-27 -14,-18 -28,-19 -49,-25 -10,-3 -18,-5 -28,-8 -69,-21 -84,-13 -84,-62 -7,2 -10,5 -19,7 -34,7 -43,-2 -63,-7 0,24 2,38 -29,46l-87 25c-10,3 -20,6 -28,10 -14,7 -27,24 -27,45l0 186z"/>
   <path class="fil0" d="M937 648c0,-38 -25,-66 -52,-78 -7,-3 -17,-5 -25,-7l-50 -14c-6,-2 -19,-4 -24,-7l0 -26c12,-8 29,-34 29,-54 13,-3 23,-13 25,-26 4,-19 14,-53 -7,-67 13,-26 -4,-72 -16,-90 -10,-15 -13,-16 -18,-22 -4,-5 -2,-7 -7,-12 -14,-14 -48,-26 -73,-27 -18,-1 -35,3 -51,10 -7,3 -5,4 -13,6 0,11 3,16 3,47 6,-3 7,-3 11,-7 24,-17 50,-19 77,-9 16,5 8,4 16,13 12,15 8,4 26,31 -8,0 -11,0 -17,1 -54,12 -71,-37 -92,-25 -11,7 -1,5 -21,15 2,5 5,7 7,13 2,6 2,10 4,14 10,-5 10,-4 19,-11 9,6 20,14 31,18 32,12 41,6 56,6 3,6 6,9 10,16 4,6 7,8 6,15 -4,16 -3,20 13,29 0,8 -2,10 -2,20 -14,8 -18,3 -23,22 -3,13 -5,22 -11,33 -7,14 -36,32 -57,32 -16,0 -45,-15 -53,-28 -6,-9 -9,-17 -12,-29 -2,-12 -4,-22 -15,-25 -1,19 -21,46 -21,45 0,0 0,1 -1,1 3,5 6,18 10,21l69 20c26,7 47,22 62,42 10,14 10,23 20,26l69 20c23,6 47,9 55,35 5,17 3,94 3,116 0,7 -3,9 -5,13l-95 0c-8,0 -26,-3 -26,6 0,23 -3,36 6,36l104 0c32,0 56,-21 56,-51l0 -107z"/>
   <path class="fil0" d="M340 278c0,-11 0,-17 1,-26 2,-8 4,-15 4,-22 -12,-6 -45,-15 -67,-12 -19,4 -28,5 -44,16 -19,12 -15,0 -27,11 -2,3 -4,4 -6,6l-20 26c-11,17 -26,68 -14,92 -7,5 -13,17 -13,24 0,13 4,47 13,58 3,5 7,6 12,9 10,6 10,39 35,56l0 26 -77 22c-38,10 -74,34 -74,84l0 107c0,10 2,16 5,22 10,19 27,29 51,29l108 0 0 -42 -119 0c-2,-4 -5,-6 -5,-13l0 -91c0,-48 24,-51 59,-61 16,-4 32,-9 47,-13 35,-9 22,-3 34,-24 5,-8 8,-10 14,-18 3,-4 3,-3 7,-6l48 -26c16,-5 30,-8 47,-13 14,-4 30,-3 30,-28l-13 -21c-4,-7 -8,-16 -9,-25 -6,3 -7,3 -10,11 -11,30 0,39 -38,61 -28,18 -44,9 -68,-3 -31,-16 -25,-53 -36,-65 -5,-6 -13,-5 -16,-9 -2,-2 -3,-16 -3,-20 3,-2 7,-3 9,-5 2,-2 4,-6 5,-8 6,-17 -8,-8 3,-31 2,-4 2,-6 4,-10 3,-6 6,-10 8,-17 22,0 27,-4 40,-13l14 10c16,9 29,14 50,16 0,-12 2,-22 5,-30 -24,0 -38,-10 -55,-21 -24,-17 -21,-4 -36,5 -8,5 -14,4 -27,4 3,-11 13,-15 29,-25 22,-15 26,-15 51,-15 32,0 39,15 44,18z"/>
   <path class="fil1" d="M425 258c-2,12 -17,37 -19,43 -1,3 11,35 -15,35 0,11 3,18 3,31 15,4 22,2 27,23 6,27 8,40 29,56 14,9 33,18 52,18 20,0 52,-18 63,-36 6,-10 9,-23 13,-36 5,-22 8,-21 26,-25 0,-12 3,-19 3,-31 -15,-1 -22,-16 -14,-33 -4,-6 -7,-10 -10,-17 -4,-6 -8,-11 -12,-17 -36,3 -48,4 -84,-17 -22,-13 -10,-11 -25,-3 -12,7 -21,9 -37,9z"/>
   <path class="fil0" d="M453 673c0,-12 6,-25 12,-31 11,-13 23,-14 39,-14 21,0 42,21 42,41 0,31 -22,51 -46,51 -26,0 -47,-21 -47,-47zm-31 51c0,7 -8,7 -8,15 0,6 14,20 20,20 2,0 6,-3 7,-4 9,-7 7,-3 20,2 33,13 11,2 26,25l24 0c4,-6 3,-3 6,-12 3,-12 5,-6 21,-13 4,-2 8,-6 11,-6 14,0 10,17 27,0 18,-18 1,-19 1,-25 0,-5 11,-22 12,-35 4,-1 14,-1 16,-4 6,-5 5,-19 1,-28 -24,-6 -10,5 -24,-26 -1,-2 -5,-9 -5,-9 0,-8 7,-8 7,-15 0,-9 -11,-20 -20,-20 -6,0 -9,5 -13,8 -17,-9 -18,-8 -28,-12 -19,-9 12,-21 -34,-21 -24,36 10,5 -42,33l-4 -4c-6,-5 -1,-4 -7,-4 -11,0 -4,0 -9,3 -5,3 -13,10 -13,16 0,7 8,7 8,14 0,4 -4,8 -6,11 -14,30 1,20 -23,26 -9,36 4,30 16,32 2,8 3,11 6,18 1,4 7,13 7,15z"/>
   <path class="fil1" d="M453 673c0,26 21,47 47,47 24,0 46,-20 46,-51 0,-20 -21,-41 -42,-41 -16,0 -28,1 -39,14 -6,6 -12,19 -12,31z"/>
  </g>
 </g>
</svg>
