<?xml version="1.0" encoding="UTF-8"?>
<!DOCTYPE svg PUBLIC "-//W3C//DTD SVG 1.0//EN" "http://www.w3.org/TR/2001/REC-SVG-20010904/DTD/svg10.dtd">
<!-- Creator: CorelDRAW X7 -->
<svg xmlns="http://www.w3.org/2000/svg" xml:space="preserve" width="1in" height="1in" version="1.0" style="shape-rendering:geometricPrecision; text-rendering:geometricPrecision; image-rendering:optimizeQuality; fill-rule:evenodd; clip-rule:evenodd"
viewBox="0 0 1000 1000"
 xmlns:xlink="http://www.w3.org/1999/xlink">
 <defs>
  <style type="text/css">
   <![CDATA[
    .fil0 {fill:black;fill-rule:nonzero}
   ]]>
  </style>
 </defs>
 <g id="Layer_x0020_1">
  <metadata id="CorelCorpID_0Corel-Layer"/>
  <g id="_2638358141600">
   <path class="fil0" d="M155 127l718 0 0 746 -56 0 0 -55 1 0 0 -636 -636 0 0 636 1 0 0 55 -56 0 0 -746 28 0zm603 746l-135 0 0 -55 135 0 0 55zm-169 0l-178 0 0 -55 178 0 0 55zm-212 0l-135 0 0 -55 135 0 0 55z"/>
   <path class="fil0" d="M326 781l0 -536 174 0c66,0 109,2 128,7 31,9 57,26 78,53 20,27 31,62 31,104 0,33 -6,61 -18,83 -12,23 -27,41 -46,53 -18,13 -37,22 -56,26 -25,5 -63,7 -112,7l-70 0 0 203 -109 0zm109 -446l0 153 59 0c42,0 71,-3 85,-9 15,-5 26,-14 34,-26 8,-12 12,-26 12,-42 0,-19 -6,-36 -17,-48 -11,-13 -26,-21 -43,-24 -13,-3 -39,-4 -78,-4l-52 0z"/>
  </g>
 </g>
</svg>
