<?xml version="1.0" encoding="UTF-8"?>
<!DOCTYPE svg PUBLIC "-//W3C//DTD SVG 1.0//EN" "http://www.w3.org/TR/2001/REC-SVG-20010904/DTD/svg10.dtd">
<!-- Creator: CorelDRAW X7 -->
<svg xmlns="http://www.w3.org/2000/svg" xml:space="preserve" width="300px" height="300px" version="1.0" style="shape-rendering:geometricPrecision; text-rendering:geometricPrecision; image-rendering:optimizeQuality; fill-rule:evenodd; clip-rule:evenodd"
viewBox="0 0 300 300"
 xmlns:xlink="http://www.w3.org/1999/xlink">
 <defs>
  <style type="text/css">
   <![CDATA[
    .fil0 {fill:black}
    .fil1 {fill:white}
   ]]>
  </style>
 </defs>
 <g id="Layer_x0020_1">
  <metadata id="CorelCorpID_0Corel-Layer"/>
  <g id="_1681583872144">
   <path class="fil0" d="M166 195c0,-4 4,-8 8,-9 2,-1 5,-1 7,-1 2,-1 3,-1 4,-1 4,-1 17,-7 21,-9 2,-1 4,-2 6,-3 1,0 2,0 3,-1 2,-1 2,-1 3,-2 3,-1 4,-1 6,-2 2,-2 5,-4 7,-5 0,0 0,0 1,-1 0,0 1,-1 2,-2 5,-5 9,-12 12,-19 1,-2 2,-1 2,0 0,6 -1,9 -1,14 0,2 0,2 -1,3 0,1 0,2 0,3 -1,5 -3,10 -5,14l-3 9c2,0 5,0 7,1 2,0 3,1 5,2 4,2 5,6 5,10 0,1 0,3 0,4 0,1 0,2 0,3 0,5 0,5 -3,6l-14 0c-10,0 -20,1 -30,1 -1,0 -2,0 -4,0l-10 0c-3,0 -4,0 -7,0 -9,0 -16,2 -20,-8 -1,-2 -1,-4 -1,-7zm-132 3c0,-1 1,-4 1,-5 1,0 1,-1 1,-1 3,-3 4,-4 8,-5l5 -1c5,-1 7,-2 12,-4 5,-2 9,-4 12,-8 6,-6 8,-15 8,-24l0 -10c0,-1 0,-1 0,-2 0,-5 1,-15 0,-18 0,-2 0,-8 0,-10 0,-5 0,-6 2,-9 1,-2 1,-1 2,-3 5,-6 17,-7 22,0 4,5 5,12 6,18l1 6c1,8 2,32 0,40l-8 24c3,0 8,-1 11,0 1,1 3,2 3,3 5,5 4,13 4,21 -2,0 -4,0 -7,0l-6 1c-5,0 -8,0 -13,0 -1,0 -2,0 -3,0l-42 1c-8,0 -15,-1 -18,-9 0,-1 -1,-4 -1,-5zm108 -10c0,-2 0,-2 0,-4 0,-7 0,-19 0,-25 0,-1 0,-2 0,-2 0,-4 0,-7 0,-10 0,-3 0,-5 0,-8 0,-25 -1,-49 -1,-74l11 0c0,4 0,6 0,9l0 28c0,2 0,3 0,5l0 31c0,2 1,3 1,5l0 28c0,1 0,2 0,4l0 36 -11 0 0 -23zm48 -105c0,-10 9,-16 17,-16 5,0 9,2 13,4 5,3 5,3 8,6 1,0 1,1 2,1l2 3c1,1 2,2 3,3 3,4 7,11 9,16 4,12 5,25 -1,38 0,0 -1,1 -1,2 -3,6 -4,7 -8,13l-2 2c0,0 0,0 0,0l-5 5c-2,1 -2,2 -4,4 -5,2 -7,4 -12,5l-5 2c1,-2 2,-4 2,-5l2 -4c4,-8 3,-15 4,-23 0,-2 0,-4 0,-6 0,-2 0,-5 0,-7 0,-7 0,-22 -2,-27 -4,2 -11,3 -15,0 -5,-3 -7,-9 -7,-16zm-132 0c0,-5 3,-10 7,-13 6,-5 14,-3 20,3 0,0 1,1 1,2 1,1 1,1 2,3 1,4 1,9 0,13 -1,1 -1,2 -2,3 -1,2 -3,4 -6,5 -6,4 -13,2 -18,-3 0,-1 -1,-2 -1,-2 -3,-4 -3,-6 -3,-11zm-43 181c0,3 2,6 4,7 1,0 2,1 3,1l250 0c1,0 -1,0 1,0 0,0 0,0 1,0 1,0 2,0 3,0 5,0 8,-4 8,-8l0 -228c0,-3 -2,-6 -4,-7 -1,-1 -2,-1 -4,-1 -48,1 -96,0 -143,0l-104 0c-3,0 -8,0 -11,1 -2,1 -4,4 -4,7l0 228z"/>
   <path class="fil1" d="M34 198c0,1 1,4 1,5 3,8 10,9 18,9l42 -1c1,0 2,0 3,0 5,0 8,0 13,0l6 -1c3,0 5,0 7,0 0,-8 1,-16 -4,-21 0,-1 -2,-2 -3,-3 -3,-1 -8,0 -11,0l8 -24c2,-8 1,-32 0,-40l-1 -6c-1,-6 -2,-13 -6,-18 -5,-7 -17,-6 -22,0 -1,2 -1,1 -2,3 -2,3 -2,4 -2,9 0,2 0,8 0,10 1,3 0,13 0,18 0,1 0,1 0,2l0 10c0,9 -2,18 -8,24 -3,4 -7,6 -12,8 -5,2 -7,3 -12,4l-5 1c-4,1 -5,2 -8,5 0,0 0,1 -1,1 0,1 -1,4 -1,5z"/>
   <path class="fil1" d="M190 83c0,7 2,13 7,16 4,3 11,2 15,0 2,5 2,20 2,27 0,2 0,5 0,7 0,2 0,4 0,6 -1,8 0,15 -4,23l-2 4c0,1 -1,3 -2,5l5 -2c5,-1 7,-3 12,-5 2,-2 2,-3 4,-4l5 -5c0,0 0,0 0,0l2 -2c4,-6 5,-7 8,-13 0,-1 1,-2 1,-2 6,-13 5,-26 1,-38 -2,-5 -6,-12 -9,-16 -1,-1 -2,-2 -3,-3l-2 -3c-1,0 -1,-1 -2,-1 -3,-3 -3,-3 -8,-6 -4,-2 -8,-4 -13,-4 -8,0 -17,6 -17,16z"/>
   <path class="fil1" d="M166 195c0,3 0,5 1,7 4,10 11,8 20,8 3,0 4,0 7,0l10 0c2,0 3,0 4,0 10,0 20,-1 30,-1l14 0c3,-1 3,-1 3,-6 0,-1 0,-2 0,-3 0,-1 0,-3 0,-4 0,-4 -1,-8 -5,-10 -2,-1 -3,-2 -5,-2 -2,-1 -5,-1 -7,-1l3 -9c2,-4 4,-9 5,-14 0,-1 0,-2 0,-3 1,-1 1,-1 1,-3 0,-5 1,-8 1,-14 0,-1 -1,-2 -2,0 -3,7 -7,14 -12,19 -1,1 -2,2 -2,2 -1,1 -1,1 -1,1 -2,1 -5,3 -7,5 -2,1 -3,1 -6,2 -1,1 -1,1 -3,2 -1,1 -2,1 -3,1 -2,1 -4,2 -6,3 -4,2 -17,8 -21,9 -1,0 -2,0 -4,1 -2,0 -5,0 -7,1 -4,1 -8,5 -8,9z"/>
   <path class="fil1" d="M142 211l11 0 0 -36c0,-2 0,-3 0,-4l0 -28c0,-2 -1,-3 -1,-5l0 -31c0,-2 0,-3 0,-5l0 -28c0,-3 0,-5 0,-9l-11 0c0,25 1,49 1,74 0,3 0,5 0,8 0,3 0,6 0,10 0,0 0,1 0,2 0,6 0,18 0,25 0,2 0,2 0,4l0 23z"/>
   <path class="fil1" d="M58 83c0,5 0,7 3,11 0,0 1,1 1,2 5,5 12,7 18,3 3,-1 5,-3 6,-5 1,-1 1,-2 2,-3 1,-4 1,-9 0,-13 -1,-2 -1,-2 -2,-3 0,-1 -1,-2 -1,-2 -6,-6 -14,-8 -20,-3 -4,3 -7,8 -7,13z"/>
  </g>
 </g>
</svg>
