<?xml version="1.0" encoding="UTF-8"?>
<!DOCTYPE svg PUBLIC "-//W3C//DTD SVG 1.0//EN" "http://www.w3.org/TR/2001/REC-SVG-20010904/DTD/svg10.dtd">
<!-- Creator: CorelDRAW X7 -->
<svg xmlns="http://www.w3.org/2000/svg" xml:space="preserve" width="1in" height="1in" version="1.0" style="shape-rendering:geometricPrecision; text-rendering:geometricPrecision; image-rendering:optimizeQuality; fill-rule:evenodd; clip-rule:evenodd"
viewBox="0 0 1000 1000"
 xmlns:xlink="http://www.w3.org/1999/xlink">
 <defs>
  <style type="text/css">
   <![CDATA[
    .fil0 {fill:black}
    .fil3 {fill:#343434}
    .fil2 {fill:#3C3C3C}
    .fil1 {fill:#FCFCFC}
   ]]>
  </style>
 </defs>
 <g id="Layer_x0020_1">
  <metadata id="CorelCorpID_0Corel-Layer"/>
  <g id="_2638300612016">
   <path class="fil0" d="M134 479c-18,8 -16,20 -16,41l0 170c0,20 -1,35 16,40 10,3 162,2 168,0 16,-6 15,-22 15,-42l0 -169c0,-20 1,-35 -17,-41 -8,-2 -159,-2 -166,1z"/>
   <path class="fil0" d="M416 479c-18,7 -16,20 -16,41l0 170c0,49 12,41 72,41 17,0 103,2 112,-1 16,-6 15,-23 15,-42l0 -169c0,-50 -11,-42 -72,-42 -18,0 -101,-2 -111,2z"/>
   <path class="fil0" d="M699 478c-18,6 -17,20 -17,41l0 169c0,20 0,36 16,42 8,3 160,2 167,0 17,-5 16,-21 16,-40l0 -170c0,-50 -8,-43 -70,-43 -18,0 -102,-2 -112,1z"/>
   <path class="fil0" d="M507 208c0,-15 16,-17 16,2 0,13 -3,26 4,34 6,7 12,13 18,20 4,5 17,14 11,22 -7,8 -12,1 -16,-4 -3,-4 -8,-9 -12,-14 -10,-12 -21,-20 -21,-30l0 -30zm9 -56c-51,0 -90,39 -91,89 0,50 40,90 90,90 50,0 90,-39 90,-89 0,-49 -39,-90 -89,-90z"/>
   <path class="fil0" d="M410 254c-8,-62 39,-110 92,-117 61,-8 112,38 118,91 6,63 -38,111 -91,118 -63,8 -112,-38 -119,-92zm94 -142c-68,6 -126,64 -119,140 6,68 65,126 141,119 68,-6 125,-65 119,-141 -6,-67 -66,-125 -141,-118z"/>
   <path class="fil0" d="M100 748c-22,6 -19,39 2,44 9,1 225,1 232,-1 23,-5 22,-39 -1,-43 -15,-3 -60,-1 -78,-1 -25,0 -140,-3 -155,1z"/>
   <path class="fil0" d="M675 792l214 0c35,0 35,-45 0,-45l-215 0c-34,0 -36,45 1,45z"/>
   <path class="fil0" d="M394 792l211 0c39,0 35,-45 3,-45l-217 0c-32,0 -36,45 3,45z"/>
   <polygon class="fil0" points="149,854 851,853 850,838 845,838 155,838 149,838 "/>
   <path class="fil1" d="M516 152c50,0 89,41 89,90 0,50 -40,89 -90,89 -50,0 -90,-40 -90,-90 1,-50 40,-89 91,-89zm-106 102c7,54 56,100 119,92 53,-7 97,-55 91,-118 -6,-53 -57,-99 -118,-91 -53,7 -100,55 -92,117z"/>
   <path class="fil1" d="M507 208l0 30c0,10 11,18 21,30 4,5 9,10 12,14 4,5 9,12 16,4 6,-8 -7,-17 -11,-22 -6,-7 -12,-13 -18,-20 -7,-8 -4,-21 -4,-34 0,-19 -16,-17 -16,-2z"/>
   <polygon class="fil0" points="868,887 880,887 880,879 880,821 880,809 868,809 "/>
   <polygon class="fil0" points="120,818 120,879 120,887 132,887 132,881 132,823 132,817 132,809 120,809 "/>
   <path class="fil2" d="M120 809l12 0 0 8 0 6 0 58 0 6 -12 0 0 -8 0 -61 0 -9zm-2 80l16 0 -1 -82 -15 1 0 81z"/>
   <path class="fil3" d="M868 809l12 0 0 12 0 58 0 8 -12 0 0 -78zm-2 80l15 0 0 -82 -15 1 0 81z"/>
  </g>
 </g>
</svg>
