<?xml version="1.0" encoding="UTF-8"?>
<!DOCTYPE svg PUBLIC "-//W3C//DTD SVG 1.0//EN" "http://www.w3.org/TR/2001/REC-SVG-20010904/DTD/svg10.dtd">
<!-- Creator: CorelDRAW X7 -->
<svg xmlns="http://www.w3.org/2000/svg" xml:space="preserve" width="1in" height="1in" version="1.0" style="shape-rendering:geometricPrecision; text-rendering:geometricPrecision; image-rendering:optimizeQuality; fill-rule:evenodd; clip-rule:evenodd"
viewBox="0 0 1000 1000"
 xmlns:xlink="http://www.w3.org/1999/xlink">
 <defs>
  <style type="text/css">
   <![CDATA[
    .fil1 {fill:#010101}
    .fil2 {fill:#FBFBFB}
    .fil0 {fill:white}
   ]]>
  </style>
 </defs>
 <g id="Layer_x0020_1">
  <metadata id="CorelCorpID_0Corel-Layer"/>
  <g id="_2638358354528">
   <path class="fil0" d="M676 684c5,-53 5,-163 -9,-211 -9,-32 -22,-49 -55,-59 -59,-17 -269,-13 -326,-7 -84,10 -99,36 -107,120 -5,54 -6,164 9,212 9,30 25,48 57,57 65,18 260,14 324,8 84,-9 99,-38 107,-120z"/>
   <path class="fil0" d="M822 687c-16,44 -76,19 -60,-22 14,-35 74,-16 60,22zm-113 -38c-4,87 -12,152 -83,176 -61,21 -175,15 -244,15 -210,0 -247,-32 -237,-280 3,-83 15,-151 83,-174 63,-22 173,-15 245,-15 82,0 167,-2 207,53 33,45 33,160 29,225zm111 -103c-15,37 -78,13 -57,-29 15,-32 75,-12 57,29zm-646 -188c-50,16 -46,53 -46,110l-1 312c0,52 25,77 78,77 72,0 597,4 622,-3 46,-14 46,-56 46,-110l0 -311c0,-53 -25,-78 -78,-79 -103,0 -207,1 -311,0 -50,0 -281,-5 -310,4z"/>
   <path class="fil1" d="M174 358c29,-9 260,-4 310,-4 104,1 208,0 311,0 53,1 78,26 78,79l0 311c0,54 0,96 -46,110 -25,7 -550,3 -622,3 -53,0 -78,-25 -78,-77l1 -312c0,-57 -4,-94 46,-110zm-79 47l0 399c13,27 5,32 29,56 26,25 29,16 59,29l634 0c31,-14 32,-4 59,-29 25,-24 16,-30 29,-59l0 -396c-18,-37 -12,-47 -46,-68 -29,-18 -56,-15 -95,-15 -75,0 -149,0 -223,0 6,-12 125,-128 152,-154 27,-28 46,-36 23,-57l-11 0 -205 204c-21,-22 -43,-43 -66,-66 -31,-31 -49,-60 -75,-54 -8,20 -1,24 12,36 18,17 82,79 88,91 -74,0 -148,0 -223,0 -41,0 -66,-4 -97,17 -32,21 -27,30 -44,66z"/>
   <path class="fil1" d="M676 684c-8,82 -23,111 -107,120 -64,6 -259,10 -324,-8 -32,-9 -48,-27 -57,-57 -15,-48 -14,-158 -9,-212 8,-84 23,-110 107,-120 57,-6 267,-10 326,7 33,10 46,27 55,59 14,48 14,158 9,211zm33 -35c4,-65 4,-180 -29,-225 -40,-55 -125,-53 -207,-53 -72,0 -182,-7 -245,15 -68,23 -80,91 -83,174 -10,248 27,280 237,280 69,0 183,6 244,-15 71,-24 79,-89 83,-176z"/>
   <path class="fil1" d="M820 546c18,-41 -42,-61 -57,-29 -21,42 42,66 57,29z"/>
   <path class="fil1" d="M822 687c14,-38 -46,-57 -60,-22 -16,41 44,66 60,22z"/>
   <path class="fil2" d="M817 889l88 0 0 -88c-13,29 -4,35 -29,59 -27,25 -28,15 -59,29z"/>
   <path class="fil2" d="M95 889l88 0c-30,-13 -33,-4 -59,-29 -24,-24 -16,-29 -29,-56l0 85z"/>
  </g>
 </g>
</svg>
