<?xml version="1.0" encoding="UTF-8"?>
<!DOCTYPE svg PUBLIC "-//W3C//DTD SVG 1.0//EN" "http://www.w3.org/TR/2001/REC-SVG-20010904/DTD/svg10.dtd">
<!-- Creator: CorelDRAW X7 -->
<svg xmlns="http://www.w3.org/2000/svg" xml:space="preserve" width="300px" height="300px" version="1.0" style="shape-rendering:geometricPrecision; text-rendering:geometricPrecision; image-rendering:optimizeQuality; fill-rule:evenodd; clip-rule:evenodd"
viewBox="0 0 300 300"
 xmlns:xlink="http://www.w3.org/1999/xlink">
 <defs>
  <style type="text/css">
   <![CDATA[
    .fil0 {fill:black}
   ]]>
  </style>
 </defs>
 <g id="Layer_x0020_1">
  <metadata id="CorelCorpID_0Corel-Layer"/>
  <g id="_2233372936016">
   <path class="fil0" d="M179 181c0,1 0,1 1,3l3 7c2,3 3,6 5,9l-9 0 0 -19zm-61 -1l0 20 -9 0c1,-4 2,-6 4,-10l4 -7c0,0 0,-1 0,-1l1 -2zm-26 14c0,3 0,3 1,6 -8,0 -52,-1 -57,1 -12,5 -13,27 10,27l63 0c19,0 10,-17 13,-31 3,-14 22,-13 25,-2l3 0c3,-12 22,-11 25,2 1,6 -1,15 0,21 2,7 6,10 14,10l63 0c24,0 21,-25 8,-28 -9,-2 -45,0 -57,0 3,-6 3,-6 -2,-17l-16 -34c-9,-21 -11,-29 -37,-29 -16,0 -23,3 -28,12 -2,3 -2,2 -3,5 -3,5 -25,53 -25,57z"/>
   <path class="fil0" d="M173 92c0,-22 -35,-34 -46,-9 -5,10 -2,21 5,27 16,15 41,4 41,-18z"/>
   <path class="fil0" d="M125 203l0 33c0,18 20,15 20,2l0 -37c0,-11 -13,-14 -18,-6 -1,2 -2,5 -2,8z"/>
   <path class="fil0" d="M152 203l0 33c0,18 20,15 20,2l0 -37c0,-13 -20,-15 -20,2z"/>
   <path class="fil0" d="M254 147c0,14 -6,12 -8,22 1,1 3,3 5,4 8,-4 14,-14 14,-25 0,-11 -9,-16 -9,-21 0,-7 8,-9 4,-14 -4,-5 -9,0 -11,4 -3,5 -3,10 -1,15 2,6 6,9 6,15z"/>
   <path class="fil0" d="M213 147c0,14 -6,12 -8,22 2,1 3,3 5,4 6,-3 7,-4 10,-10 11,-23 -4,-28 -4,-36 0,-7 7,-9 3,-14 -5,-7 -17,5 -12,19 2,6 6,9 6,15z"/>
   <path class="fil0" d="M34 115c0,7 3,3 3,12 0,9 -16,15 -1,40 5,9 7,5 10,5 4,-13 -7,-9 -7,-24 0,-8 9,-11 9,-22 0,-14 -14,-20 -14,-11z"/>
   <path class="fil0" d="M74 115c0,7 4,3 4,12 0,9 -17,15 -2,40 1,2 3,4 4,5 5,2 3,0 7,0 3,-13 -7,-9 -7,-24 0,-8 8,-11 8,-22 0,-14 -14,-20 -14,-11z"/>
  </g>
 </g>
</svg>
