<?xml version="1.0" encoding="UTF-8"?>
<!DOCTYPE svg PUBLIC "-//W3C//DTD SVG 1.0//EN" "http://www.w3.org/TR/2001/REC-SVG-20010904/DTD/svg10.dtd">
<!-- Creator: CorelDRAW X7 -->
<svg xmlns="http://www.w3.org/2000/svg" xml:space="preserve" width="1in" height="1in" version="1.0" style="shape-rendering:geometricPrecision; text-rendering:geometricPrecision; image-rendering:optimizeQuality; fill-rule:evenodd; clip-rule:evenodd"
viewBox="0 0 1000 1000"
 xmlns:xlink="http://www.w3.org/1999/xlink">
 <defs>
  <style type="text/css">
   <![CDATA[
    .fil0 {fill:black}
    .fil1 {fill:white}
   ]]>
  </style>
 </defs>
 <g id="Layer_x0020_1">
  <metadata id="CorelCorpID_0Corel-Layer"/>
  <g id="_2603708486128">
   <path class="fil0" d="M576 607c4,-6 9,-8 15,-11 5,-3 11,-9 18,-9 0,0 17,10 3,20 -20,13 -31,22 -36,0zm-29 -225c1,2 0,1 2,4l5 12c15,46 14,96 14,145 -8,3 -13,11 -21,11l0 -172zm-95 116c7,-4 7,-5 15,-1 2,5 4,15 -7,15 -2,0 -7,-3 -8,-4l0 -10zm0 -52c0,-7 5,-11 17,-3l-2 10c-6,2 -15,6 -15,-7zm1 -62c8,-3 16,-2 16,7 0,9 -21,15 -16,-7zm-153 105l0 72c4,6 -3,23 6,37 5,8 18,14 31,9 23,-9 14,-41 14,-71 0,-40 1,-83 10,-120l12 -34c0,26 -2,468 0,482 4,26 17,30 32,36l2 0 12 0c4,-2 19,-3 27,-18 8,-12 7,-18 7,-37l0 -274 14 0 0 270c0,23 0,45 24,56 2,1 3,1 5,2l4 1 14 0c4,-2 17,-3 26,-17 8,-12 7,-18 7,-37l0 -265c6,5 29,50 38,59 9,-1 24,-13 36,-19 5,10 12,19 18,29l36 59c3,5 5,9 8,14 3,5 8,11 9,16 7,0 4,0 8,-2l0 -4 -36 -58c-6,-9 -34,-53 -35,-59 3,-4 5,-3 4,-10 -2,-9 -13,-15 -14,-28 0,-20 2,-35 2,-55 0,-62 -9,-182 -69,-213 -21,-10 -26,-7 -46,-7 0,14 -6,36 -6,56 -5,-3 -30,-33 -31,-38 4,-5 11,-12 15,-18l-48 0c5,7 12,12 16,18 -5,8 -10,13 -15,20 -7,8 -11,15 -16,16 0,-7 -2,-19 -4,-27 -1,-9 -2,-18 -2,-27 -16,0 -20,-3 -34,2 -18,5 -32,19 -43,33 -3,5 -4,7 -7,12 -3,4 -4,7 -6,12 -8,21 -13,35 -17,59 -5,24 -6,38 -7,60l-1 8z"/>
   <path class="fil0" d="M390 176c0,-15 12,-18 24,-21 32,-10 113,-8 117,15 2,12 -7,0 -25,-5 -27,-7 -77,-7 -103,4 -7,3 -6,6 -13,7zm56 -50c0,-5 6,-13 11,-13 22,0 21,18 13,25 -9,7 -24,4 -24,-12zm26 -26l-25 0 -3 1c-2,0 -4,1 -5,1 -4,0 -7,1 -9,2 -46,12 -87,79 -40,79 1,5 0,3 3,5 -3,12 -7,21 -4,38 12,66 94,82 131,30 22,-32 7,-59 9,-71 8,-4 26,1 20,-24 -2,-11 -10,-24 -16,-31 -17,-19 -33,-24 -56,-29 -1,0 -1,0 -1,0l-4 -1z"/>
   <path class="fil1" d="M419 900l81 0 -4 -1c-2,-1 -3,-1 -5,-2 -24,-11 -24,-33 -24,-56l0 -270 -14 0 0 274c0,19 1,25 -7,37 -8,15 -23,16 -27,18z"/>
   <path class="fil1" d="M547 554c8,0 13,-8 21,-11 0,-49 1,-99 -14,-145l-5 -12c-2,-3 -1,-2 -2,-4l0 172z"/>
   <path class="fil1" d="M390 176c7,-1 6,-4 13,-7 26,-11 76,-11 103,-4 18,5 27,17 25,5 -4,-23 -85,-25 -117,-15 -12,3 -24,6 -24,21z"/>
   <path class="fil1" d="M576 607c5,22 16,13 36,0 14,-10 -3,-20 -3,-20 -7,0 -13,6 -18,9 -6,3 -11,5 -15,11z"/>
   <path class="fil1" d="M446 126c0,16 15,19 24,12 8,-7 9,-25 -13,-25 -5,0 -11,8 -11,13z"/>
   <path class="fil1" d="M452 498l0 10c1,1 6,4 8,4 11,0 9,-10 7,-15 -8,-4 -8,-3 -15,1z"/>
   <path class="fil1" d="M452 446c0,13 9,9 15,7l2 -10c-12,-8 -17,-4 -17,3z"/>
   <path class="fil1" d="M453 384c-5,22 16,16 16,7 0,-9 -8,-10 -16,-7z"/>
  </g>
 </g>
</svg>
