<?xml version="1.0" encoding="UTF-8"?>
<!DOCTYPE svg PUBLIC "-//W3C//DTD SVG 1.0//EN" "http://www.w3.org/TR/2001/REC-SVG-20010904/DTD/svg10.dtd">
<!-- Creator: CorelDRAW X7 -->
<svg xmlns="http://www.w3.org/2000/svg" xml:space="preserve" width="1in" height="1in" version="1.0" style="shape-rendering:geometricPrecision; text-rendering:geometricPrecision; image-rendering:optimizeQuality; fill-rule:evenodd; clip-rule:evenodd"
viewBox="0 0 1000 1000"
 xmlns:xlink="http://www.w3.org/1999/xlink">
 <defs>
  <style type="text/css">
   <![CDATA[
    .fil0 {fill:black}
   ]]>
  </style>
 </defs>
 <g id="Layer_x0020_1">
  <metadata id="CorelCorpID_0Corel-Layer"/>
  <g id="_2638352596608">
   <path class="fil0" d="M397 739l25 0 0 118 -25 0 0 -118zm73 106l0 -274 45 0 0 274c0,18 -45,18 -45,0zm78 -106l45 0 0 40 41 0 0 -40 49 0 0 102 -135 0 0 -102zm0 -139l45 0 0 45 41 0 0 -45 49 0 0 102 -135 0 0 -102zm-261 -16l0 146c23,16 7,15 37,9 8,-38 4,-106 4,-147l20 0 0 253c0,9 -3,12 -12,12l-131 0 0 -437 588 0 0 437 -78 0 0 -290 -90 0c5,-8 6,-9 9,-20l-13 -16c-93,0 -187,0 -281,0 -25,0 -53,28 -53,53zm-131 -204l0 514c11,9 11,11 21,12l652 0c10,-11 12,-11 13,-21 4,-73 0,-406 0,-505 -9,-6 -14,-13 -29,-13l-628 0c-15,0 -20,7 -29,13z"/>
   <path class="fil0" d="M324 257c-13,-8 -26,-21 -35,-34 -49,-66 -67,-7 -67,-6 0,19 79,90 90,105 46,58 55,19 102,-31 12,-13 61,-55 61,-70 0,-19 -10,-29 -29,-29 -16,0 -44,44 -69,61 0,-31 6,-133 -9,-150 -18,-18 -39,-3 -43,9l-1 145z"/>
   <path class="fil0" d="M515 229c35,66 66,-17 102,-41 0,31 0,63 0,94 0,31 -6,69 25,69 11,0 22,-9 26,-19 5,-13 2,-121 2,-140 26,17 54,61 70,61 19,0 28,-9 28,-28 0,-14 -47,-58 -58,-69 -34,-33 -27,-42 -68,-62l-69 62c-12,13 -17,22 -30,35 -29,29 -15,12 -28,38z"/>
   <path class="fil0" d="M360 478c0,85 125,32 72,-28 -23,-26 -72,-9 -72,28z"/>
  </g>
 </g>
</svg>
