<?xml version="1.0" encoding="UTF-8"?>
<!DOCTYPE svg PUBLIC "-//W3C//DTD SVG 1.0//EN" "http://www.w3.org/TR/2001/REC-SVG-20010904/DTD/svg10.dtd">
<!-- Creator: CorelDRAW X7 -->
<svg xmlns="http://www.w3.org/2000/svg" xml:space="preserve" width="300px" height="300px" version="1.0" style="shape-rendering:geometricPrecision; text-rendering:geometricPrecision; image-rendering:optimizeQuality; fill-rule:evenodd; clip-rule:evenodd"
viewBox="0 0 300 300"
 xmlns:xlink="http://www.w3.org/1999/xlink">
 <defs>
  <style type="text/css">
   <![CDATA[
    .fil0 {fill:black}
   ]]>
  </style>
 </defs>
 <g id="Layer_x0020_1">
  <metadata id="CorelCorpID_0Corel-Layer"/>
  <g id="_2231652560640">
   <path class="fil0" d="M254 228c8,0 8,-2 12,2 -2,5 -1,5 -11,5 0,-6 1,-4 -1,-7zm-215 -13l-16 0 0 14c47,0 38,-13 51,-13 9,0 14,3 22,3 29,-3 14,-4 49,-1 4,0 7,1 11,2 5,2 6,1 6,8 -11,5 -15,-11 -50,10 -18,11 -22,5 -34,4 0,4 -3,10 -4,13 31,15 53,-13 65,-13 7,0 36,10 38,-13l54 0c8,0 10,1 10,9 -10,2 -26,1 -39,1 -38,0 -52,24 -97,24 -27,0 -27,3 -48,-4 -12,-4 -18,-3 -31,-3l0 14c36,0 30,8 48,8 53,0 49,2 96,-17 38,-15 54,-3 73,-9 5,-2 4,-3 9,-4 3,-1 26,3 26,-16 0,-18 -19,-17 -30,-17l-70 0c-12,-1 -10,-13 -59,-13 -7,0 -15,2 -22,2 -7,1 -12,-2 -23,-2 -14,0 -19,13 -35,13z"/>
   <path class="fil0" d="M188 166l0 -77 65 0 0 87c-12,3 -52,3 -63,0 -1,-5 -2,-5 -2,-10zm2 -122c13,-3 43,-1 58,-1 8,0 5,12 5,31l-63 0 0 -30zm-16 13l0 106c0,36 24,29 71,29 11,0 22,-7 22,-18l0 -128c0,-10 -10,-18 -20,-18 -52,0 -73,-7 -73,29z"/>
   <path class="fil0" d="M55 114c0,-3 1,-4 4,-4l83 0c4,0 5,1 5,4l0 62 -92 0 0 -62zm-14 2l0 58c0,11 9,18 20,18l80 0c11,0 20,-7 20,-18l0 -58c0,-16 -10,-20 -26,-20l-69 0c-15,0 -25,4 -25,20z"/>
   <polygon class="fil0" points="69,169 134,169 134,140 69,140 "/>
   <path class="fil0" d="M82 83c-18,0 -17,1 -17,-16l23 0c0,6 1,16 -6,16zm-27 -6c0,22 41,21 41,2l0 -12 25 0 0 -9 -66 0 0 19z"/>
   <path class="fil0" d="M61 31c0,2 3,7 4,9 -4,8 -4,4 -4,13 1,0 4,0 5,0 9,-3 9,-17 5,-23 -4,-4 -4,-3 -10,-3l0 4z"/>
   <path class="fil0" d="M85 41c-3,4 -4,5 -4,12 7,0 13,0 13,-15 0,-12 -9,-11 -13,-11 0,8 2,7 4,14z"/>
   <path class="fil0" d="M94 123c0,11 15,13 15,0 0,-10 -15,-9 -15,0z"/>
   <path class="fil0" d="M117 124c0,4 2,5 4,8 11,0 11,-1 11,-12 -1,-1 -5,-4 -5,-4 -6,0 -10,3 -10,8z"/>
   <path class="fil0" d="M72 123c0,13 16,11 16,0 0,-9 -16,-10 -16,0z"/>
   <path class="fil0" d="M197 57l0 6 14 0 0 -10 -10 0c-3,0 -4,1 -4,4z"/>
   <polygon class="fil0" points="197,121 211,121 211,113 197,113 "/>
  </g>
 </g>
</svg>
