<?xml version="1.0" encoding="UTF-8"?>
<!DOCTYPE svg PUBLIC "-//W3C//DTD SVG 1.0//EN" "http://www.w3.org/TR/2001/REC-SVG-20010904/DTD/svg10.dtd">
<!-- Creator: CorelDRAW X7 -->
<svg xmlns="http://www.w3.org/2000/svg" xml:space="preserve" width="300px" height="300px" version="1.0" style="shape-rendering:geometricPrecision; text-rendering:geometricPrecision; image-rendering:optimizeQuality; fill-rule:evenodd; clip-rule:evenodd"
viewBox="0 0 300 300"
 xmlns:xlink="http://www.w3.org/1999/xlink">
 <defs>
  <style type="text/css">
   <![CDATA[
    .fil0 {fill:black}
   ]]>
  </style>
 </defs>
 <g id="Layer_x0020_1">
  <metadata id="CorelCorpID_0Corel-Layer"/>
  <g id="_2231843236416">
   <path class="fil0" d="M52 113l0 70c0,10 10,19 22,19l52 0 0 62c0,5 5,9 11,9l4 0c6,0 11,-4 11,-10l0 -78c0,-8 -8,-10 -15,-10 -2,0 -2,1 -4,1 -1,0 -1,-1 -3,-1l-25 0 0 -60c0,-12 -9,-22 -20,-22 -10,0 -19,-2 -27,6 -3,3 -6,8 -6,14z"/>
   <path class="fil0" d="M79 85c4,0 8,-2 11,-3 2,-1 3,-1 5,-2l4 -4c1,0 0,-1 1,-1 1,-1 1,-1 2,-2 7,-10 7,-24 0,-34l-2 -3c-13,-12 -30,-12 -42,-1 -18,19 -4,50 21,50z"/>
   <path class="fil0" d="M35 219c0,6 4,11 9,11l67 0c5,0 8,-5 8,-11 0,-5 -2,-11 -7,-11l-68 0c-6,0 -9,5 -9,11z"/>
   <path class="fil0" d="M242 55c0,14 15,23 15,36 0,5 -7,12 -10,15 -18,26 8,38 9,55 2,17 -5,15 -11,26 -9,18 4,37 12,37 0,0 7,-3 0,-8 -8,-6 -9,-17 -5,-25 4,-9 12,-8 12,-28 0,-24 -29,-31 -7,-57 6,-7 10,-15 5,-25 -7,-15 -19,-24 -8,-39 2,-1 3,-2 4,-3 3,-3 4,-2 4,-6 0,-2 -2,-3 -4,-3 -3,0 -9,7 -11,10 -2,3 -5,9 -5,15z"/>
   <path class="fil0" d="M179 53c0,6 0,8 3,13 3,7 12,17 12,24 0,11 -24,23 -13,46 0,1 1,3 2,4l8 12c3,7 3,17 0,23 -4,7 -12,10 -12,26 0,17 18,30 18,18 0,-4 -11,-3 -11,-20 0,-5 2,-9 5,-13 1,0 1,-1 2,-1 9,-8 9,-21 6,-32 -5,-15 -24,-24 -6,-45 10,-12 11,-19 2,-34 -1,-1 -1,-2 -2,-3 -1,-3 -4,-6 -5,-10 -6,-17 11,-23 11,-27 0,-2 -2,-4 -4,-4 -4,0 -16,12 -16,23z"/>
   <path class="fil0" d="M211 54c0,9 3,13 6,19 3,5 8,11 8,18 0,12 -29,22 -8,53l5 7c3,7 4,17 1,24 -3,5 -10,8 -12,20 -2,10 1,18 7,24 5,6 10,6 10,1 0,-5 -10,-4 -10,-20 0,-17 14,-14 14,-36 0,-19 -13,-25 -15,-38 -1,-12 8,-17 13,-26 11,-18 -12,-31 -12,-44 0,-16 13,-17 13,-22 0,-3 -2,-4 -5,-4 -2,0 -9,7 -10,9 -3,4 -5,9 -5,15z"/>
  </g>
 </g>
</svg>
