<?xml version="1.0" encoding="UTF-8"?>
<!DOCTYPE svg PUBLIC "-//W3C//DTD SVG 1.0//EN" "http://www.w3.org/TR/2001/REC-SVG-20010904/DTD/svg10.dtd">
<!-- Creator: CorelDRAW X7 -->
<svg xmlns="http://www.w3.org/2000/svg" xml:space="preserve" width="300px" height="300px" version="1.0" style="shape-rendering:geometricPrecision; text-rendering:geometricPrecision; image-rendering:optimizeQuality; fill-rule:evenodd; clip-rule:evenodd"
viewBox="0 0 300 300"
 xmlns:xlink="http://www.w3.org/1999/xlink">
 <defs>
  <style type="text/css">
   <![CDATA[
    .fil0 {fill:black}
    .fil1 {fill:white}
   ]]>
  </style>
 </defs>
 <g id="Layer_x0020_1">
  <metadata id="CorelCorpID_0Corel-Layer"/>
  <g id="_2231850603232">
   <path class="fil0" d="M86 250c0,-19 -5,-16 29,-16 6,0 4,8 4,16 0,3 -2,4 -5,4l-23 0c-3,0 -5,-1 -5,-4zm81 0c0,-5 -2,-16 3,-16l27 0c5,0 3,11 3,16 0,2 -2,4 -4,4l-25 0c-2,0 -4,-2 -4,-4zm-41 -1c0,-4 -1,-15 4,-15l26 0c5,0 4,8 4,17 0,2 -3,3 -5,3l-24 0c-3,0 -5,-2 -5,-5zm-40 -26c0,-6 -1,-15 3,-15l27 0c5,0 3,10 3,15 0,3 -2,5 -5,5l-23 0c-3,0 -5,-2 -5,-5zm40 -1c0,-18 -4,-14 30,-14 5,0 4,7 4,15 0,3 -3,5 -6,5 -6,0 -24,1 -26,-2 -1,0 -2,-2 -2,-4zm-40 -26c0,-17 -5,-17 27,-15 8,0 6,1 6,16 0,5 -12,3 -17,3 -9,0 -16,2 -16,-4zm-40 -86c0,-18 -3,-16 10,-22 5,-2 9,-4 14,-6l40 -18c4,-2 37,-17 40,-17 3,-1 28,11 33,14 19,9 42,18 60,27 2,1 4,2 7,3 6,3 4,4 4,19 0,1 0,2 -1,3 -14,0 -12,-2 -12,27l0 109c0,6 -3,5 -9,5 -5,0 -4,-4 -4,-9l0 -89c0,-5 0,-10 -5,-10l-145 0c-5,0 -6,4 -6,9l0 89c0,11 1,10 -9,10 -5,0 -4,-9 -4,-15l0 -118c0,-9 -2,-8 -12,-8 -1,-1 -1,-2 -1,-3zm-20 -21l0 36c0,3 1,5 3,6 3,3 6,2 10,2l0 126c0,7 4,12 9,15 5,2 57,0 71,1 2,0 0,-1 2,-1l127 0c8,0 13,-7 13,-15l0 -126c4,0 7,1 10,-2 1,-1 3,-3 3,-6l0 -36c0,-7 -13,-11 -20,-14l-55 -27c-5,-3 -10,-5 -16,-8 -5,-3 -11,-5 -16,-8 -4,-2 -12,-7 -17,-7 -3,0 -13,5 -16,7l-64 31c-6,2 -10,5 -16,7 -3,2 -5,3 -8,4 -7,4 -20,8 -20,15z"/>
   <path class="fil1" d="M153 116c0,-1 3,-3 5,-3l24 0c3,0 5,2 5,3 0,10 2,17 -5,17 -33,0 -29,4 -29,-17zm41 0c0,-1 3,-3 5,-3l24 0c2,0 5,2 5,5 0,7 1,15 -5,15 -33,0 -29,4 -29,-17zm-122 2c0,-1 1,-3 2,-4 3,-2 22,-1 28,-1 3,0 5,2 5,5 0,7 1,15 -5,15 -33,0 -30,4 -30,-15zm41 -2c0,-1 3,-3 5,-3l23 0c4,0 6,2 6,6 0,8 1,14 -6,14 -32,0 -28,4 -28,-17zm-67 -6c0,1 0,2 1,3 10,0 12,-1 12,8l0 118c0,6 -1,15 4,15 10,0 9,1 9,-10l0 -89c0,-5 1,-9 6,-9l145 0c5,0 5,5 5,10l0 89c0,5 -1,9 4,9 6,0 9,1 9,-5l0 -109c0,-29 -2,-27 12,-27 1,-1 1,-2 1,-3 0,-15 2,-16 -4,-19 -3,-1 -5,-2 -7,-3 -18,-9 -41,-18 -60,-27 -5,-3 -30,-15 -33,-14 -3,0 -36,15 -40,17l-40 18c-5,2 -9,4 -14,6 -13,6 -10,4 -10,22z"/>
   <path class="fil0" d="M72 118c0,19 -3,15 30,15 6,0 5,-8 5,-15 0,-3 -2,-5 -5,-5 -6,0 -25,-1 -28,1 -1,1 -2,3 -2,4z"/>
   <path class="fil0" d="M113 116c0,21 -4,17 28,17 7,0 6,-6 6,-14 0,-4 -2,-6 -6,-6l-23 0c-2,0 -5,2 -5,3z"/>
   <path class="fil0" d="M153 116c0,21 -4,17 29,17 7,0 5,-7 5,-17 0,-1 -2,-3 -5,-3l-24 0c-2,0 -5,2 -5,3z"/>
   <path class="fil0" d="M194 116c0,21 -4,17 29,17 6,0 5,-8 5,-15 0,-3 -3,-5 -5,-5l-24 0c-2,0 -5,2 -5,3z"/>
   <path class="fil1" d="M126 222c0,2 1,4 2,4 2,3 20,2 26,2 3,0 6,-2 6,-5 0,-8 1,-15 -4,-15 -34,0 -30,-4 -30,14z"/>
   <path class="fil1" d="M126 249c0,3 2,5 5,5l24 0c2,0 5,-1 5,-3 0,-9 1,-17 -4,-17l-26 0c-5,0 -4,11 -4,15z"/>
   <path class="fil1" d="M167 250c0,2 2,4 4,4l25 0c2,0 4,-2 4,-4 0,-5 2,-16 -3,-16l-27 0c-5,0 -3,11 -3,16z"/>
   <path class="fil1" d="M86 196c0,6 7,4 16,4 5,0 17,2 17,-3 0,-15 2,-16 -6,-16 -32,-2 -27,-2 -27,15z"/>
   <path class="fil1" d="M86 250c0,3 2,4 5,4l23 0c3,0 5,-1 5,-4 0,-8 2,-16 -4,-16 -34,0 -29,-3 -29,16z"/>
   <path class="fil1" d="M86 223c0,3 2,5 5,5l23 0c3,0 5,-2 5,-5 0,-5 2,-15 -3,-15l-27 0c-4,0 -3,9 -3,15z"/>
  </g>
 </g>
</svg>
