<?xml version="1.0" encoding="UTF-8"?>
<!DOCTYPE svg PUBLIC "-//W3C//DTD SVG 1.0//EN" "http://www.w3.org/TR/2001/REC-SVG-20010904/DTD/svg10.dtd">
<!-- Creator: CorelDRAW X7 -->
<svg xmlns="http://www.w3.org/2000/svg" xml:space="preserve" width="300px" height="300px" version="1.0" style="shape-rendering:geometricPrecision; text-rendering:geometricPrecision; image-rendering:optimizeQuality; fill-rule:evenodd; clip-rule:evenodd"
viewBox="0 0 300 300"
 xmlns:xlink="http://www.w3.org/1999/xlink">
 <defs>
  <style type="text/css">
   <![CDATA[
    .fil0 {fill:black}
   ]]>
  </style>
 </defs>
 <g id="Layer_x0020_1">
  <metadata id="CorelCorpID_0Corel-Layer"/>
  <g id="_2231848651264">
   <path class="fil0" d="M73 195l-20 0c0,-5 -1,-15 -2,-19 -1,-7 -2,-15 -3,-21 -1,-7 -2,-14 -3,-19 -1,-9 0,-14 -10,-14 -16,0 2,45 2,73 -3,2 -4,3 -7,5l0 8c8,7 12,4 38,4l0 30c-5,0 -38,-3 -38,7 0,7 3,10 9,10 -2,4 -1,4 -1,10 3,2 4,2 7,4 3,-2 4,-2 7,-4 0,-6 0,-6 -1,-10l45 0c-1,12 -3,8 7,14 3,-2 4,-2 7,-4l-1 -10c14,0 10,-17 -2,-17l-25 0 0 -30c33,0 30,3 36,-8 -1,-3 -2,-4 -4,-7 4,0 5,0 8,1 0,11 2,19 3,29 3,24 2,15 8,25 27,0 18,-11 11,-63 -2,-20 -10,-16 -38,-16 0,-11 1,-18 1,-29 -8,-2 -13,-4 -18,-10 -2,-2 -4,-4 -6,-6 -2,-3 -6,-9 -8,-13 -4,-8 -11,-26 6,-26 15,0 10,20 26,31 3,-11 4,-31 -4,-40 -6,-7 -6,-3 -21,-3 -5,0 -5,-2 -9,-3 -1,0 -1,0 -1,1 -1,1 -12,4 -12,24 0,20 -3,54 -3,73 1,14 7,17 15,23 0,0 0,0 1,0z"/>
   <path class="fil0" d="M158 260l31 0c-1,-2 -5,-12 7,-13l0 -10c-11,-3 -12,-17 0,-18l0 -10c3,-3 3,-4 6,-4l52 0 0 -36 -96 0 0 91z"/>
   <polygon class="fil0" points="139,166 265,166 265,150 139,150 "/>
   <path class="fil0" d="M63 46c0,10 -1,14 8,21 2,2 4,3 7,5 24,9 41,-18 26,-38 -12,-14 -41,-6 -41,12z"/>
   <path class="fil0" d="M74 97c0,17 21,45 39,45 18,0 38,-26 38,-32 0,-4 0,-4 -1,-7 -15,-4 -11,1 -20,11 -17,17 -23,13 -34,-4 -4,-4 -3,-5 -6,-11 -7,-15 -16,-3 -16,-2z"/>
   <path class="fil0" d="M167 136c1,3 14,11 16,11 3,0 3,-1 5,-3l34 -30c-8,-2 -5,-3 -11,1 -12,-10 -15,-7 -21,-1 -5,5 -19,16 -23,22z"/>
   <path class="fil0" d="M198 241c0,5 0,1 2,4 8,4 58,2 71,2 -2,-9 -1,-3 0,-11l-58 0c-6,-1 -15,-2 -15,5z"/>
   <path class="fil0" d="M190 255l3 5 72 0c-3,-8 -2,-2 0,-11l-72 0 -3 6z"/>
   <path class="fil0" d="M198 269c0,6 9,4 15,4l58 0c-1,-7 0,-3 0,-10l-71 0c-1,4 -2,3 -2,6z"/>
   <path class="fil0" d="M198 212c0,4 1,4 2,7l71 0c-2,-8 -1,-2 0,-10l-56 0c-5,0 -17,-1 -17,3z"/>
   <path class="fil0" d="M190 226c1,3 1,4 3,7l72 0c-4,-7 -1,-10 0,-10l-58 0c-8,0 -13,-1 -17,3z"/>
   <path class="fil0" d="M133 140c21,5 -4,7 42,7l-14 -9c-1,-3 -2,0 1,-5 -6,0 -13,-4 -18,-7 -2,3 -3,4 -5,7 -4,3 -4,3 -6,7z"/>
   <path class="fil0" d="M151 100l6 3 0 10c-4,1 -2,-1 -4,2 5,2 3,0 4,6l16 0c0,-29 3,-25 -12,-25 -3,0 -4,3 -10,4z"/>
   <path class="fil0" d="M225 140l0 6 34 0c0,-12 3,1 3,-11 -11,0 -22,0 -33,0 -4,7 4,4 -4,5z"/>
   <path class="fil0" d="M113 122c5,-1 13,-8 13,-9 0,-4 -4,-6 -6,-9 -2,-4 -4,-7 -7,-9 0,12 -3,17 0,27z"/>
   <polygon class="fil0" points="225,133 259,133 259,128 225,128 "/>
   <path class="fil0" d="M227 124c2,2 0,2 4,2l31 0 0 -5 -31 0c-2,0 -3,1 -4,3z"/>
  </g>
 </g>
</svg>
