<?xml version="1.0" encoding="UTF-8"?>
<!DOCTYPE svg PUBLIC "-//W3C//DTD SVG 1.0//EN" "http://www.w3.org/TR/2001/REC-SVG-20010904/DTD/svg10.dtd">
<!-- Creator: CorelDRAW X7 -->
<svg xmlns="http://www.w3.org/2000/svg" xml:space="preserve" width="1in" height="1in" version="1.0" style="shape-rendering:geometricPrecision; text-rendering:geometricPrecision; image-rendering:optimizeQuality; fill-rule:evenodd; clip-rule:evenodd"
viewBox="0 0 1000 1000"
 xmlns:xlink="http://www.w3.org/1999/xlink">
 <defs>
  <style type="text/css">
   <![CDATA[
    .fil0 {fill:black;fill-rule:nonzero}
   ]]>
  </style>
 </defs>
 <g id="Layer_x0020_1">
  <metadata id="CorelCorpID_0Corel-Layer"/>
  <g id="_2638300609072">
   <path class="fil0" d="M488 380c48,0 86,-40 86,-89 0,-49 -38,-89 -86,-89 -48,0 -86,40 -86,89 0,49 38,89 86,89z"/>
   <path class="fil0" d="M423 484l111 20c68,8 150,12 198,-6l-64 -88 77 -55 168 52c65,-13 20,-78 20,-78l-208 -81 -306 232 4 4z"/>
   <path class="fil0" d="M398 538c56,32 121,43 186,43 172,0 343,-83 352,-87l-17 -34c-3,1 -313,152 -502,45 -109,-62 -202,-58 -261,-43 -64,16 -102,47 -104,48l25 29c5,-4 135,-107 321,-1z"/>
   <path class="fil0" d="M425 607c-109,-62 -202,-57 -261,-43 -65,16 -103,47 -104,49l24 29c6,-4 136,-107 322,-2 56,32 121,44 186,44 172,0 342,-83 352,-88l-17 -34c-3,2 -313,153 -502,45z"/>
   <path class="fil0" d="M425 721c-109,-62 -202,-57 -261,-43 -65,16 -103,48 -104,49l24 29c6,-4 136,-107 322,-2 56,32 121,44 186,44 172,0 342,-83 352,-88l-17 -34c-3,2 -313,153 -502,45z"/>
  </g>
 </g>
</svg>
