<?xml version="1.0" encoding="UTF-8"?>
<!DOCTYPE svg PUBLIC "-//W3C//DTD SVG 1.0//EN" "http://www.w3.org/TR/2001/REC-SVG-20010904/DTD/svg10.dtd">
<!-- Creator: CorelDRAW X7 -->
<svg xmlns="http://www.w3.org/2000/svg" xml:space="preserve" width="1in" height="1in" version="1.0" style="shape-rendering:geometricPrecision; text-rendering:geometricPrecision; image-rendering:optimizeQuality; fill-rule:evenodd; clip-rule:evenodd"
viewBox="0 0 1000 1000"
 xmlns:xlink="http://www.w3.org/1999/xlink">
 <defs>
  <style type="text/css">
   <![CDATA[
    .fil0 {fill:black}
    .fil1 {fill:#FDFDFD}
   ]]>
  </style>
 </defs>
 <g id="Layer_x0020_1">
  <metadata id="CorelCorpID_0Corel-Layer"/>
  <g id="_2638358128736">
   <path class="fil0" d="M505 576c2,10 -10,15 -17,6l-25 -34c8,-10 29,-31 32,-35 8,-1 9,0 13,5 4,8 -10,15 -13,22 19,0 40,1 59,0 16,-1 29,-14 24,-32l-21 -37c-3,-6 -10,-14 -6,-21 6,-7 13,-3 18,6 7,12 14,25 21,37 16,29 -1,65 -39,65 -19,0 -38,0 -58,0 2,5 11,13 12,18zm-128 -139c-6,1 -18,5 -23,2 -6,-4 -5,-14 4,-16 12,-3 30,-6 43,-8 2,4 16,39 16,43 2,9 -8,13 -14,8 -4,-3 -6,-14 -9,-20 -4,3 -19,32 -23,38 -7,12 -20,26 -11,43 13,25 66,5 76,16 2,2 3,8 0,11 -5,8 -62,4 -70,1 -13,-5 -24,-18 -26,-35 -4,-26 27,-58 37,-83zm32 -40c-5,-9 1,-15 5,-23 4,-8 9,-15 13,-22 2,-3 4,-8 6,-11 14,-20 46,-23 61,-8 17,15 33,56 41,62 3,-6 4,-16 10,-18 7,-4 13,3 11,11 -3,13 -11,28 -14,41 -8,-1 -41,-6 -46,-8 -9,-3 -7,-14 0,-16 5,-2 18,2 24,2 -5,-12 -14,-24 -21,-36 -6,-12 -13,-27 -26,-29 -30,-6 -33,34 -54,57l-10 -2zm100 456c-7,-3 -13,-15 -16,-21 -4,-9 -6,-18 -8,-29 -7,-58 17,-124 52,-165 11,-13 23,-28 35,-39l15 -13c19,-18 24,-22 43,-38l21 -16c11,-8 32,-24 43,-30 -5,-17 -8,-44 -3,-62 7,-24 19,-20 40,-30l22 -142 -570 0 92 589 236 0c0,0 0,0 0,-1l-2 -2c0,0 0,0 0,-1z"/>
   <path class="fil0" d="M695 521l-5 5c-13,9 -41,30 -54,41 -2,2 -3,2 -5,3l-42 37 -45 51c-26,33 -39,73 -42,116 -2,26 2,34 9,55 10,6 7,31 73,28 -3,-4 1,2 -1,-3 -2,-2 -2,-1 -4,-4 -10,-13 -16,-27 -18,-43 -2,-14 0,-50 7,-59 6,-6 19,-3 15,11 -7,23 -9,50 4,71 1,2 2,4 3,6 2,3 2,2 3,5l13 13c3,2 2,0 3,3 10,1 83,1 98,0 9,0 11,-3 17,-7 12,-8 28,-28 35,-40 12,-23 20,-48 19,-78 0,-15 -2,-29 -5,-44 -3,-11 -14,-32 7,-30 15,16 17,82 13,108 -3,18 -9,31 -16,47 -5,8 -18,28 -25,34 -2,3 -1,1 -3,3 -1,2 0,0 -1,2 -1,1 -2,1 -2,2 -2,2 -1,1 -3,3 28,2 46,3 67,-11 12,-8 26,-26 34,-44 20,-46 15,-81 -5,-125 -16,-36 -37,-71 -57,-100 -5,-7 -38,-53 -43,-56l-32 -5c-5,0 -6,4 -12,5z"/>
   <path class="fil0" d="M785 249c3,-8 2,-8 -2,-16 -2,-5 -4,-10 -6,-15 -5,-10 -9,-20 -18,-24 -10,-4 -67,-2 -82,-2l-334 0c-35,0 -141,-1 -167,1 -13,5 -14,9 -20,22 -9,19 -23,35 1,36l548 -1c23,0 60,2 80,-1z"/>
   <path class="fil1" d="M509 853l3 -1c-1,-5 0,-3 -3,-6 -1,-1 -4,-2 -5,-5l1 -4c-8,-3 -6,-8 -9,-8 2,-1 4,0 7,0l2 2c1,0 1,0 1,-1l2 -1c2,0 0,0 3,0 -7,-21 -11,-29 -9,-55 3,-43 16,-83 42,-116l45 -51 42 -37c2,-1 3,-1 5,-3 13,-11 41,-32 54,-41l5 -5 -4 -7c0,0 0,0 0,0 -1,-1 -2,-2 -4,1l3 -4c2,-2 -1,2 2,-2 0,-1 0,-1 0,-1 0,-1 0,-1 0,-1 1,4 1,2 5,1 0,-1 0,-1 -1,-2l-2 -4c-11,6 -32,22 -43,30l-21 16c-19,16 -24,20 -43,38l-15 13c-12,11 -24,26 -35,39 -35,41 -59,107 -52,165 2,11 4,20 8,29 3,6 9,18 16,21z"/>
   <path class="fil0" d="M387 152c-1,4 0,2 -3,5 -1,2 -2,3 -3,5 -3,4 -3,8 -6,12l181 1c-8,-40 -47,-39 -74,-39 -31,0 -65,-6 -87,10 -4,3 -4,4 -8,6z"/>
   <path class="fil0" d="M775 464c7,-8 27,-33 29,-41 -13,-7 -48,-1 -63,3 -7,2 -20,5 -26,9 -13,8 -8,49 -5,59 2,8 23,8 31,9l34 -39z"/>
   <path class="fil1" d="M377 437c-10,25 -41,57 -37,83 2,17 13,30 26,35 8,3 65,7 70,-1 3,-3 2,-9 0,-11 -10,-11 -63,9 -76,-16 -9,-17 4,-31 11,-43 4,-6 19,-35 23,-38 3,6 5,17 9,20 6,5 16,1 14,-8 0,-4 -14,-39 -16,-43 -13,2 -31,5 -43,8 -9,2 -10,12 -4,16 5,3 17,-1 23,-2z"/>
   <path class="fil1" d="M495 540c3,-7 17,-14 13,-22 -4,-5 -5,-6 -13,-5 -3,4 -24,25 -32,35l25 34c7,9 19,4 17,-6 -1,-5 -10,-13 -12,-18 20,0 39,0 58,0 38,0 55,-36 39,-65 -7,-12 -14,-25 -21,-37 -5,-9 -12,-13 -18,-6 -4,7 3,15 6,21l21 37c5,18 -8,31 -24,32 -19,1 -40,0 -59,0z"/>
   <path class="fil1" d="M409 397l10 2c21,-23 24,-63 54,-57 13,2 20,17 26,29 7,12 16,24 21,36 -6,0 -19,-4 -24,-2 -7,2 -9,13 0,16 5,2 38,7 46,8 3,-13 11,-28 14,-41 2,-8 -4,-15 -11,-11 -6,2 -7,12 -10,18 -8,-6 -24,-47 -41,-62 -15,-15 -47,-12 -61,8 -2,3 -4,8 -6,11 -4,7 -9,14 -13,22 -4,8 -10,14 -5,23z"/>
   <path class="fil1" d="M609 857c3,2 -1,2 6,3 9,1 89,-2 92,0l6 5c0,0 1,0 1,-1 0,0 1,0 1,0l8 -8c1,1 4,-1 8,-2l2 -1c0,0 0,0 0,0 1,0 1,-1 2,-2l0 -1c1,0 1,-1 1,-1 0,0 0,-1 0,-1 3,4 1,2 5,4 1,-5 2,-1 2,-6 1,-3 0,0 0,0 9,-1 1,-1 6,4 2,-2 1,0 3,-3 7,-6 20,-26 25,-34 7,-16 13,-29 16,-47 4,-26 2,-92 -13,-108 -21,-2 -10,19 -7,30 3,15 5,29 5,44 1,30 -7,55 -19,78 -7,12 -23,32 -35,40 -6,4 -8,7 -17,7 -15,1 -88,1 -98,0z"/>
   <path class="fil1" d="M583 854c3,-2 0,4 2,-2l-2 -6c-1,-3 -1,-2 0,-5 1,0 1,-1 3,-1l2 2 5 -1c-1,-3 -1,-2 -3,-5 -1,-2 -2,-4 -3,-6 -13,-21 -11,-48 -4,-71 4,-14 -9,-17 -15,-11 -7,9 -9,45 -7,59 2,16 8,30 18,43 2,3 2,2 4,4z"/>
  </g>
 </g>
</svg>
